<?xml version="1.0" standalone="no"?>
<!DOCTYPE svg PUBLIC "-//W3C//DTD SVG 1.1//EN" "http://www.w3.org/Graphics/SVG/1.1/DTD/svg11.dtd" >
<svg xmlns="http://www.w3.org/2000/svg">
<metadata></metadata>
<defs>
<font id="news_cycleregular" horiz-adv-x="920" >
<font-face units-per-em="2048" ascent="1638" descent="-410" />
<missing-glyph horiz-adv-x="462" />
<glyph unicode="ff" horiz-adv-x="896" d="M13 943v112h173v223q0 167 143 220q70 26 142 26q124 0 190 -45q82 45 170 45t97 -9v-112h-89q-150 0 -150 -125v-223h239v-112h-239v-943h-132v943h-239v-943h-132v943h-173zM318 1055h239v223q0 54 21 111q-68 16 -114 16q-146 0 -146 -127v-223z" />
<glyph unicode="fi" horiz-adv-x="804" d="M13 943v112h173v223q0 163 141 220q66 26 148 26l232 -9v-150h-150v38l-71 1q-88 0 -119 -21q-29 -19 -35 -35q-14 -35 -14 -70v-223h384v-1057h-132v945h-252v-943h-132v943h-173z" />
<glyph unicode="fl" horiz-adv-x="828" d="M13 943v112h173v223q0 161 162 220q74 26 139 26q122 0 203 -6l32 -3v-1517h-132v945h-272v-943h-132v943h-173zM318 1055h272v349h-89q-183 0 -183 -126v-223z" />
<glyph unicode="ffi" horiz-adv-x="1184" d="M13 943v112h173v223q0 246 308 246q75 0 119 -20.5t48 -24.5q87 45 185 45q36 0 133.5 -4t98.5 -5v-150h-150v39h-89q-150 0 -150 -126v-223h384v-1057h-132v945h-252v-943h-132v943h-239v-943h-132v943h-173zM318 1055h239v223q0 54 21 111q-68 16 -114 16 q-146 0 -146 -127v-223z" />
<glyph unicode="ffl" horiz-adv-x="1166" d="M13 943v112h173v223q0 162 160 220q73 26 123.5 26t65.5 -1t27 -3l23 -5q26 -5 41.5 -14.5t18.5 -11t9 -6t7 -4.5q77 46 175.5 46t223.5 -10v-1517h-132v945h-239v-943h-132v943h-239v-943h-132v943h-173zM318 1055h239v223q0 54 21 111q-68 16 -114 16q-146 0 -146 -127 v-223zM689 1055h239v349h-97q-142 0 -142 -126v-223z" />
<glyph unicode="&#x17f;t" horiz-adv-x="944" d="M13 943v112h173q13 281 129 383q99 87 289 87h130v-471h242v-112h-242v-669q0 -101 31 -138t102 -37q29 0 69 5t40 6v-99q-66 -24 -128.5 -24t-85.5 3t-56 19t-54 44q-50 71 -50 221v669h-113v112h113v351q-133 0 -198 -77q-59 -69 -74 -250q-6 -80 -6 -199v-879h-138 v943h-173z" />
<glyph unicode=" "  horiz-adv-x="462" />
<glyph unicode="&#x09;" horiz-adv-x="462" />
<glyph unicode="&#xa0;" horiz-adv-x="462" />
<glyph unicode="!" horiz-adv-x="284" d="M92 0v150h150v-150h-150zM92 1446h150l-23 -1146h-104z" />
<glyph unicode="&#x22;" horiz-adv-x="527" d="M70 1046l87 250h-65v150h150v-150q-27 -57 -76 -152t-52 -98h-44zM335 1046l87 250h-65v150h150v-150q-27 -57 -76 -152t-52 -98h-44z" />
<glyph unicode="#" horiz-adv-x="1278" d="M147 488v124h237v319h-237v124h237v462h132v-462h282v462h132v-462h246v-124h-246v-319h246v-124h-246v-488h-132v488h-282v-488h-132v488h-237zM516 612h282v319h-282v-319z" />
<glyph unicode="$" horiz-adv-x="1151" d="M157 1150q0 76 41 154.5t122 137.5t186 75v47h148v-45q211 -23 308 -193q8 -13 17 -30.5t11 -20.5l-120 -64q-16 51 -52 91q-67 73 -164 91v-555l80 -26q141 -49 230 -136q107 -106 107 -291q0 -93 -40.5 -168.5t-85 -120.5t-120.5 -75.5t-171 -30.5v-203h-148v216 q-172 35 -288 158q-27 28 -40 46l-13 18l118 78q1 0 7.5 -13.5t21.5 -34.5t38 -44q55 -55 156 -81v610q-200 78 -278 178q-71 91 -71 232zM305 1161q0 -81 15.5 -125.5t47.5 -73.5q48 -41 138 -75v504q-93 -19 -147 -84t-54 -146zM654 114q134 2 201.5 77t67.5 185.5 t-43.5 175t-152.5 109.5l-73 28v-575z" />
<glyph unicode="%" horiz-adv-x="1025" d="M67 66l837 1449l114 -66l-836 -1449zM81 1242q0 106 74.5 180.5t180.5 74.5t180.5 -74.5t74.5 -180.5t-74.5 -180.5t-180.5 -74.5t-180.5 74.5t-74.5 180.5zM177 1242q0 -65 46.5 -111.5t111.5 -46.5t111.5 46.5t46.5 111.5t-46.5 111.5t-111.5 46.5t-111.5 -46.5 t-46.5 -111.5zM512 267q0 106 74.5 180.5t180.5 74.5t180.5 -74.5t74.5 -180.5t-74.5 -180.5t-180.5 -74.5t-180.5 74.5t-74.5 180.5zM608 267q0 -65 46.5 -111.5t111.5 -46.5t111.5 46.5t46.5 111.5t-46.5 111.5t-111.5 46.5t-111.5 -46.5t-46.5 -111.5z" />
<glyph unicode="&#x26;" horiz-adv-x="1357" d="M110 411.5q0 177.5 124 303.5q66 66 187 155q-101 202 -101 339.5t87 232t218 94.5t212.5 -91.5t81.5 -224.5q0 -149 -129 -254q-90 -73 -202 -134q137 -228 362 -470q79 109 101 188t22 162h132q0 -141 -46.5 -246.5t-113.5 -202.5q101 -97 170 -112q33 -7 82 -7v-144 h-82q-49 0 -102 29.5t-153 129.5q-167 -170 -409 -170q-184 0 -312.5 122.5t-128.5 300zM242 416q0 -127 92.5 -215t220.5 -88q164 0 309 147q-240 264 -383 501l-77 -59q-84 -66 -109 -110q-53 -89 -53 -176zM452 1197q0 -98 76 -255q142 80 179.5 109t52.5 51 q40 57 40 130t-48 131.5t-124 58.5t-126 -63.5t-50 -161.5z" />
<glyph unicode="'" horiz-adv-x="284" d="M70 1046l87 250h-65v150h150v-150q-27 -57 -76 -152t-52 -98h-44z" />
<glyph unicode="(" horiz-adv-x="496" d="M92 697q0 106 18 218t47 203.5t64 177t69 148.5q71 129 111 184l18 25l116 -78q-44 -63 -100 -170.5t-94 -205t-69.5 -237.5t-31.5 -270t30 -271t72 -249q89 -226 158 -334l30 -48l-116 -78q-98 140 -195 384q-127 319 -127 601z" />
<glyph unicode=")" horiz-adv-x="496" d="M92 1575l116 78q103 -132 198 -357q129 -303 129 -603q0 -140 -33 -293t-80 -270q-98 -241 -176 -366l-33 -52l-116 78q40 60 95.5 171.5t93.5 212.5t69.5 244.5t31.5 273.5t-31.5 270t-69.5 237.5t-88 194.5q-62 118 -106 181z" />
<glyph unicode="*" horiz-adv-x="638" d="M63 721l29 88l206 -67v216h92v-216l205 67l29 -88l-205 -67l127 -175l-75 -55l-127 175l-127 -175l-75 55l127 175z" />
<glyph unicode="+" horiz-adv-x="859" d="M75 674v132h314v314h132v-314h313v-132h-313v-314h-132v314h-314z" />
<glyph unicode="," horiz-adv-x="284" d="M70 -250l87 250h-65v150h150v-150q-27 -57 -76 -152t-52 -98h-44z" />
<glyph unicode="-" horiz-adv-x="462" d="M0 523v112h512v-112h-512z" />
<glyph unicode="." horiz-adv-x="284" d="M92 0v150h150v-150h-150z" />
<glyph unicode="/" horiz-adv-x="953" d="M70 -12l744 1591l108 -51l-743 -1591z" />
<glyph unicode="0" horiz-adv-x="1085" d="M80 741.5q0 113.5 14 219t50 210t90.5 180.5t143 123.5t198.5 47.5t194 -47t136.5 -123t87.5 -180q61 -187 61 -433q0 -557 -283 -705q-85 -45 -194.5 -45t-197 45t-143 117.5t-92 172.5t-51 202t-14.5 215.5zM228 739q0 -351 106 -503q84 -123 245 -123q177 0 251 136 q47 86 59 183q18 145 18 271t-5 201t-17.5 153t-37 137t-59.5 106q-72 98 -209 98q-351 0 -351 -659z" />
<glyph unicode="1" horiz-adv-x="837" d="M106 1400l327 115h106v-1373h220v-142h-612v142h244v1210l-237 -69z" />
<glyph unicode="2" horiz-adv-x="1130" d="M90 0q0 135 13 173t29 78t39.5 72.5t59 77t82.5 87.5q115 107 195 166l184 134q72 51 99.5 80t49.5 57t33 55q28 66 28 136q0 129 -73 208t-223 79q-187 0 -278 -151q-47 -80 -47 -164h-148q0 125 69.5 227t181.5 157t233 55t219 -54t156 -149t58 -208t-50 -194 q-55 -90 -110 -138t-86 -73l-83 -63q-469 -349 -469 -506h777v-142h-939z" />
<glyph unicode="3" horiz-adv-x="1121" d="M70 237l101 87q50 -75 163 -146q106 -65 232.5 -65t226.5 79.5t100 220t-86 228.5t-228 88h-213v125h213q131 0 198 81.5t67 203.5t-82.5 193t-210.5 71q-160 0 -299 -125q-28 -24 -45 -45l-96 93q73 84 188 142.5t246.5 58.5t229.5 -51t157.5 -138.5t59.5 -188.5 q0 -159 -99 -276q-44 -52 -89 -81q123 -74 180 -166q57 -91 57 -209q0 -208 -134 -318t-356 -110q-286 0 -481 248z" />
<glyph unicode="4" horiz-adv-x="1223" d="M128 390v120l656 1005h178v-1001h231v-124h-231v-390h-148v390h-686zM279 514h535v826z" />
<glyph unicode="5" horiz-adv-x="998" d="M87 276l98 75q18 -56 77 -118q114 -120 239 -120q62 0 118 29t91 61t62 74q60 96 60 255q0 242 -151 326q-73 41 -161 41t-165 -64t-84 -113h-136v793h762v-124h-614v-460q61 58 159 82q42 10 85 10q197 0 325 -136t128 -365.5t-132 -381t-342 -151.5q-188 0 -329 147 q-72 74 -90 140z" />
<glyph unicode="6" horiz-adv-x="1113" d="M105 678q0 398 158 617t436 219q70 0 152 -32t112 -69l-58 -107q-118 84 -225 84q-183 0 -305 -169t-135 -477q1 1 12.5 18t20 28t27 31t36.5 34.5t45.5 31.5t56.5 28q70 25 149 25q203 0 331.5 -126.5t128.5 -335.5q0 -142 -73 -267q-81 -137 -222 -192 q-76 -30 -166 -30q-224 0 -352.5 181.5t-128.5 507.5zM257 515q22 -306 220 -382q52 -20 102 -20t92 12t83.5 40t73.5 68q71 90 71 246t-85 246.5t-227 90.5q-155 0 -248 -115q-55 -68 -82 -186z" />
<glyph unicode="7" horiz-adv-x="932" d="M84 1376v139h873v-141l-593 -1374h-164l607 1376h-723z" />
<glyph unicode="8" horiz-adv-x="1154" d="M102 400q0 178 164 307q80 63 172 98q-121 42 -198 130t-77 204.5t62.5 204.5t164 134.5t220.5 46.5q181 0 309 -107t128 -264q0 -172 -191 -298q-51 -33 -109 -59l68 -31q182 -84 243 -196q44 -78 44 -169.5t-40.5 -169t-107.5 -129.5q-144 -113 -332 -113 q-134 0 -251.5 48t-193 143.5t-75.5 219.5zM250 412.5q0 -103.5 54 -170.5q104 -129 315 -129q83 0 148.5 31t102.5 63q84 74 84 196q0 118 -89 195q-75 64 -199 115l-76 31q-137 -36 -238.5 -132t-101.5 -199.5zM311 1141.5q0 -113.5 117 -192.5q54 -37 105 -61t55 -26 q154 63 206 98q105 71 105 187t-89 185t-207 69t-205 -73t-87 -186.5z" />
<glyph unicode="9" horiz-adv-x="1113" d="M105 1025q0 142 73 267q81 137 222 192q76 30 166 30q224 0 352.5 -181.5t128.5 -507.5q0 -398 -158 -617t-436 -219q-70 0 -152 32t-112 69l58 107q118 -84 225 -84q183 0 305 169t135 477q-1 -1 -12.5 -18t-20 -28t-27 -31t-36.5 -34.5t-45.5 -31.5t-56.5 -28 q-70 -25 -149 -25q-203 0 -331.5 126.5t-128.5 335.5zM253 1024q0 -156 85 -246.5t227 -90.5q155 0 248 115q55 68 82 186q-22 306 -220 382q-52 20 -102 20t-92 -12t-83.5 -40t-73.5 -68q-71 -90 -71 -246z" />
<glyph unicode=":" horiz-adv-x="284" d="M92 0v150h150v-150h-150zM92 905v150h150v-150h-150z" />
<glyph unicode=";" horiz-adv-x="284" d="M70 -250l87 250h-65v150h150v-150q-27 -57 -76 -152t-52 -98h-44zM92 905v150h150v-150h-150z" />
<glyph unicode="&#x3c;" horiz-adv-x="968" d="M64 744l830 555l60 -90l-722 -465l722 -465l-60 -90z" />
<glyph unicode="=" horiz-adv-x="883" d="M75 498v132h783v-132h-783zM75 812v132h783v-132h-783z" />
<glyph unicode="&#x3e;" horiz-adv-x="968" d="M64 279l722 465l-722 465l60 90l830 -555l-830 -555z" />
<glyph unicode="?" horiz-adv-x="813" d="M93 1314q53 100 128 150.5t190 50.5t195.5 -55t123 -143t42.5 -179t-36.5 -170.5t-87.5 -141.5l-104 -122q-124 -141 -124 -235v-149h-132v149q0 124 123 269l102 121q123 145 123 261t-69 191t-139.5 75t-112 -15.5t-65 -41.5t-57.5 -83zM273 0v150h150v-150h-150z" />
<glyph unicode="@" horiz-adv-x="1559" d="M80 636q0 126 45.5 248.5t119.5 204t171 138.5q182 107 384.5 107t366.5 -90t263 -247t99 -341q0 -375 -183 -472q-57 -30 -133 -30q-108 0 -163.5 73.5t-55.5 179.5q-1 0 -11 -19t-28.5 -40.5t-46.5 -44.5q-64 -54 -151.5 -54t-140.5 22.5t-83 56t-49 78.5 q-33 75 -33 170t54 193t141.5 157t179.5 59t168 -63l21 76h110v-623q0 -51 37.5 -80t79.5 -29t76 36t54 95q40 118 40 267.5t-79 282.5t-214.5 209t-297.5 76q-171 0 -331 -85q-203 -108 -267 -347q-24 -91 -24 -201t44 -217t122.5 -191.5t198.5 -136t260 -51.5 q74 0 134.5 16.5t84.5 32.5l24 17l60 -90q0 -4 -29.5 -24t-98.5 -43t-187.5 -23t-250 43t-219 115t-148 167t-87.5 195.5t-27 226.5zM583 589q0 -102 48.5 -165t124.5 -63q115 0 238 143v306q-75 56 -168 56t-168 -87.5t-75 -189.5z" />
<glyph unicode="A" horiz-adv-x="1080" d="M25 0l432 1515h216l432 -1515h-154l-130 478h-509l-133 -478h-154zM346 602h440l-221 787z" />
<glyph unicode="B" horiz-adv-x="1082" d="M135 0v1515h473q183 0 302 -104.5t119 -258.5q0 -255 -178 -326q-31 -13 -77 -26q164 -42 246 -197q44 -85 44 -193q0 -187 -117 -298.5t-339 -111.5h-473zM283 124h325q163 0 238 68q32 29 55 85t23 133q0 142 -87 229t-229 87h-325v-602zM283 853h325q140 0 212 71 q30 29 52.5 88t22.5 140q0 117 -73.5 178t-213.5 61h-325v-538z" />
<glyph unicode="C" horiz-adv-x="1124" d="M80 775.5q0 97.5 17.5 205t58.5 209t102 176.5t153.5 120.5t188.5 45.5t163.5 -24.5t113.5 -63.5t84 -86.5t60 -95.5q46 -99 57 -150l6 -24v-1l-152 -41q-16 114 -40.5 166.5t-49 86t-54.5 56.5q-71 53 -170 53q-390 0 -390 -649q0 -278 82 -454q93 -197 308 -197 q176 0 274 138q68 97 68 217l146 -23q-4 -11 -18.5 -54t-24.5 -70t-32.5 -73.5t-45 -77.5t-60 -68.5t-79.5 -59.5q-101 -53 -207 -53t-178.5 24t-126.5 65.5t-97.5 100t-72.5 126t-48 145t-27.5 155.5t-8.5 175.5z" />
<glyph unicode="D" horiz-adv-x="1164" d="M135 0v1515h361q502 0 614 -446q36 -144 36 -294t-21 -256t-69.5 -202.5t-121.5 -165.5q-161 -151 -438 -151h-361zM283 124h213q327 0 444 279q58 140 58 342q0 359 -138 512q-54 59 -146.5 96.5t-217.5 37.5h-213v-1267z" />
<glyph unicode="E" horiz-adv-x="1012" d="M135 0v1515h821v-124h-673v-533h483v-124h-483v-601h711v-133h-859z" />
<glyph unicode="F" horiz-adv-x="974" d="M135 0v1515h821v-124h-673v-533h483v-124h-483v-734h-148z" />
<glyph unicode="G" horiz-adv-x="1196" d="M80 756.5q0 105.5 14 196.5t42 177t74.5 158.5t105.5 127.5q128 116 320 116q141 0 265 -85q145 -99 211 -348l-145 -36q-1 7 -2.5 19.5t-11 48.5t-22.5 68.5t-39.5 72t-59.5 68.5q-76 68 -192 68t-198 -54t-127 -148q-87 -180 -87 -438q0 -308 80 -460 q105 -200 331 -200q281 0 325 324q9 70 9 159h-337v124h482v-715h-120v192q-113 -156 -239 -192q-56 -16 -148 -16t-187.5 46t-158.5 122t-105.5 178.5t-61 211.5t-18.5 214.5z" />
<glyph unicode="H" horiz-adv-x="1204" d="M135 0v1515h148v-657h688v657h148v-1515h-148v734h-688v-734h-148z" />
<glyph unicode="I" horiz-adv-x="368" d="M135 0v1515h148v-1515h-148z" />
<glyph unicode="J" horiz-adv-x="846" d="M25 244l103 53q24 -64 88 -123q27 -25 73 -45.5t97 -20.5q122 0 174.5 83.5t52.5 237.5v1086h148v-1086q0 -326 -217 -417q-69 -28 -153 -28t-150 26.5t-103 60t-65 76.5q-40 61 -48 97z" />
<glyph unicode="K" horiz-adv-x="1090" d="M135 0v1515h149v-824l617 824h159l-434 -569l489 -946h-166l-417 822l-248 -327v-495h-149z" />
<glyph unicode="L" horiz-adv-x="930" d="M135 0v1515h148v-1373h672v-142h-820z" />
<glyph unicode="M" horiz-adv-x="1407" d="M128 0v1515h268l324 -1163h10l324 1163h268v-1515h-148v1374h-10l-382 -1374h-114l-382 1374h-10v-1374h-148z" />
<glyph unicode="N" horiz-adv-x="1201" d="M128 0v1515h236l611 -1154v1154h148v-1515h-127l-720 1368v-1368h-148z" />
<glyph unicode="O" horiz-adv-x="1213" d="M80 753q0 115 19 224t62 211t106.5 177.5t159.5 121t211.5 45.5t208 -46.5t154 -123t103.5 -178.5q79 -192 79 -432q0 -439 -227 -652q-123 -116 -315 -116q-111 0 -205 44.5t-158.5 119t-110 174t-66.5 208t-21 223.5zM228 739q0 -119 23.5 -231.5t71 -203.5t129 -143.5 t180 -52.5t169 39.5t113.5 102.5t71 150q50 154 50 352q0 329 -121 510q-43 65 -113 105.5t-160 40.5t-161.5 -36t-118 -96.5t-77 -145.5t-43.5 -178.5t-13 -212.5z" />
<glyph unicode="P" horiz-adv-x="1086" d="M135 0v1515h529q235 0 346 -186q58 -98 58 -195.5t-22 -170t-67.5 -135t-126.5 -99.5t-188 -37h-381v-692h-148zM283 816h280q162 0 259.5 71t97.5 217t-98 216.5t-259 70.5h-280v-575z" />
<glyph unicode="Q" horiz-adv-x="1213" d="M80 743.5q0 124.5 19 233.5t62 211t106.5 177.5t159.5 121t211.5 45.5t208 -46.5t154 -123t103.5 -178.5q79 -192 79 -432q0 -267 -107 -482q-53 -107 -142 -181.5t-204 -97.5q0 -92 32 -117q27 -21 93 -21h264v-124h-129q-214 0 -262.5 13.5t-73 28t-36.5 32t-22 45.5 q-14 43 -14 140q-120 17 -218 90t-158.5 180t-93 234t-32.5 251.5zM228 739q0 -119 23.5 -231.5t71 -203.5t129 -143.5t180 -52.5t169 39.5t113.5 102.5t71 150q50 154 50 352q0 329 -121 510q-43 65 -113 105.5t-160 40.5t-161.5 -36t-118 -96.5t-77 -145.5t-43.5 -178.5 t-13 -212.5z" />
<glyph unicode="R" horiz-adv-x="1043" d="M135 0v1515h510q239 0 358 -186q65 -101 65 -212q0 -134 -64 -245q-70 -122 -228 -156l286 -716h-162l-276 692h-341v-692h-148zM283 816h376q105 0 179 66q82 73 82 228q0 206 -222 264q-66 17 -144 17h-271v-575z" />
<glyph unicode="S" horiz-adv-x="983" d="M40 368l137 48q1 0 4.5 -17t13 -44t25.5 -60t45.5 -66t68.5 -60q86 -61 227 -61t210 77t69 189.5t-43.5 177t-152.5 109.5q-32 13 -84 31l-95 33q-247 82 -332 210q-59 89 -59 208q0 141 112 263q53 56 135 91t172.5 35t160 -24.5t112 -60.5t76.5 -83t49 -84l29 -74 q13 -35 16 -41l-130 -50q-2 5 -9.5 31.5t-13 43.5t-19 47t-28 50.5t-38 45t-50.5 39.5q-66 36 -149 36q-123 0 -200 -72.5t-77 -192.5q0 -131 68 -184q37 -29 62.5 -42t60 -25.5t50.5 -19t63 -20.5l84 -26q232 -71 319 -211q59 -95 59 -230q0 -98 -62 -205 q-77 -136 -234 -180q-59 -16 -137.5 -16t-154.5 21t-127.5 55t-93 75t-66.5 82q-46 75 -65 130z" />
<glyph unicode="T" horiz-adv-x="1012" d="M25 1391v124h1012v-124h-432v-1391h-148v1391h-432z" />
<glyph unicode="U" horiz-adv-x="1163" d="M135 455v1060h148v-1060q0 -136 66 -229q83 -118 260 -118q264 0 313 238q12 55 12 109v1060h151v-1060q0 -164 -89 -293q-120 -178 -387 -178q-319 0 -429 254q-45 106 -45 217z" />
<glyph unicode="V" horiz-adv-x="1054" d="M25 1515h154l373 -1256l373 1256h154l-450 -1515h-154z" />
<glyph unicode="W" horiz-adv-x="1564" d="M25 1515h154l259 -1198h10l274 1198h170l274 -1198h10l259 1198h154l-351 -1515h-152l-274 1198h-10l-274 -1198h-152z" />
<glyph unicode="X" horiz-adv-x="1033" d="M25 0l437 773l-419 742h154l359 -634l348 634h154l-428 -765l425 -750h-156l-359 636l-359 -636h-156z" />
<glyph unicode="Y" horiz-adv-x="1072" d="M25 1515h154l382 -713l382 713h154l-462 -855v-660h-148v660z" />
<glyph unicode="Z" horiz-adv-x="1092" d="M68 0v107l825 1280h-771v128h952v-123l-794 -1250h788v-142h-1000z" />
<glyph unicode="[" horiz-adv-x="557" d="M100 -285v1923h437v-92h-289v-1739h289v-92h-437z" />
<glyph unicode="\" horiz-adv-x="953" d="M81 1528l108 51l744 -1591l-109 -51z" />
<glyph unicode="]" horiz-adv-x="557" d="M100 -193h289v1739h-289v92h437v-1923h-437v92z" />
<glyph unicode="^" horiz-adv-x="574" d="M90 1197l222 222l222 -222l-66 -64l-156 156l-157 -157z" />
<glyph unicode="_" horiz-adv-x="1062" d="M92 0v112h928v-112h-928z" />
<glyph unicode="`" horiz-adv-x="633" d="M179 1368l87 87l295 -295l-66 -65z" />
<glyph unicode="a" horiz-adv-x="878" d="M72 257.5q0 71.5 18 125t56.5 95t87.5 73.5t122 58q133 47 325 85q0 158 -61 211q-54 47 -157 47q-126 0 -217 -96q-39 -39 -54 -70l-95 63q112 215 381 215q241 0 308 -185q27 -75 27 -182v-549q0 -29 11 -79t20 -69h-133q-30 15 -30 168q-141 -181 -311 -181 q-188 0 -261 132q-37 67 -37 138.5zM204 252q0 -74 52 -113.5t115.5 -39.5t112 19t88.5 49q73 55 109 98v317q-190 -49 -225 -60q-176 -57 -227 -150q-25 -46 -25 -120z" />
<glyph unicode="b" horiz-adv-x="944" d="M94 0q26 55 26 146v1369h132v-598q19 41 99 95t172 54q180 0 288 -154.5t108 -401.5q0 -147 -55 -278q-64 -150 -182 -210q-66 -33 -135 -33t-120 20t-86 52q-59 54 -89 105q0 -154 -25 -166h-133zM252 278q101 -139 178 -164q38 -13 97 -13t112.5 31.5t84.5 87.5 q63 113 63 290q0 444 -298 444q-131 0 -237 -151v-525z" />
<glyph unicode="c" horiz-adv-x="876" d="M75 520q0 546 425 546q105 0 177 -50q71 -50 94 -90q40 -68 55 -113l-106 -48q-2 20 -21.5 59t-41.5 64t-63.5 45.5t-93.5 20.5q-293 0 -293 -425q0 -206 77.5 -317t215.5 -111q95 0 158 73q55 63 74 112l9 22l104 -50q-35 -97 -115 -176q-36 -35 -98 -64t-132 -29 q-218 0 -321.5 139.5t-103.5 391.5z" />
<glyph unicode="d" horiz-adv-x="934" d="M75 510q0 147 47.5 273t139.5 204.5t196.5 78.5t184.5 -54t99 -95v598h132v-1369q0 -30 8.5 -78.5t17.5 -67.5h-133q-25 12 -25 166q-102 -177 -284 -177q-91 0 -166 45.5t-121 120.5q-96 157 -96 355zM207 510q0 -177 63 -290q66 -119 209 -119q95 0 156 54 q49 43 107 123v525q-106 151 -237 151q-298 0 -298 -444z" />
<glyph unicode="e" horiz-adv-x="875" d="M75 500q0 99 14 180.5t37 138.5t56 101.5t68 71.5t76 44q71 30 135 30t109 -11.5t96.5 -47t88.5 -93.5q86 -136 86 -401h-634q0 -267 135 -364q67 -48 149 -48q154 0 262 191l91 -63q-39 -72 -102 -130q-120 -110 -237 -110t-199 43t-131 116t-74.5 163t-25.5 189z M213 625h496q0 149 -69 247q-58 82 -165 82q-175 0 -234 -162q-28 -76 -28 -167z" />
<glyph unicode="f" horiz-adv-x="520" d="M13 943v112h173v223q0 163 141 220q66 26 143.5 26t86.5 -9v-111h-89q-150 0 -150 -126v-223h239v-112h-239v-943h-132v943h-173z" />
<glyph unicode="g" horiz-adv-x="955" d="M42 -188q0 54 15 84t45.5 54t53 38.5t61.5 34t47 24.5q-82 17 -124 60t-42 78.5t13.5 64.5t40.5 54q44 39 73 57t32 20q-60 51 -105.5 133.5t-45.5 181t54.5 185.5t146 136t177.5 49t138.5 -21t112.5 -62q76 62 124 71q62 13 114 14v-120h-2q-171 0 -171 -31 q51 -94 63.5 -138.5t12.5 -89.5q0 -161 -103.5 -272.5t-268.5 -111.5q-87 0 -178 38q-8 -7 -36 -27q-60 -42 -60 -84q0 -46 42 -63q32 -13 79.5 -20t67 -9.5t65.5 -3.5q112 -1 266 -38q97 -23 158.5 -92t61.5 -165q0 -286 -479 -286q-169 0 -301 61q-67 31 -107.5 86.5 t-40.5 109.5zM174 -169q0 -98 106 -133q91 -31 170.5 -31t105.5 0.5t67 4t67 10t57 19.5t49 31q42 42 42 102t-40 95.5t-101.5 50.5t-121.5 21.5t-114.5 9t-65.5 5.5q-107 -40 -139 -59q-82 -48 -82 -126zM238 689q0 -117 70 -194.5t190.5 -77.5t183 79t62.5 192 t-61.5 189.5t-178.5 76.5t-191.5 -74t-74.5 -191z" />
<glyph unicode="h" horiz-adv-x="929" d="M129 0v1515h132v-633q148 141 243 170q49 14 102 14q115 0 189 -70t74 -210v-786h-132v786q0 75 -53.5 121.5t-115.5 46.5q-148 0 -307 -173v-781h-132z" />
<glyph unicode="i" horiz-adv-x="367" d="M120 1188v150h150v-150h-150zM129 0v1055h132v-1055h-132z" />
<glyph unicode="j" horiz-adv-x="312" d="M-63 -225q97 0 140 34t43 162v1084h132v-1055q0 -171 -42 -238q-16 -25 -29 -41.5t-37.5 -28t-40.5 -17t-47 -8.5q-42 -4 -75 -4h-36zM111 1188v150h150v-150h-150z" />
<glyph unicode="k" horiz-adv-x="861" d="M130 0v1515h132v-982l404 522h158l-276 -359l338 -696h-146l-282 582l-196 -243v-339h-132z" />
<glyph unicode="l" horiz-adv-x="367" d="M129 -2v1517h132v-1517h-132z" />
<glyph unicode="m" horiz-adv-x="1527" d="M120 0v1055h132v-174q138 138 243 170q49 15 123 15t142.5 -48t90.5 -145q145 145 249 177q49 16 104 16q115 0 189 -70t74 -210v-786h-132v786q0 75 -53.5 121.5t-115.5 46.5q-147 0 -306 -173v-781h-132v786q0 75 -53.5 121.5t-115.5 46.5q-148 0 -307 -173v-781h-132z " />
<glyph unicode="n" d="M120 0v1055h132v-173q88 87 167 135.5t186 48.5t181 -70t74 -210v-786h-132v786q0 75 -53.5 121.5t-115.5 46.5q-148 0 -307 -173v-781h-132z" />
<glyph unicode="o" horiz-adv-x="922" d="M75 534.5q0 241.5 108.5 386.5t303.5 145t302.5 -146t107.5 -390t-108.5 -393t-301.5 -149q-197 0 -306 154q-106 151 -106 392.5zM207 528q0 -317 165 -402q50 -26 115 -26t115.5 26t80.5 67t49 99q33 101 33 235q0 427 -279 427t-279 -426z" />
<glyph unicode="p" horiz-adv-x="965" d="M129 -410v1465h132v-164q24 45 79 90q104 85 217 85q210 0 320 -230q63 -132 63 -289q0 -276 -135 -439q-98 -119 -261 -119q-92 0 -178 55.5t-105 95.5v-550h-132zM261 254q46 -66 112 -109.5t125.5 -43.5t100 11.5t80 42t67.5 79.5q62 108 62 313q0 250 -116 352 q-62 55 -156 55q-126 0 -220 -106q-24 -27 -55 -69v-525z" />
<glyph unicode="q" horiz-adv-x="946" d="M75 543q0 79 15.5 152.5t47.5 140.5t76 118q98 112 244 112q143 0 260 -127q24 -26 36 -48l17 164h115v-1465h-132v550q-19 -40 -105 -95.5t-172.5 -55.5t-154 32t-112.5 86.5t-76 127t-45 151t-14 157.5zM207 554.5q0 -111.5 17 -191.5t45 -129t67 -80q70 -53 155 -53 q156 0 263 153v525q-60 82 -104 115q-76 60 -170.5 60t-157 -55t-89 -144t-26.5 -200.5z" />
<glyph unicode="r" horiz-adv-x="589" d="M120 0v1055h132v-284q47 104 72 143q98 152 254 152q12 0 36 -2v-112q-68 -9 -113 -25.5t-88 -52.5q-75 -62 -161 -247v-627h-132z" />
<glyph unicode="s" horiz-adv-x="828" d="M80 200l99 64q53 -82 118 -122.5t159 -40.5q98 0 159 53q51 44 51 108t-22 102t-62 62q-67 38 -139.5 55.5t-114 32t-85.5 39.5t-76 56q-73 71 -73 187.5t93.5 193t238.5 76.5q171 0 289 -123q22 -23 37 -45l-91 -68q-7 7 -28 29.5t-27 28.5l-26 21q-18 16 -30 21l-34 12 q-32 12 -108 12t-131 -43.5t-55 -95.5t18 -83.5t54 -54.5q58 -36 134 -59t100.5 -31t66 -24.5t65 -31.5t53.5 -39.5t46 -51.5q39 -68 39 -148q0 -133 -101 -218t-234 -85t-223.5 50.5t-159.5 160.5z" />
<glyph unicode="t" horiz-adv-x="556" d="M36 943v112h178v385h132v-385h242v-112h-242v-669q0 -101 31 -138t102 -37q29 0 69 5t40 6v-99q-66 -24 -128.5 -24t-85.5 3t-56 19t-54 45q-50 70 -50 220v669h-178z" />
<glyph unicode="u" horiz-adv-x="929" d="M129 269v786h132v-786q0 -75 53.5 -121.5t115.5 -46.5q148 0 307 173v781h132v-1055h-132v174q-142 -139 -243 -170q-49 -15 -102 -15q-115 0 -189 70t-74 210z" />
<glyph unicode="v" horiz-adv-x="851" d="M25 1055h138l278 -909h19l278 909h138l-324 -1055h-203z" />
<glyph unicode="w" horiz-adv-x="1266" d="M25 1055h123l232 -795l208 795h120l226 -800l222 800h135l-301 -1055h-118l-224 809l-201 -809h-135z" />
<glyph unicode="x" horiz-adv-x="820" d="M25 0l330 544l-320 511h148l245 -390l256 390h148l-332 -505l345 -550h-148l-267 425l-257 -425h-148z" />
<glyph unicode="y" horiz-adv-x="855" d="M25 1055h142l299 -859l280 859h134l-368 -1119q-57 -171 -114 -232q-63 -66 -124 -81.5t-124 -15.5t-123 8l10 121q36 -17 96 -17t99 15.5t64 40t45.5 54t32.5 59.5q21 56 30 109z" />
<glyph unicode="z" horiz-adv-x="729" d="M25 0v85l560 858h-507v112h676v-74l-568 -861h568v-120h-729z" />
<glyph unicode="{" horiz-adv-x="722" d="M80 614v122q193 0 193 245q0 36 -15 73q-45 111 -45 212q0 175 91 273.5t290 98.5v-105q-66 0 -119.5 -25t-84.5 -64q-63 -80 -63 -161q0 -21 30 -123.5t30 -208t-42 -174t-138 -102.5q96 -34 138 -102.5t42 -174t-30 -208t-30 -132.5t16.5 -72t47 -80.5t84 -63.5 t119.5 -25v-105q-199 0 -290 98.5t-91 273.5q0 101 45 212q15 37 15 73q0 245 -193 245z" />
<glyph unicode="|" horiz-adv-x="298" d="M100 -132v1695h148v-1695h-148z" />
<glyph unicode="}" horiz-adv-x="722" d="M80 -183q66 0 119.5 25t84.5 64q63 80 63 161q0 21 -30 123.5t-30 208t42 174t138 102.5q-96 34 -138 102.5t-42 174t30 208t30 132.5t-16.5 72t-47 80.5t-84 63.5t-119.5 25v105q199 0 290 -98.5t91 -273.5q0 -101 -45 -212q-15 -37 -15 -73q0 -245 193 -245v-122 q-193 0 -193 -245q0 -36 15 -73q45 -111 45 -212q0 -175 -91 -273.5t-290 -98.5v105z" />
<glyph unicode="~" horiz-adv-x="739" d="M90 1159q25 72 70 111q52 45 102.5 45t85 -14t56.5 -31q57 -46 108 -46h10q32 3 57 26t37 58l83 -40q-25 -72 -73.5 -114t-103.5 -42t-96.5 23t-78 45.5t-70.5 22.5h-10q-32 -3 -57 -26t-37 -58z" />
<glyph unicode="&#xa1;" horiz-adv-x="284" d="M92 -168l23 1146h104l23 -1146h-150zM92 1128v150h150v-150h-150z" />
<glyph unicode="&#xa2;" d="M110 529.5q0 479.5 340 530.5v221h132v-218q62 -8 113.5 -36.5t80.5 -63.5q60 -72 78 -127l7 -23l-106 -48q-16 96 -99 153q-33 23 -74 31v-842q127 33 194 201l104 -50q-8 -26 -38.5 -76t-62 -83.5t-84.5 -65.5t-113 -41v-228h-132v231q-340 55 -340 534.5zM242 529 q0 -171 54.5 -277.5t153.5 -138.5v830q-208 -53 -208 -414z" />
<glyph unicode="&#xa3;" horiz-adv-x="975" d="M42 633v135h135v111q0 324 79 459q75 126 203 165q73 22 135 22q153 0 156 -10v-112l-103 2q-101 0 -165 -28.5t-100.5 -95t-50.5 -160.5t-14 -242v-111h325v-135h-325v-126q0 -97 -8.5 -219t-23.5 -150h327q233 0 300 66q7 8 10 17l78 -88q-61 -133 -388 -133h-467v138 q13 34 22.5 154.5t9.5 214.5v126h-135z" />
<glyph unicode="&#xa4;" horiz-adv-x="722" d="M75 498l100 100q-45 64 -45 146t44 148l-99 99l65 65l98 -98q65 48 148.5 48t146.5 -49l99 99l65 -65l-100 -100q44 -67 44 -146.5t-44 -146.5l100 -100l-65 -65l-98 98q-66 -48 -147.5 -48t-148.5 48l-98 -98zM230 745q0 -65 44 -113t110.5 -48t110.5 48.5t44 112.5 t-44 112t-109.5 48t-110.5 -47.5t-45 -112.5z" />
<glyph unicode="&#xa5;" horiz-adv-x="1072" d="M25 1515h154l382 -713l382 713h154l-462 -855h240v-92h-240v-174h240v-92h-240v-302h-148v302h-229v92h229v174h-229v92h229z" />
<glyph unicode="&#xa6;" horiz-adv-x="298" d="M100 -132v778h148v-778h-148zM100 778v785h148v-785h-148z" />
<glyph unicode="&#xa7;" horiz-adv-x="828" d="M80 200l99 64q53 -82 118 -122.5t159 -40.5q98 0 159 53q51 44 51 108t-22 102t-62 62q-67 38 -139.5 55.5t-114 32t-85.5 39.5t-76 56q-73 71 -73 166t45 162q-45 63 -45 141q0 129 93.5 205.5t238.5 76.5q171 0 289 -123q22 -23 37 -45l-91 -68q-7 7 -28 29.5t-27 28.5 l-26 21q-18 16 -30 21l-34 12q-32 12 -108 12t-131 -43.5t-55 -95.5t18 -83.5t54 -54.5q58 -36 134 -59t100.5 -31t66 -24.5t65 -31.5t53.5 -39.5t46 -51.5q39 -68 39 -147.5t-40 -146.5q40 -63 40 -148q0 -133 -101 -218t-234 -85t-223.5 50.5t-159.5 160.5zM222 796 q0 -33 18 -64.5t54 -54.5q58 -36 182 -73.5t186 -74.5q4 24 4 57.5t-22 71.5t-62 62q-67 38 -171 63t-179 71q-10 -25 -10 -58z" />
<glyph unicode="&#xa8;" horiz-adv-x="603" d="M92 1203v150h150v-150h-150zM411 1203v150h150v-150h-150z" />
<glyph unicode="&#xa9;" horiz-adv-x="1040" d="M75 744q0 194 138 332t332 138t332 -138t138 -332t-138 -332t-332 -138t-332 138t-138 332zM140 744q0 -167 119 -285.5t286 -118.5t285.5 118.5t118.5 285.5t-118.5 285.5t-285.5 118.5t-286 -118.5t-119 -285.5zM344 731q0 63 12 113t36 92q53 92 155 92q96 0 153 -109 q13 -25 23 -60l-66 -13q-17 66 -35 82q-34 29 -71.5 29t-62.5 -12.5t-39 -32t-22 -50.5q-12 -45 -12 -108t6 -100t20 -68q28 -63 106 -63q99 0 118 111l66 -8q-2 -28 -32 -77q-57 -96 -152 -96q-69 0 -116.5 44.5t-67 107.5t-19.5 126z" />
<glyph unicode="&#xaa;" horiz-adv-x="478" d="M100 1176q0 80 62 118t197 65q0 53 -18.5 76.5t-62.5 23.5t-70 -15q-39 -20 -53 -49l-44 30q48 91 162 91q152 0 152 -156v-233q0 -46 13 -72h-66q-13 7 -13 71q-60 -77 -129.5 -77t-99.5 40.5t-30 86.5zM166 1176q0 -70 69 -70q36 0 70.5 23.5t53.5 46.5v126l-41 -10 q-27 -6 -40 -10l-34 -11q-78 -25 -78 -95z" />
<glyph unicode="&#xab;" horiz-adv-x="705" d="M100 1276l222 222l64 -66l-156 -156l157 -157l-65 -65zM368 1276l222 222l64 -66l-156 -156l157 -157l-65 -65z" />
<glyph unicode="&#xac;" horiz-adv-x="1062" d="M92 694v112h928v-440h-112v328h-816z" />
<glyph unicode="&#xad;" horiz-adv-x="1062" d="M92 694v92h928v-92h-928z" />
<glyph unicode="&#xae;" horiz-adv-x="1042" d="M75 744q0 191 138 326.5t333 135.5q197 0 333 -134q63 -62 100.5 -147.5t37.5 -196.5t-63.5 -217.5t-172 -167.5t-235.5 -61t-235.5 62t-172 168.5t-63.5 231.5zM143 744q0 -163 119 -279t284.5 -116t284 115.5t118.5 280t-118 279.5t-285 115t-285 -116t-118 -279z M385 500v492h212q65 0 101 -44.5t36 -93t-22.5 -90t-71.5 -51.5l93 -213h-76l-90 202h-111v-202h-71zM456 765h122q86 0 86 89q0 44 -31 59.5t-88 15.5h-89v-164z" />
<glyph unicode="&#xaf;" horiz-adv-x="657" d="M90 1231v92h527v-92h-527z" />
<glyph unicode="&#xb0;" horiz-adv-x="610" d="M75 1242q0 106 74.5 180.5t180.5 74.5t180.5 -74.5t74.5 -180.5t-74.5 -180.5t-180.5 -74.5t-180.5 74.5t-74.5 180.5zM171 1242q0 -65 46.5 -111.5t111.5 -46.5t111.5 46.5t46.5 111.5t-46.5 111.5t-111.5 46.5t-111.5 -46.5t-46.5 -111.5z" />
<glyph unicode="&#xb1;" horiz-adv-x="859" d="M75 251v132h759v-132h-759zM75 819v132h314v314h132v-314h313v-132h-313v-314h-132v314h-314z" />
<glyph unicode="&#xb2;" horiz-adv-x="460" d="M100 1055q0 82 60 142q31 30 60 51l48 35q51 36 59 51q17 30 17 57q0 69 -78 69q-39 0 -63 -24.5t-24 -53.5h-66q0 58 44.5 95t108.5 37t104 -35t40 -88q0 -54 -40 -95q-25 -24 -51 -44q-28 -22 -70 -52q-78 -55 -78 -87h233v-58h-304z" />
<glyph unicode="&#xb3;" horiz-adv-x="463" d="M100 1121l40 36q10 -15 43 -38t73.5 -23t65.5 19.5t25 58t-21 62.5t-62 24h-75v55h75q68 0 68 80q0 27 -20.5 48t-55 21t-64 -19.5t-42.5 -36.5l-38 40q18 21 30.5 32.5t45 25.5t80 14t89.5 -37t42 -98t-57 -97q71 -42 71 -110.5t-44.5 -103t-124.5 -34.5t-144 81z" />
<glyph unicode="&#xb4;" horiz-adv-x="633" d="M122 1160l295 295l87 -87l-316 -273z" />
<glyph unicode="&#xb5;" horiz-adv-x="929" d="M129 -411v1466h132v-786q0 -75 53.5 -121.5t115.5 -46.5q148 0 307 173v781h132v-1055h-132v174q-142 -139 -243 -170q-49 -15 -110.5 -15t-118.5 26v-426h-136z" />
<glyph unicode="&#xb6;" horiz-adv-x="1065" d="M68 1102.5q0 66.5 13.5 120t45 106.5t76.5 94q101 92 269 92h508v-1515h-148v692h-218v-692h-148v692q-107 0 -187 37t-124.5 99.5t-65.5 135t-21 139zM216 1105q0 -120 66.5 -190t183.5 -90v557q-116 -20 -183 -88.5t-67 -188.5zM614 816h218v575h-218v-575z" />
<glyph unicode="&#xb7;" horiz-adv-x="284" d="M92 786v150h150v-150h-150z" />
<glyph unicode="&#xb8;" horiz-adv-x="300" d="M22 -218q89 0 118.5 16t29.5 31q0 75 -78 171h98q73 -102 73 -198q0 -115 -205 -115l-36 1v94z" />
<glyph unicode="&#xb9;" horiz-adv-x="368" d="M100 1481l98 35h54v-403h66v-58h-206v58h73v339l-71 -21z" />
<glyph unicode="&#xba;" horiz-adv-x="499" d="M100 1288.5q0 103.5 46 165t129 61.5t128.5 -62t45.5 -165.5t-46 -167t-128 -63.5t-128.5 64t-46.5 167.5zM170 1286q0 -166 104.5 -166t104.5 166q0 83 -23.5 124.5t-80.5 41.5t-81 -41t-24 -125z" />
<glyph unicode="&#xbb;" horiz-adv-x="705" d="M100 1119l157 157l-156 156l64 66l222 -222l-222 -222zM368 1119l157 157l-156 156l64 66l222 -222l-222 -222z" />
<glyph unicode="&#xbc;" horiz-adv-x="1088" d="M57 1460l163 58h74v-683h110v-80h-326v80h122v596l-119 -34zM148 -41l744 1592h108l-743 -1592h-109zM535 184v78l328 498h110v-496h115v-80h-115v-191h-95v191h-343zM632 264h246v379z" />
<glyph unicode="&#xbd;" horiz-adv-x="1133" d="M57 1460l163 58h74v-683h110v-80h-326v80h122v596l-119 -34zM121 -38l744 1592h108l-743 -1592h-109zM607 -13q0 114 53 185q62 81 188 174l82 60q46 35 57 55q26 46 26 89q0 137 -138 137q-79 0 -115.5 -47.5t-36.5 -103.5h-95q0 95 78.5 161t172.5 66t161.5 -62 t67.5 -151q0 -109 -112 -196l-96 -73q-3 -2 -30 -24l-72 -60q-24 -21 -35 -35l-26 -32q-28 -34 -28 -63h388v-80h-490z" />
<glyph unicode="&#xbe;" horiz-adv-x="1163" d="M54 882l56 48q16 -24 74.5 -61.5t125.5 -37.5t112.5 38.5t45.5 101.5t-38.5 106.5t-97.5 43.5h-127v81h127q56 0 84 39.5t28 93.5t-37.5 89t-97.5 35t-110.5 -30t-72.5 -56l-52 57q36 42 101 75.5t146 33.5t149.5 -58t68.5 -141q0 -47 -19 -88q-28 -58 -75 -90l30 -20 q89 -60 89 -169.5t-71 -165.5t-165 -56q-175 0 -274 131zM240 -38l744 1592h108l-743 -1592h-109zM610 184v78l328 498h110v-496h115v-80h-115v-191h-95v191h-343zM707 264h246v379z" />
<glyph unicode="&#xbf;" horiz-adv-x="813" d="M93 369q0 151 125 303l102 120q125 142 125 236v149h132v-149q0 -117 -123 -264l-102 -122q-123 -149 -123 -265.5t62 -189t134 -72.5q103 0 160.5 32.5t96.5 110.5l90 -57q-50 -93 -141 -147t-206 -54q-150 0 -241 109t-91 260zM442 1347v150h150v-150h-150z" />
<glyph unicode="&#xc0;" horiz-adv-x="1080" d="M25 0l432 1515h216l432 -1515h-154l-130 478h-509l-133 -478h-154zM197 1880l87 87l295 -295l-66 -65zM346 602h440l-221 787z" />
<glyph unicode="&#xc1;" horiz-adv-x="1080" d="M25 0l432 1515h216l432 -1515h-154l-130 478h-509l-133 -478h-154zM346 602h440l-221 787zM551 1672l295 295l87 -87l-316 -273z" />
<glyph unicode="&#xc2;" horiz-adv-x="1080" d="M25 0l432 1515h216l432 -1515h-154l-130 478h-509l-133 -478h-154zM343 1719l222 222l222 -222l-66 -64l-156 156l-157 -157zM346 602h440l-221 787z" />
<glyph unicode="&#xc3;" horiz-adv-x="1080" d="M25 0l432 1515h216l432 -1515h-154l-130 478h-509l-133 -478h-154zM260 1698q25 72 70 111q52 45 102.5 45t85 -14t56.5 -31q57 -46 108 -46h10q32 3 57 26t37 58l83 -40q-25 -72 -73.5 -114t-103.5 -42t-96.5 23t-78 45.5t-70.5 22.5h-10q-32 -3 -57 -26t-37 -58z M346 602h440l-221 787z" />
<glyph unicode="&#xc4;" horiz-adv-x="1080" d="M25 0l432 1515h216l432 -1515h-154l-130 478h-509l-133 -478h-154zM330 1654v150h150v-150h-150zM346 602h440l-221 787zM649 1654v150h150v-150h-150z" />
<glyph unicode="&#xc5;" horiz-adv-x="1080" d="M25 0l432 1515q-39 18 -73 51q-74 75 -74 181t74.5 180.5t180 74.5t180.5 -74.5t75 -180.5t-75 -181q-33 -33 -73 -51h1l432 -1515h-154l-130 478h-509l-133 -478h-154zM346 602h440l-221 787zM406 1747q0 -65 46 -111.5t111.5 -46.5t112 46.5t46.5 111.5t-46.5 111.5 t-112 46.5t-111.5 -46.5t-46 -111.5z" />
<glyph unicode="&#xc6;" horiz-adv-x="1550" d="M25 0l432 1515h1037v-124h-673v-533h483v-124h-483v-601h711v-133h-859v478h-361l-133 -478h-154zM346 602h327v787h-108z" />
<glyph unicode="&#xc7;" horiz-adv-x="1124" d="M80 775.5q0 97.5 17.5 205t58.5 209t102 176.5t153.5 120.5t188.5 45.5t163.5 -24.5t113.5 -63.5t84 -86.5t60 -95.5q46 -99 57 -150l6 -24v-1l-152 -41q-16 114 -40.5 166.5t-49 86t-54.5 56.5q-71 53 -170 53q-390 0 -390 -649q0 -278 82 -454q93 -197 308 -197 q176 0 274 138q68 97 68 217l146 -23q-4 -11 -18.5 -54t-24.5 -70t-32.5 -73.5t-45 -77.5t-60 -68.5t-79.5 -59.5q-85 -44 -173 -52q67 -97 67 -189q0 -115 -205 -115l-36 1v94q89 0 118.5 16t29.5 31q0 72 -72 163q-65 6 -115 22q-72 24 -126 65.5t-97.5 100t-72.5 126 t-48 145t-27.5 155.5t-8.5 175.5z" />
<glyph unicode="&#xc8;" horiz-adv-x="1012" d="M135 0v1515h821v-124h-673v-533h483v-124h-483v-601h711v-133h-859zM177 1880l87 87l295 -295l-66 -65z" />
<glyph unicode="&#xc9;" horiz-adv-x="1012" d="M135 0v1515h821v-124h-673v-533h483v-124h-483v-601h711v-133h-859zM532 1672l295 295l87 -87l-316 -273z" />
<glyph unicode="&#xca;" horiz-adv-x="1012" d="M135 0v1515h821v-124h-673v-533h483v-124h-483v-601h711v-133h-859zM324 1719l222 222l222 -222l-66 -64l-156 156l-157 -157z" />
<glyph unicode="&#xcb;" horiz-adv-x="1012" d="M135 0v1515h821v-124h-673v-533h483v-124h-483v-601h711v-133h-859zM311 1654v150h150v-150h-150zM630 1654v150h150v-150h-150z" />
<glyph unicode="&#xcc;" horiz-adv-x="368" d="M-159 1880l87 87l295 -295l-66 -65zM135 0v1515h148v-1515h-148z" />
<glyph unicode="&#xcd;" horiz-adv-x="368" d="M135 0v1515h148v-1515h-148zM195 1672l295 295l87 -87l-316 -273z" />
<glyph unicode="&#xce;" horiz-adv-x="368" d="M-13 1719l222 222l222 -222l-66 -64l-156 156l-157 -157zM135 0v1515h148v-1515h-148z" />
<glyph unicode="&#xcf;" horiz-adv-x="368" d="M-26 1654v150h150v-150h-150zM135 0v1515h148v-1515h-148zM293 1654v150h150v-150h-150z" />
<glyph unicode="&#xd0;" horiz-adv-x="1174" d="M9 676v136h128v703h361q155 0 273 -43t190 -113.5t117 -172.5q78 -178 78 -441q0 -394 -218 -595q-161 -150 -440 -150h-361v676h-128zM285 124h213q256 0 386 172q124 165 124 449q0 434 -220 574q-113 72 -290 72h-213v-579h324v-136h-324v-552z" />
<glyph unicode="&#xd1;" horiz-adv-x="1201" d="M128 0v1515h236l611 -1154v1154h148v-1515h-127l-720 1368v-1368h-148zM321 1698q25 72 70 111q52 45 102.5 45t85 -14t56.5 -31q57 -46 108 -46h10q32 3 57 26t37 58l83 -40q-25 -72 -73.5 -114t-103.5 -42t-96.5 23t-78 45.5t-70.5 22.5h-10q-32 -3 -57 -26t-37 -58z " />
<glyph unicode="&#xd2;" horiz-adv-x="1213" d="M80 753q0 115 19 224t62 211t106.5 177.5t159.5 121t211.5 45.5t208 -46.5t154 -123t103.5 -178.5q79 -192 79 -432q0 -439 -227 -652q-123 -116 -315 -116q-111 0 -205 44.5t-158.5 119t-110 174t-66.5 208t-21 223.5zM228 739q0 -119 23.5 -231.5t71 -203.5t129 -143.5 t180 -52.5t169 39.5t113.5 102.5t71 150q50 154 50 352q0 329 -121 510q-43 65 -113 105.5t-160 40.5t-161.5 -36t-118 -96.5t-77 -145.5t-43.5 -178.5t-13 -212.5zM273 1880l87 87l295 -295l-66 -65z" />
<glyph unicode="&#xd3;" horiz-adv-x="1213" d="M80 753q0 115 19 224t62 211t106.5 177.5t159.5 121t211.5 45.5t208 -46.5t154 -123t103.5 -178.5q79 -192 79 -432q0 -439 -227 -652q-123 -116 -315 -116q-111 0 -205 44.5t-158.5 119t-110 174t-66.5 208t-21 223.5zM228 739q0 -119 23.5 -231.5t71 -203.5t129 -143.5 t180 -52.5t169 39.5t113.5 102.5t71 150q50 154 50 352q0 329 -121 510q-43 65 -113 105.5t-160 40.5t-161.5 -36t-118 -96.5t-77 -145.5t-43.5 -178.5t-13 -212.5zM627 1672l295 295l87 -87l-316 -273z" />
<glyph unicode="&#xd4;" horiz-adv-x="1213" d="M80 753q0 115 19 224t62 211t106.5 177.5t159.5 121t211.5 45.5t208 -46.5t154 -123t103.5 -178.5q79 -192 79 -432q0 -439 -227 -652q-123 -116 -315 -116q-111 0 -205 44.5t-158.5 119t-110 174t-66.5 208t-21 223.5zM228 739q0 -119 23.5 -231.5t71 -203.5t129 -143.5 t180 -52.5t169 39.5t113.5 102.5t71 150q50 154 50 352q0 329 -121 510q-43 65 -113 105.5t-160 40.5t-161.5 -36t-118 -96.5t-77 -145.5t-43.5 -178.5t-13 -212.5zM419 1719l222 222l222 -222l-66 -64l-156 156l-157 -157z" />
<glyph unicode="&#xd5;" horiz-adv-x="1213" d="M80 753q0 115 19 224t62 211t106.5 177.5t159.5 121t211.5 45.5t208 -46.5t154 -123t103.5 -178.5q79 -192 79 -432q0 -439 -227 -652q-123 -116 -315 -116q-111 0 -205 44.5t-158.5 119t-110 174t-66.5 208t-21 223.5zM228 739q0 -119 23.5 -231.5t71 -203.5t129 -143.5 t180 -52.5t169 39.5t113.5 102.5t71 150q50 154 50 352q0 329 -121 510q-43 65 -113 105.5t-160 40.5t-161.5 -36t-118 -96.5t-77 -145.5t-43.5 -178.5t-13 -212.5zM336 1698q25 72 70 111q52 45 102.5 45t85 -14t56.5 -31q57 -46 108 -46h10q32 3 57 26t37 58l83 -40 q-25 -72 -73.5 -114t-103.5 -42t-96.5 23t-78 45.5t-70.5 22.5h-10q-32 -3 -57 -26t-37 -58z" />
<glyph unicode="&#xd6;" horiz-adv-x="1213" d="M80 753q0 115 19 224t62 211t106.5 177.5t159.5 121t211.5 45.5t208 -46.5t154 -123t103.5 -178.5q79 -192 79 -432q0 -439 -227 -652q-123 -116 -315 -116q-111 0 -205 44.5t-158.5 119t-110 174t-66.5 208t-21 223.5zM228 739q0 -119 23.5 -231.5t71 -203.5t129 -143.5 t180 -52.5t169 39.5t113.5 102.5t71 150q50 154 50 352q0 329 -121 510q-43 65 -113 105.5t-160 40.5t-161.5 -36t-118 -96.5t-77 -145.5t-43.5 -178.5t-13 -212.5zM406 1654v150h150v-150h-150zM725 1654v150h150v-150h-150z" />
<glyph unicode="&#xd7;" horiz-adv-x="846" d="M75 460l280 280l-280 281l93 93l280 -281l279 280l93 -93l-279 -280l280 -280l-93 -93l-280 280l-280 -280z" />
<glyph unicode="&#xd8;" horiz-adv-x="1221" d="M80 733q0 135 19 244t62 211t106.5 177.5t159.5 121t214 45.5q174 0 306 -112l74 129l114 -66l-97 -167q75 -111 114 -260.5t39 -284.5t-19 -243t-62 -208t-105.5 -174t-156 -118t-207.5 -44q-175 0 -308 110l-76 -132l-115 66l97 168q-78 109 -118.5 255.5t-40.5 281.5z M228 732.5q0 -240.5 85 -410.5l568 984q-97 102 -240 102q-257 0 -357 -278q-56 -157 -56 -397.5zM397 204q101 -96 244 -96q89 0 160 39.5t115.5 102.5t73.5 149q53 153 53 380.5t-81 403.5z" />
<glyph unicode="&#xd9;" horiz-adv-x="1163" d="M135 455v1060h148v-1060q0 -136 66 -229q83 -118 260 -118q264 0 313 238q12 55 12 109v1060h151v-1060q0 -164 -89 -293q-120 -178 -387 -178q-319 0 -429 254q-45 106 -45 217zM241 1880l87 87l295 -295l-66 -65z" />
<glyph unicode="&#xda;" horiz-adv-x="1163" d="M135 455v1060h148v-1060q0 -136 66 -229q83 -118 260 -118q264 0 313 238q12 55 12 109v1060h151v-1060q0 -164 -89 -293q-120 -178 -387 -178q-319 0 -429 254q-45 106 -45 217zM594 1672l295 295l87 -87l-316 -273z" />
<glyph unicode="&#xdb;" horiz-adv-x="1163" d="M135 455v1060h148v-1060q0 -136 66 -229q83 -118 260 -118q264 0 313 238q12 55 12 109v1060h151v-1060q0 -164 -89 -293q-120 -178 -387 -178q-319 0 -429 254q-45 106 -45 217zM386 1719l222 222l222 -222l-66 -64l-156 156l-157 -157z" />
<glyph unicode="&#xdc;" horiz-adv-x="1163" d="M135 455v1060h148v-1060q0 -136 66 -229q83 -118 260 -118q264 0 313 238q12 55 12 109v1060h151v-1060q0 -164 -89 -293q-120 -178 -387 -178q-319 0 -429 254q-45 106 -45 217zM374 1654v150h150v-150h-150zM693 1654v150h150v-150h-150z" />
<glyph unicode="&#xdd;" horiz-adv-x="1072" d="M25 1515h154l382 -713l382 713h154l-462 -855v-660h-148v660zM547 1672l295 295l87 -87l-316 -273z" />
<glyph unicode="&#xde;" horiz-adv-x="1186" d="M135 0v1515h148v-335h381q235 0 346 -186q58 -98 58 -195.5t-22 -170t-67.5 -135t-126.5 -99.5t-188 -37h-381v-357h-148zM283 481h280q162 0 259.5 71t97.5 217t-98 216.5t-259 70.5h-280v-575z" />
<glyph unicode="&#xdf;" horiz-adv-x="1096" d="M135 0v879q0 306 37 407q47 129 121 175q104 64 259.5 64t249 -85t93.5 -196.5t-54 -185.5t-134 -105q-17 -7 -47.5 -18t-42.5 -16t-32 -14.5t-27.5 -17t-17.5 -19.5q-15 -21 -15 -63t18 -73.5t55 -54.5q57 -36 133 -59t100.5 -31t66 -24.5t65 -31.5t53.5 -39.5t46 -51.5 q39 -68 39 -148q0 -133 -101 -218t-230 -85t-207 39t-144 145l99 64q52 -81 99 -108.5t142 -27.5q98 0 159 53q51 44 51 108t-22 102t-63 62q-66 38 -138.5 55.5t-114 32t-85.5 39.5t-76 56q-73 71 -73 175q0 127 68 188q63 57 182 89q93 26 113 92q10 31 10 76 q0 83 -63.5 129.5t-142.5 46.5t-127.5 -19.5t-80.5 -57t-50 -103.5q-31 -119 -31 -346v-879h-140z" />
<glyph unicode="&#xe0;" horiz-adv-x="878" d="M72 257.5q0 71.5 18 125t56.5 95t87.5 73.5t122 58q133 47 325 85q0 158 -61 211q-54 47 -157 47q-126 0 -217 -96q-39 -39 -54 -70l-95 63q112 215 381 215q241 0 308 -185q27 -75 27 -182v-549q0 -29 11 -79t20 -69h-133q-30 15 -30 168q-141 -181 -311 -181 q-188 0 -261 132q-37 67 -37 138.5zM110 1414l87 87l295 -295l-66 -65zM204 252q0 -74 52 -113.5t115.5 -39.5t112 19t88.5 49q73 55 109 98v317q-190 -49 -225 -60q-176 -57 -227 -150q-25 -46 -25 -120z" />
<glyph unicode="&#xe1;" horiz-adv-x="878" d="M72 257.5q0 71.5 18 125t56.5 95t87.5 73.5t122 58q133 47 325 85q0 158 -61 211q-54 47 -157 47q-126 0 -217 -96q-39 -39 -54 -70l-95 63q112 215 381 215q241 0 308 -185q27 -75 27 -182v-549q0 -29 11 -79t20 -69h-133q-30 15 -30 168q-141 -181 -311 -181 q-188 0 -261 132q-37 67 -37 138.5zM204 252q0 -74 52 -113.5t115.5 -39.5t112 19t88.5 49q73 55 109 98v317q-190 -49 -225 -60q-176 -57 -227 -150q-25 -46 -25 -120zM464 1206l295 295l87 -87l-316 -273z" />
<glyph unicode="&#xe2;" horiz-adv-x="878" d="M72 257.5q0 71.5 18 125t56.5 95t87.5 73.5t122 58q133 47 325 85q0 158 -61 211q-54 47 -157 47q-126 0 -217 -96q-39 -39 -54 -70l-95 63q112 215 381 215q241 0 308 -185q27 -75 27 -182v-549q0 -29 11 -79t20 -69h-133q-30 15 -30 168q-141 -181 -311 -181 q-188 0 -261 132q-37 67 -37 138.5zM204 252q0 -74 52 -113.5t115.5 -39.5t112 19t88.5 49q73 55 109 98v317q-190 -49 -225 -60q-176 -57 -227 -150q-25 -46 -25 -120zM256 1253l222 222l222 -222l-66 -64l-156 156l-157 -157z" />
<glyph unicode="&#xe3;" horiz-adv-x="878" d="M72 257.5q0 71.5 18 125t56.5 95t87.5 73.5t122 58q133 47 325 85q0 158 -61 211q-54 47 -157 47q-126 0 -217 -96q-39 -39 -54 -70l-95 63q112 215 381 215q241 0 308 -185q27 -75 27 -182v-549q0 -29 11 -79t20 -69h-133q-30 15 -30 168q-141 -181 -311 -181 q-188 0 -261 132q-37 67 -37 138.5zM174 1232q25 72 70 111q52 45 102.5 45t85 -14t56.5 -31q57 -46 108 -46h10q32 3 57 26t37 58l83 -40q-25 -72 -73.5 -114t-103.5 -42t-96.5 23t-78 45.5t-70.5 22.5h-10q-32 -3 -57 -26t-37 -58zM204 252q0 -74 52 -113.5t115.5 -39.5 t112 19t88.5 49q73 55 109 98v317q-190 -49 -225 -60q-176 -57 -227 -150q-25 -46 -25 -120z" />
<glyph unicode="&#xe4;" horiz-adv-x="878" d="M72 257.5q0 71.5 18 125t56.5 95t87.5 73.5t122 58q133 47 325 85q0 158 -61 211q-54 47 -157 47q-126 0 -217 -96q-39 -39 -54 -70l-95 63q112 215 381 215q241 0 308 -185q27 -75 27 -182v-549q0 -29 11 -79t20 -69h-133q-30 15 -30 168q-141 -181 -311 -181 q-188 0 -261 132q-37 67 -37 138.5zM204 252q0 -74 52 -113.5t115.5 -39.5t112 19t88.5 49q73 55 109 98v317q-190 -49 -225 -60q-176 -57 -227 -150q-25 -46 -25 -120zM244 1188v150h150v-150h-150zM563 1188v150h150v-150h-150z" />
<glyph unicode="&#xe5;" horiz-adv-x="878" d="M72 257.5q0 71.5 18 125t56.5 95t87.5 73.5t122 58q133 47 325 85q0 158 -61 211q-54 47 -157 47q-126 0 -217 -96q-39 -39 -54 -70l-95 63q112 215 381 215q241 0 308 -185q27 -75 27 -182v-549q0 -29 11 -79t20 -69h-133q-30 15 -30 168q-141 -181 -311 -181 q-188 0 -261 132q-37 67 -37 138.5zM204 252q0 -74 52 -113.5t115.5 -39.5t112 19t88.5 49q73 55 109 98v317q-190 -49 -225 -60q-176 -57 -227 -150q-25 -46 -25 -120zM205 1413q0 106 74.5 180.5t180.5 74.5t180.5 -74.5t74.5 -180.5t-74.5 -180.5t-180.5 -74.5 t-180.5 74.5t-74.5 180.5zM301 1413q0 -65 46.5 -111.5t111.5 -46.5t111.5 46.5t46.5 111.5t-46.5 111.5t-111.5 46.5t-111.5 -46.5t-46.5 -111.5z" />
<glyph unicode="&#xe6;" horiz-adv-x="1477" d="M72 259.5q0 71.5 18 125t56.5 95t87.5 73.5t122 58q133 47 325 85q0 158 -61 211q-54 47 -157 47q-126 0 -217 -96q-39 -39 -54 -70l-95 63q112 215 381 215q221 0 296 -157q104 157 303 157q184 0 280 -152q86 -136 86 -401h-634q0 -267 135 -364q67 -48 135 -48 t116.5 22.5t80.5 56.5q62 67 80 112l90 -63q-37 -74 -101 -132q-119 -108 -248 -108t-222 64.5t-145 178.5q-163 -243 -360 -243q-188 0 -261 132q-37 67 -37 138.5zM204 254q0 -74 52 -113.5t113 -39.5t105 16.5t77.5 38.5t68.5 52q48 44 84 86q-26 69 -26 180 q0 18 1.5 54.5t1.5 55.5q-190 -49 -225 -60q-176 -57 -227 -150q-25 -46 -25 -120zM815 625h496q0 149 -69 247q-58 82 -165 82q-175 0 -234 -162q-28 -76 -28 -167z" />
<glyph unicode="&#xe7;" horiz-adv-x="876" d="M75 520q0 546 425 546q105 0 177 -50q71 -50 94 -90q40 -68 55 -113l-106 -48q-2 20 -21.5 59t-41.5 64t-63.5 45.5t-93.5 20.5q-293 0 -293 -425q0 -206 77.5 -317t215.5 -111q95 0 158 73q55 63 74 112l9 22l104 -50q-35 -97 -115 -176q-36 -35 -98 -64 q-38 -18 -79 -25q69 -98 69 -192q0 -115 -205 -115l-36 1v94q89 0 118.5 16t29.5 31q0 72 -71 162q-186 13 -280 138q-103 140 -103 392z" />
<glyph unicode="&#xe8;" horiz-adv-x="875" d="M75 500q0 99 14 180.5t37 138.5t56 101.5t68 71.5t76 44q71 30 135 30t109 -11.5t96.5 -47t88.5 -93.5q86 -136 86 -401h-634q0 -267 135 -364q67 -48 149 -48q154 0 262 191l91 -63q-39 -72 -102 -130q-120 -110 -237 -110t-199 43t-131 116t-74.5 163t-25.5 189z M107 1414l87 87l295 -295l-66 -65zM213 625h496q0 149 -69 247q-58 82 -165 82q-175 0 -234 -162q-28 -76 -28 -167z" />
<glyph unicode="&#xe9;" horiz-adv-x="875" d="M75 500q0 99 14 180.5t37 138.5t56 101.5t68 71.5t76 44q71 30 135 30t109 -11.5t96.5 -47t88.5 -93.5q86 -136 86 -401h-634q0 -267 135 -364q67 -48 149 -48q154 0 262 191l91 -63q-39 -72 -102 -130q-120 -110 -237 -110t-199 43t-131 116t-74.5 163t-25.5 189z M213 625h496q0 149 -69 247q-58 82 -165 82q-175 0 -234 -162q-28 -76 -28 -167zM461 1206l295 295l87 -87l-316 -273z" />
<glyph unicode="&#xea;" horiz-adv-x="875" d="M75 500q0 99 14 180.5t37 138.5t56 101.5t68 71.5t76 44q71 30 135 30t109 -11.5t96.5 -47t88.5 -93.5q86 -136 86 -401h-634q0 -267 135 -364q67 -48 149 -48q154 0 262 191l91 -63q-39 -72 -102 -130q-120 -110 -237 -110t-199 43t-131 116t-74.5 163t-25.5 189z M213 625h496q0 149 -69 247q-58 82 -165 82q-175 0 -234 -162q-28 -76 -28 -167zM253 1253l222 222l222 -222l-66 -64l-156 156l-157 -157z" />
<glyph unicode="&#xeb;" horiz-adv-x="875" d="M75 500q0 99 14 180.5t37 138.5t56 101.5t68 71.5t76 44q71 30 135 30t109 -11.5t96.5 -47t88.5 -93.5q86 -136 86 -401h-634q0 -267 135 -364q67 -48 149 -48q154 0 262 191l91 -63q-39 -72 -102 -130q-120 -110 -237 -110t-199 43t-131 116t-74.5 163t-25.5 189z M213 625h496q0 149 -69 247q-58 82 -165 82q-175 0 -234 -162q-28 -76 -28 -167zM240 1188v150h150v-150h-150zM559 1188v150h150v-150h-150z" />
<glyph unicode="&#xec;" horiz-adv-x="367" d="M-173 1414l87 87l295 -295l-66 -65zM129 0v1055h132v-1055h-132z" />
<glyph unicode="&#xed;" horiz-adv-x="367" d="M129 0v1055h132v-1055h-132zM181 1206l295 295l87 -87l-316 -273z" />
<glyph unicode="&#xee;" horiz-adv-x="367" d="M-27 1253l222 222l222 -222l-66 -64l-156 156l-157 -157zM129 0v1055h132v-1055h-132z" />
<glyph unicode="&#xef;" horiz-adv-x="367" d="M-40 1188v150h150v-150h-150zM129 0v1055h132v-1055h-132zM279 1188v150h150v-150h-150z" />
<glyph unicode="&#xf0;" horiz-adv-x="931" d="M75 533q0 243 108.5 388t303.5 145q147 0 232 -70q-79 206 -91 228l-17 34l-203 -116l-46 80l199 114q-57 77 -111.5 127t-56.5 52h139q50 -31 125 -123l162 94l46 -80l-155 -90q187 -301 187 -789q0 -329 -187 -469q-94 -69 -223 -69q-194 0 -303 150.5t-109 393.5z M207 528q0 -316 165 -401q50 -26 115 -26t115.5 26t80.5 67t49 98q33 100 33 235q0 427 -279 427t-279 -426z" />
<glyph unicode="&#xf1;" d="M120 0v1055h132v-173q88 87 167 135.5t186 48.5t181 -70t74 -210v-786h-132v786q0 75 -53.5 121.5t-115.5 46.5q-148 0 -307 -173v-781h-132zM186 1232q25 72 70 111q52 45 102.5 45t85 -14t56.5 -31q57 -46 108 -46h10q32 3 57 26t37 58l83 -40q-25 -72 -73.5 -114 t-103.5 -42t-96.5 23t-78 45.5t-70.5 22.5h-10q-32 -3 -57 -26t-37 -58z" />
<glyph unicode="&#xf2;" horiz-adv-x="922" d="M75 534.5q0 241.5 108.5 386.5t303.5 145t302.5 -146t107.5 -390t-108.5 -393t-301.5 -149q-197 0 -306 154q-106 151 -106 392.5zM119 1414l87 87l295 -295l-66 -65zM207 528q0 -317 165 -402q50 -26 115 -26t115.5 26t80.5 67t49 99q33 101 33 235q0 427 -279 427 t-279 -426z" />
<glyph unicode="&#xf3;" horiz-adv-x="922" d="M75 534.5q0 241.5 108.5 386.5t303.5 145t302.5 -146t107.5 -390t-108.5 -393t-301.5 -149q-197 0 -306 154q-106 151 -106 392.5zM207 528q0 -317 165 -402q50 -26 115 -26t115.5 26t80.5 67t49 99q33 101 33 235q0 427 -279 427t-279 -426zM473 1206l295 295l87 -87 l-316 -273z" />
<glyph unicode="&#xf4;" horiz-adv-x="922" d="M75 534.5q0 241.5 108.5 386.5t303.5 145t302.5 -146t107.5 -390t-108.5 -393t-301.5 -149q-197 0 -306 154q-106 151 -106 392.5zM207 528q0 -317 165 -402q50 -26 115 -26t115.5 26t80.5 67t49 99q33 101 33 235q0 427 -279 427t-279 -426zM265 1253l222 222l222 -222 l-66 -64l-156 156l-157 -157z" />
<glyph unicode="&#xf5;" horiz-adv-x="922" d="M75 534.5q0 241.5 108.5 386.5t303.5 145t302.5 -146t107.5 -390t-108.5 -393t-301.5 -149q-197 0 -306 154q-106 151 -106 392.5zM182 1232q25 72 70 111q52 45 102.5 45t85 -14t56.5 -31q57 -46 108 -46h10q32 3 57 26t37 58l83 -40q-25 -72 -73.5 -114t-103.5 -42 t-96.5 23t-78 45.5t-70.5 22.5h-10q-32 -3 -57 -26t-37 -58zM207 528q0 -317 165 -402q50 -26 115 -26t115.5 26t80.5 67t49 99q33 101 33 235q0 427 -279 427t-279 -426z" />
<glyph unicode="&#xf6;" horiz-adv-x="922" d="M75 534.5q0 241.5 108.5 386.5t303.5 145t302.5 -146t107.5 -390t-108.5 -393t-301.5 -149q-197 0 -306 154q-106 151 -106 392.5zM207 528q0 -317 165 -402q50 -26 115 -26t115.5 26t80.5 67t49 99q33 101 33 235q0 427 -279 427t-279 -426zM252 1188v150h150v-150h-150 zM571 1188v150h150v-150h-150z" />
<glyph unicode="&#xf7;" horiz-adv-x="853" d="M75 674v132h753v-132h-753zM377 319v150h150v-150h-150zM377 1011v150h150v-150h-150z" />
<glyph unicode="&#xf8;" horiz-adv-x="922" d="M75 536q0 240 108.5 385t303.5 145q107 0 193 -48l48 84l114 -66l-60 -106q115 -148 115 -396t-108.5 -397t-301.5 -149q-119 0 -213 63l-50 -87l-115 66l68 118q-102 148 -102 388zM207 528q0 -152 41 -257l375 649q-58 34 -136 34q-280 0 -280 -426zM332 152 q65 -52 142.5 -52t128 26t80.5 67t49 99q33 101 33 259t-50 264z" />
<glyph unicode="&#xf9;" horiz-adv-x="929" d="M129 269v786h132v-786q0 -75 53.5 -121.5t115.5 -46.5q148 0 307 173v781h132v-1055h-132v174q-142 -139 -243 -170q-49 -15 -102 -15q-115 0 -189 70t-74 210zM131 1414l87 87l295 -295l-66 -65z" />
<glyph unicode="&#xfa;" horiz-adv-x="929" d="M129 269v786h132v-786q0 -75 53.5 -121.5t115.5 -46.5q148 0 307 173v781h132v-1055h-132v174q-142 -139 -243 -170q-49 -15 -102 -15q-115 0 -189 70t-74 210zM485 1206l295 295l87 -87l-316 -273z" />
<glyph unicode="&#xfb;" horiz-adv-x="929" d="M129 269v786h132v-786q0 -75 53.5 -121.5t115.5 -46.5q148 0 307 173v781h132v-1055h-132v174q-142 -139 -243 -170q-49 -15 -102 -15q-115 0 -189 70t-74 210zM277 1253l222 222l222 -222l-66 -64l-156 156l-157 -157z" />
<glyph unicode="&#xfc;" horiz-adv-x="929" d="M129 269v786h132v-786q0 -75 53.5 -121.5t115.5 -46.5q148 0 307 173v781h132v-1055h-132v174q-142 -139 -243 -170q-49 -15 -102 -15q-115 0 -189 70t-74 210zM264 1188v150h150v-150h-150zM583 1188v150h150v-150h-150z" />
<glyph unicode="&#xfd;" horiz-adv-x="855" d="M25 1055h142l299 -859l280 859h134l-368 -1119q-57 -171 -114 -232q-63 -66 -124 -81.5t-124 -15.5t-123 8l10 121q36 -17 96 -17t99 15.5t64 40t45.5 54t32.5 59.5q21 56 30 109zM438 1206l295 295l87 -87l-316 -273z" />
<glyph unicode="&#xfe;" horiz-adv-x="965" d="M129 -410v1925h132v-624q24 45 79 90q104 85 217 85q210 0 320 -230q63 -132 63 -289q0 -276 -135 -439q-98 -119 -261 -119q-92 0 -178 55.5t-105 95.5v-550h-132zM261 254q46 -66 112 -109.5t125.5 -43.5t100 11.5t80 42t67.5 79.5q62 108 62 313q0 250 -116 352 q-62 55 -156 55q-126 0 -220 -106q-24 -27 -55 -69v-525z" />
<glyph unicode="&#xff;" horiz-adv-x="855" d="M25 1055h142l299 -859l280 859h134l-368 -1119q-57 -171 -114 -232q-63 -66 -124 -81.5t-124 -15.5t-123 8l10 121q36 -17 96 -17t99 15.5t64 40t45.5 54t32.5 59.5q21 56 30 109zM218 1193v150h150v-150h-150zM537 1193v150h150v-150h-150z" />
<glyph unicode="&#x100;" horiz-adv-x="1080" d="M25 0l432 1515h216l432 -1515h-154l-130 478h-509l-133 -478h-154zM302 1654v92h527v-92h-527zM346 602h440l-221 787z" />
<glyph unicode="&#x101;" horiz-adv-x="878" d="M72 257.5q0 71.5 18 125t56.5 95t87.5 73.5t122 58q133 47 325 85q0 158 -61 211q-54 47 -157 47q-126 0 -217 -96q-39 -39 -54 -70l-95 63q112 215 381 215q241 0 308 -185q27 -75 27 -182v-549q0 -29 11 -79t20 -69h-133q-30 15 -30 168q-141 -181 -311 -181 q-188 0 -261 132q-37 67 -37 138.5zM204 252q0 -74 52 -113.5t115.5 -39.5t112 19t88.5 49q73 55 109 98v317q-190 -49 -225 -60q-176 -57 -227 -150q-25 -46 -25 -120zM214 1188v92h527v-92h-527z" />
<glyph unicode="&#x102;" horiz-adv-x="1080" d="M25 0l432 1515h216l432 -1515h-154l-130 478h-509l-133 -478h-154zM346 602h440l-221 787zM359 1789l69 40q18 -42 57 -69t80 -27t80 27t57 69l69 -40q-65 -135 -206 -135t-206 135z" />
<glyph unicode="&#x103;" horiz-adv-x="878" d="M72 257.5q0 71.5 18 125t56.5 95t87.5 73.5t122 58q133 47 325 85q0 158 -61 211q-54 47 -157 47q-126 0 -217 -96q-39 -39 -54 -70l-95 63q112 215 381 215q241 0 308 -185q27 -75 27 -182v-549q0 -29 11 -79t20 -69h-133q-30 15 -30 168q-141 -181 -311 -181 q-188 0 -261 132q-37 67 -37 138.5zM204 252q0 -74 52 -113.5t115.5 -39.5t112 19t88.5 49q73 55 109 98v317q-190 -49 -225 -60q-176 -57 -227 -150q-25 -46 -25 -120zM272 1323l69 40q18 -42 57 -69t80 -27t80 27t57 69l69 -40q-65 -135 -206 -135t-206 135z" />
<glyph unicode="&#x104;" horiz-adv-x="1080" d="M25 0l432 1515h216l432 -1515h-154l-130 478h-509l-133 -478h-154zM346 602h440l-221 787zM880 -199q0 96 73 198h98q-78 -96 -78 -171q0 -36 117 -45q18 -2 31 -2v-94l-36 -1q-205 0 -205 115z" />
<glyph unicode="&#x105;" horiz-adv-x="878" d="M72 257.5q0 71.5 18 125t56.5 95t87.5 73.5t122 58q133 47 325 85q0 158 -61 211q-54 47 -157 47q-126 0 -217 -96q-39 -39 -54 -70l-95 63q112 215 381 215q241 0 308 -185q27 -75 27 -182v-549q0 -29 11 -79t20 -69h-35q-78 -96 -78 -171q0 -36 117 -45q18 -2 31 -2 v-94l-36 -1q-205 0 -205 115q0 96 73 198q-30 15 -30 168q-141 -181 -311 -181q-188 0 -261 132q-37 67 -37 138.5zM204 252q0 -74 52 -113.5t115.5 -39.5t112 19t88.5 49q73 55 109 98v317q-190 -49 -225 -60q-176 -57 -227 -150q-25 -46 -25 -120z" />
<glyph unicode="&#x106;" horiz-adv-x="1124" d="M80 775.5q0 97.5 17.5 205t58.5 209t102 176.5t153.5 120.5t188.5 45.5t163.5 -24.5t113.5 -63.5t84 -86.5t60 -95.5q46 -99 57 -150l6 -24v-1l-152 -41q-16 114 -40.5 166.5t-49 86t-54.5 56.5q-71 53 -170 53q-390 0 -390 -649q0 -278 82 -454q93 -197 308 -197 q176 0 274 138q68 97 68 217l146 -23q-4 -11 -18.5 -54t-24.5 -70t-32.5 -73.5t-45 -77.5t-60 -68.5t-79.5 -59.5q-101 -53 -207 -53t-178.5 24t-126.5 65.5t-97.5 100t-72.5 126t-48 145t-27.5 155.5t-8.5 175.5zM604 1672l295 295l87 -87l-316 -273z" />
<glyph unicode="&#x107;" horiz-adv-x="876" d="M75 520q0 546 425 546q105 0 177 -50q71 -50 94 -90q40 -68 55 -113l-106 -48q-2 20 -21.5 59t-41.5 64t-63.5 45.5t-93.5 20.5q-293 0 -293 -425q0 -206 77.5 -317t215.5 -111q95 0 158 73q55 63 74 112l9 22l104 -50q-35 -97 -115 -176q-36 -35 -98 -64t-132 -29 q-218 0 -321.5 139.5t-103.5 391.5zM486 1206l295 295l87 -87l-316 -273z" />
<glyph unicode="&#x108;" horiz-adv-x="1124" d="M80 775.5q0 97.5 17.5 205t58.5 209t102 176.5t153.5 120.5t188.5 45.5t163.5 -24.5t113.5 -63.5t84 -86.5t60 -95.5q46 -99 57 -150l6 -24v-1l-152 -41q-16 114 -40.5 166.5t-49 86t-54.5 56.5q-71 53 -170 53q-390 0 -390 -649q0 -278 82 -454q93 -197 308 -197 q176 0 274 138q68 97 68 217l146 -23q-4 -11 -18.5 -54t-24.5 -70t-32.5 -73.5t-45 -77.5t-60 -68.5t-79.5 -59.5q-101 -53 -207 -53t-178.5 24t-126.5 65.5t-97.5 100t-72.5 126t-48 145t-27.5 155.5t-8.5 175.5zM396 1719l222 222l222 -222l-66 -64l-156 156l-157 -157z " />
<glyph unicode="&#x109;" horiz-adv-x="876" d="M75 520q0 546 425 546q105 0 177 -50q71 -50 94 -90q40 -68 55 -113l-106 -48q-2 20 -21.5 59t-41.5 64t-63.5 45.5t-93.5 20.5q-293 0 -293 -425q0 -206 77.5 -317t215.5 -111q95 0 158 73q55 63 74 112l9 22l104 -50q-35 -97 -115 -176q-36 -35 -98 -64t-132 -29 q-218 0 -321.5 139.5t-103.5 391.5zM278 1253l222 222l222 -222l-66 -64l-156 156l-157 -157z" />
<glyph unicode="&#x10a;" horiz-adv-x="1124" d="M80 775.5q0 97.5 17.5 205t58.5 209t102 176.5t153.5 120.5t188.5 45.5t163.5 -24.5t113.5 -63.5t84 -86.5t60 -95.5q46 -99 57 -150l6 -24v-1l-152 -41q-16 114 -40.5 166.5t-49 86t-54.5 56.5q-71 53 -170 53q-390 0 -390 -649q0 -278 82 -454q93 -197 308 -197 q176 0 274 138q68 97 68 217l146 -23q-4 -11 -18.5 -54t-24.5 -70t-32.5 -73.5t-45 -77.5t-60 -68.5t-79.5 -59.5q-101 -53 -207 -53t-178.5 24t-126.5 65.5t-97.5 100t-72.5 126t-48 145t-27.5 155.5t-8.5 175.5zM543 1654v150h150v-150h-150z" />
<glyph unicode="&#x10b;" horiz-adv-x="876" d="M75 520q0 546 425 546q105 0 177 -50q71 -50 94 -90q40 -68 55 -113l-106 -48q-2 20 -21.5 59t-41.5 64t-63.5 45.5t-93.5 20.5q-293 0 -293 -425q0 -206 77.5 -317t215.5 -111q95 0 158 73q55 63 74 112l9 22l104 -50q-35 -97 -115 -176q-36 -35 -98 -64t-132 -29 q-218 0 -321.5 139.5t-103.5 391.5zM425 1188v150h150v-150h-150z" />
<glyph unicode="&#x10c;" horiz-adv-x="1124" d="M80 775.5q0 97.5 17.5 205t58.5 209t102 176.5t153.5 120.5t188.5 45.5t163.5 -24.5t113.5 -63.5t84 -86.5t60 -95.5q46 -99 57 -150l6 -24v-1l-152 -41q-16 114 -40.5 166.5t-49 86t-54.5 56.5q-71 53 -170 53q-390 0 -390 -649q0 -278 82 -454q93 -197 308 -197 q176 0 274 138q68 97 68 217l146 -23q-4 -11 -18.5 -54t-24.5 -70t-32.5 -73.5t-45 -77.5t-60 -68.5t-79.5 -59.5q-101 -53 -207 -53t-178.5 24t-126.5 65.5t-97.5 100t-72.5 126t-48 145t-27.5 155.5t-8.5 175.5zM396 1876l65 65l157 -157l156 156l66 -64l-222 -222z" />
<glyph unicode="&#x10d;" horiz-adv-x="876" d="M75 520q0 546 425 546q105 0 177 -50q71 -50 94 -90q40 -68 55 -113l-106 -48q-2 20 -21.5 59t-41.5 64t-63.5 45.5t-93.5 20.5q-293 0 -293 -425q0 -206 77.5 -317t215.5 -111q95 0 158 73q55 63 74 112l9 22l104 -50q-35 -97 -115 -176q-36 -35 -98 -64t-132 -29 q-218 0 -321.5 139.5t-103.5 391.5zM278 1410l65 65l157 -157l156 156l66 -64l-222 -222z" />
<glyph unicode="&#x10e;" horiz-adv-x="1164" d="M135 0v1515h361q502 0 614 -446q36 -144 36 -294t-21 -256t-69.5 -202.5t-121.5 -165.5q-161 -151 -438 -151h-361zM283 124h213q327 0 444 279q58 140 58 342q0 359 -138 512q-54 59 -146.5 96.5t-217.5 37.5h-213v-1267zM310 1876l65 65l157 -157l156 156l66 -64 l-222 -222z" />
<glyph unicode="&#x10f;" horiz-adv-x="1295" d="M75 510q0 147 47.5 273t139.5 204.5t196.5 78.5t184.5 -54t99 -95v598h132v-1369q0 -30 8.5 -78.5t17.5 -67.5h-133q-25 12 -25 166q-102 -177 -284 -177q-91 0 -166 45.5t-121 120.5q-96 157 -96 355zM207 510q0 -177 63 -290q66 -119 209 -119q95 0 156 54 q49 43 107 123v525q-106 151 -237 151q-298 0 -298 -444zM977 1114l87 250h-65v150h150v-150q-27 -57 -76 -152t-52 -98h-44z" />
<glyph unicode="&#x110;" horiz-adv-x="1174" d="M9 676v136h128v703h361q155 0 273 -43t190 -113.5t117 -172.5q78 -178 78 -441q0 -394 -218 -595q-161 -150 -440 -150h-361v676h-128zM285 124h213q256 0 386 172q124 165 124 449q0 434 -220 574q-113 72 -290 72h-213v-579h324v-136h-324v-552z" />
<glyph unicode="&#x111;" horiz-adv-x="934" d="M75 510q0 147 47.5 273t139.5 204.5t196.5 78.5t184.5 -54t99 -95v250h-300v112h300v236h132v-236h88v-112h-88v-1021q0 -30 8.5 -78.5t17.5 -67.5h-133q-25 12 -25 166q-102 -177 -284 -177q-91 0 -166 45.5t-121 120.5q-96 157 -96 355zM207 510q0 -177 63 -290 q66 -119 209 -119q95 0 156 54q49 43 107 123v525q-106 151 -237 151q-298 0 -298 -444z" />
<glyph unicode="&#x112;" horiz-adv-x="1012" d="M135 0v1515h821v-124h-673v-533h483v-124h-483v-601h711v-133h-859zM282 1654v92h527v-92h-527z" />
<glyph unicode="&#x113;" horiz-adv-x="875" d="M75 500q0 99 14 180.5t37 138.5t56 101.5t68 71.5t76 44q71 30 135 30t109 -11.5t96.5 -47t88.5 -93.5q86 -136 86 -401h-634q0 -267 135 -364q67 -48 149 -48q154 0 262 191l91 -63q-39 -72 -102 -130q-120 -110 -237 -110t-199 43t-131 116t-74.5 163t-25.5 189z M212 1188v92h527v-92h-527zM213 625h496q0 149 -69 247q-58 82 -165 82q-175 0 -234 -162q-28 -76 -28 -167z" />
<glyph unicode="&#x114;" horiz-adv-x="1012" d="M135 0v1515h821v-124h-673v-533h483v-124h-483v-601h711v-133h-859zM339 1789l69 40q18 -42 57 -69t80 -27t80 27t57 69l69 -40q-65 -135 -206 -135t-206 135z" />
<glyph unicode="&#x115;" horiz-adv-x="875" d="M75 500q0 99 14 180.5t37 138.5t56 101.5t68 71.5t76 44q71 30 135 30t109 -11.5t96.5 -47t88.5 -93.5q86 -136 86 -401h-634q0 -267 135 -364q67 -48 149 -48q154 0 262 191l91 -63q-39 -72 -102 -130q-120 -110 -237 -110t-199 43t-131 116t-74.5 163t-25.5 189z M213 625h496q0 149 -69 247q-58 82 -165 82q-175 0 -234 -162q-28 -76 -28 -167zM269 1323l69 40q18 -42 57 -69t80 -27t80 27t57 69l69 -40q-65 -135 -206 -135t-206 135z" />
<glyph unicode="&#x116;" horiz-adv-x="1012" d="M135 0v1515h821v-124h-673v-533h483v-124h-483v-601h711v-133h-859zM471 1654v150h150v-150h-150z" />
<glyph unicode="&#x117;" horiz-adv-x="875" d="M75 500q0 99 14 180.5t37 138.5t56 101.5t68 71.5t76 44q71 30 135 30t109 -11.5t96.5 -47t88.5 -93.5q86 -136 86 -401h-634q0 -267 135 -364q67 -48 149 -48q154 0 262 191l91 -63q-39 -72 -102 -130q-120 -110 -237 -110t-199 43t-131 116t-74.5 163t-25.5 189z M213 625h496q0 149 -69 247q-58 82 -165 82q-175 0 -234 -162q-28 -76 -28 -167zM400 1188v150h150v-150h-150z" />
<glyph unicode="&#x118;" horiz-adv-x="1012" d="M135 0v1515h821v-124h-673v-533h483v-124h-483v-601h711v-133h-78q-70 -90 -70 -161q0 -36 116 -45q19 -2 32 -2v-94l-36 -1q-205 0 -205 115q0 91 66 188h-684z" />
<glyph unicode="&#x119;" horiz-adv-x="875" d="M75 500q0 99 14 180.5t37 138.5t56 101.5t68 71.5t76 44q71 30 135 30t109 -11.5t96.5 -47t88.5 -93.5q86 -136 86 -401h-634q0 -267 135 -364q67 -48 149 -48q154 0 262 191l91 -63q-39 -72 -102 -130q-105 -97 -209 -108q-71 -91 -71 -163q0 -36 116 -46q19 -1 32 -1 v-94l-36 -1q-205 0 -205 115q0 93 69 192q-75 9 -132 39q-82 43 -131 116t-74.5 163t-25.5 189zM213 625h496q0 149 -69 247q-58 82 -165 82q-175 0 -234 -162q-28 -76 -28 -167z" />
<glyph unicode="&#x11a;" horiz-adv-x="1012" d="M135 0v1515h821v-124h-673v-533h483v-124h-483v-601h711v-133h-859zM324 1876l65 65l157 -157l156 156l66 -64l-222 -222z" />
<glyph unicode="&#x11b;" horiz-adv-x="875" d="M75 500q0 99 14 180.5t37 138.5t56 101.5t68 71.5t76 44q71 30 135 30t109 -11.5t96.5 -47t88.5 -93.5q86 -136 86 -401h-634q0 -267 135 -364q67 -48 149 -48q154 0 262 191l91 -63q-39 -72 -102 -130q-120 -110 -237 -110t-199 43t-131 116t-74.5 163t-25.5 189z M213 625h496q0 149 -69 247q-58 82 -165 82q-175 0 -234 -162q-28 -76 -28 -167zM253 1410l65 65l157 -157l156 156l66 -64l-222 -222z" />
<glyph unicode="&#x11c;" horiz-adv-x="1196" d="M80 756.5q0 105.5 14 196.5t42 177t74.5 158.5t105.5 127.5q128 116 320 116q141 0 265 -85q145 -99 211 -348l-145 -36q-1 7 -2.5 19.5t-11 48.5t-22.5 68.5t-39.5 72t-59.5 68.5q-76 68 -192 68t-198 -54t-127 -148q-87 -180 -87 -438q0 -308 80 -460 q105 -200 331 -200q281 0 325 324q9 70 9 159h-337v124h482v-715h-120v192q-113 -156 -239 -192q-56 -16 -148 -16t-187.5 46t-158.5 122t-105.5 178.5t-61 211.5t-18.5 214.5zM414 1719l222 222l222 -222l-66 -64l-156 156l-157 -157z" />
<glyph unicode="&#x11d;" horiz-adv-x="955" d="M42 -188q0 54 15 84t45.5 54t53 38.5t61.5 34t47 24.5q-82 17 -124 60t-42 78.5t13.5 64.5t40.5 54q44 39 73 57t32 20q-60 51 -105.5 133.5t-45.5 181t54.5 185.5t146 136t177.5 49t138.5 -21t112.5 -62q76 62 124 71q62 13 114 14v-120h-2q-171 0 -171 -31 q51 -94 63.5 -138.5t12.5 -89.5q0 -161 -103.5 -272.5t-268.5 -111.5q-87 0 -178 38q-8 -7 -36 -27q-60 -42 -60 -84q0 -46 42 -63q32 -13 79.5 -20t67 -9.5t65.5 -3.5q112 -1 266 -38q97 -23 158.5 -92t61.5 -165q0 -286 -479 -286q-169 0 -301 61q-67 31 -107.5 86.5 t-40.5 109.5zM174 -169q0 -98 106 -133q91 -31 170.5 -31t105.5 0.5t67 4t67 10t57 19.5t49 31q42 42 42 102t-40 95.5t-101.5 50.5t-121.5 21.5t-114.5 9t-65.5 5.5q-107 -40 -139 -59q-82 -48 -82 -126zM238 689q0 -117 70 -194.5t190.5 -77.5t183 79t62.5 192 t-61.5 189.5t-178.5 76.5t-191.5 -74t-74.5 -191zM295 1246l222 222l222 -222l-66 -64l-156 156l-157 -157z" />
<glyph unicode="&#x11e;" horiz-adv-x="1196" d="M80 756.5q0 105.5 14 196.5t42 177t74.5 158.5t105.5 127.5q128 116 320 116q141 0 265 -85q145 -99 211 -348l-145 -36q-1 7 -2.5 19.5t-11 48.5t-22.5 68.5t-39.5 72t-59.5 68.5q-76 68 -192 68t-198 -54t-127 -148q-87 -180 -87 -438q0 -308 80 -460 q105 -200 331 -200q281 0 325 324q9 70 9 159h-337v124h482v-715h-120v192q-113 -156 -239 -192q-56 -16 -148 -16t-187.5 46t-158.5 122t-105.5 178.5t-61 211.5t-18.5 214.5zM430 1789l69 40q18 -42 57 -69t80 -27t80 27t57 69l69 -40q-65 -135 -206 -135t-206 135z" />
<glyph unicode="&#x11f;" horiz-adv-x="955" d="M42 -188q0 54 15 84t45.5 54t53 38.5t61.5 34t47 24.5q-82 17 -124 60t-42 78.5t13.5 64.5t40.5 54q44 39 73 57t32 20q-60 51 -105.5 133.5t-45.5 181t54.5 185.5t146 136t177.5 49t138.5 -21t112.5 -62q76 62 124 71q62 13 114 14v-120h-2q-171 0 -171 -31 q51 -94 63.5 -138.5t12.5 -89.5q0 -161 -103.5 -272.5t-268.5 -111.5q-87 0 -178 38q-8 -7 -36 -27q-60 -42 -60 -84q0 -46 42 -63q32 -13 79.5 -20t67 -9.5t65.5 -3.5q112 -1 266 -38q97 -23 158.5 -92t61.5 -165q0 -286 -479 -286q-169 0 -301 61q-67 31 -107.5 86.5 t-40.5 109.5zM174 -169q0 -98 106 -133q91 -31 170.5 -31t105.5 0.5t67 4t67 10t57 19.5t49 31q42 42 42 102t-40 95.5t-101.5 50.5t-121.5 21.5t-114.5 9t-65.5 5.5q-107 -40 -139 -59q-82 -48 -82 -126zM238 689q0 -117 70 -194.5t190.5 -77.5t183 79t62.5 192 t-61.5 189.5t-178.5 76.5t-191.5 -74t-74.5 -191zM305 1325l69 40q18 -42 57 -69t80 -27t80 27t57 69l69 -40q-65 -135 -206 -135t-206 135z" />
<glyph unicode="&#x120;" horiz-adv-x="1196" d="M80 756.5q0 105.5 14 196.5t42 177t74.5 158.5t105.5 127.5q128 116 320 116q141 0 265 -85q145 -99 211 -348l-145 -36q-1 7 -2.5 19.5t-11 48.5t-22.5 68.5t-39.5 72t-59.5 68.5q-76 68 -192 68t-198 -54t-127 -148q-87 -180 -87 -438q0 -308 80 -460 q105 -200 331 -200q281 0 325 324q9 70 9 159h-337v124h482v-715h-120v192q-113 -156 -239 -192q-56 -16 -148 -16t-187.5 46t-158.5 122t-105.5 178.5t-61 211.5t-18.5 214.5zM561 1654v150h150v-150h-150z" />
<glyph unicode="&#x121;" horiz-adv-x="955" d="M42 -188q0 54 15 84t45.5 54t53 38.5t61.5 34t47 24.5q-82 17 -124 60t-42 78.5t13.5 64.5t40.5 54q44 39 73 57t32 20q-60 51 -105.5 133.5t-45.5 181t54.5 185.5t146 136t177.5 49t138.5 -21t112.5 -62q76 62 124 71q62 13 114 14v-120h-2q-171 0 -171 -31 q51 -94 63.5 -138.5t12.5 -89.5q0 -161 -103.5 -272.5t-268.5 -111.5q-87 0 -178 38q-8 -7 -36 -27q-60 -42 -60 -84q0 -46 42 -63q32 -13 79.5 -20t67 -9.5t65.5 -3.5q112 -1 266 -38q97 -23 158.5 -92t61.5 -165q0 -286 -479 -286q-169 0 -301 61q-67 31 -107.5 86.5 t-40.5 109.5zM174 -169q0 -98 106 -133q91 -31 170.5 -31t105.5 0.5t67 4t67 10t57 19.5t49 31q42 42 42 102t-40 95.5t-101.5 50.5t-121.5 21.5t-114.5 9t-65.5 5.5q-107 -40 -139 -59q-82 -48 -82 -126zM238 689q0 -117 70 -194.5t190.5 -77.5t183 79t62.5 192 t-61.5 189.5t-178.5 76.5t-191.5 -74t-74.5 -191zM433 1190v150h150v-150h-150z" />
<glyph unicode="&#x122;" horiz-adv-x="1196" d="M80 756.5q0 105.5 14 196.5t42 177t74.5 158.5t105.5 127.5q128 116 320 116q141 0 265 -85q145 -99 211 -348l-145 -36q-1 7 -2.5 19.5t-11 48.5t-22.5 68.5t-39.5 72t-59.5 68.5q-76 68 -192 68t-198 -54t-127 -148q-87 -180 -87 -438q0 -308 80 -460 q105 -200 331 -200q281 0 325 324q9 70 9 159h-337v124h482v-715h-120v192q-113 -156 -239 -192q-56 -16 -148 -16t-187.5 46t-158.5 122t-105.5 178.5t-61 211.5t-18.5 214.5zM550 -538l87 250h-65v150h150v-150q-27 -57 -76 -152t-52 -98h-44z" />
<glyph unicode="&#x123;" horiz-adv-x="955" d="M42 -188q0 54 15 84t45.5 54t53 38.5t61.5 34t47 24.5q-82 17 -124 60t-42 78.5t13.5 64.5t40.5 54q44 39 73 57t32 20q-60 51 -105.5 133.5t-45.5 181t54.5 185.5t146 136t177.5 49t138.5 -21t112.5 -62q76 62 124 71q62 13 114 14v-120h-2q-171 0 -171 -31 q51 -94 63.5 -138.5t12.5 -89.5q0 -161 -103.5 -272.5t-268.5 -111.5q-87 0 -178 38q-8 -7 -36 -27q-60 -42 -60 -84q0 -46 42 -63q32 -13 79.5 -20t67 -9.5t65.5 -3.5q112 -1 266 -38q97 -23 158.5 -92t61.5 -165q0 -286 -479 -286q-169 0 -301 61q-67 31 -107.5 86.5 t-40.5 109.5zM174 -169q0 -98 106 -133q91 -31 170.5 -31t105.5 0.5t67 4t67 10t57 19.5t49 31q42 42 42 102t-40 95.5t-101.5 50.5t-121.5 21.5t-114.5 9t-65.5 5.5q-107 -40 -139 -59q-82 -48 -82 -126zM238 689q0 -117 70 -194.5t190.5 -77.5t183 79t62.5 192 t-61.5 189.5t-178.5 76.5t-191.5 -74t-74.5 -191zM475 1115l87 250h-65v150h150v-150q-27 -57 -76 -152t-52 -98h-44z" />
<glyph unicode="&#x124;" horiz-adv-x="1204" d="M135 0v1515h148v-657h688v657h148v-1515h-148v734h-688v-734h-148zM405 1719l222 222l222 -222l-66 -64l-156 156l-157 -157z" />
<glyph unicode="&#x125;" horiz-adv-x="929" d="M129 0v1515h132v-633q148 141 243 170q49 14 102 14q115 0 189 -70t74 -210v-786h-132v786q0 75 -53.5 121.5t-115.5 46.5q-148 0 -307 -173v-781h-132zM277 1702l222 222l222 -222l-66 -64l-156 156l-157 -157z" />
<glyph unicode="&#x126;" horiz-adv-x="1204" d="M85 1050v124h50v341h148v-341h688v341h148v-341h50v-124h-50v-1050h-148v734h-688v-734h-148v1050h-50zM283 858h688v192h-688v-192z" />
<glyph unicode="&#x127;" horiz-adv-x="929" d="M22 1159v112h107v244h132v-244h285v-112h-285v-277q148 141 243 170q49 14 102 14q115 0 189 -70t74 -210v-786h-132v786q0 75 -53.5 121.5t-115.5 46.5q-148 0 -307 -173v-781h-132v1159h-107z" />
<glyph unicode="&#x128;" horiz-adv-x="368" d="M-96 1698q25 72 70 111q52 45 102.5 45t85 -14t56.5 -31q57 -46 108 -46h10q32 3 57 26t37 58l83 -40q-25 -72 -73.5 -114t-103.5 -42t-96.5 23t-78 45.5t-70.5 22.5h-10q-32 -3 -57 -26t-37 -58zM135 0v1515h148v-1515h-148z" />
<glyph unicode="&#x129;" horiz-adv-x="367" d="M-110 1232q25 72 70 111q52 45 102.5 45t85 -14t56.5 -31q57 -46 108 -46h10q32 3 57 26t37 58l83 -40q-25 -72 -73.5 -114t-103.5 -42t-96.5 23t-78 45.5t-70.5 22.5h-10q-32 -3 -57 -26t-37 -58zM129 0v1055h132v-1055h-132z" />
<glyph unicode="&#x12a;" horiz-adv-x="368" d="M-54 1654v92h527v-92h-527zM135 0v1515h148v-1515h-148z" />
<glyph unicode="&#x12b;" horiz-adv-x="367" d="M-68 1188v92h527v-92h-527zM129 0v1055h132v-1055h-132z" />
<glyph unicode="&#x12c;" horiz-adv-x="368" d="M3 1789l69 40q18 -42 57 -69t80 -27t80 27t57 69l69 -40q-65 -135 -206 -135t-206 135zM135 0v1515h148v-1515h-148z" />
<glyph unicode="&#x12d;" horiz-adv-x="367" d="M-11 1323l69 40q18 -42 57 -69t80 -27t80 27t57 69l69 -40q-65 -135 -206 -135t-206 135zM129 0v1055h132v-1055h-132z" />
<glyph unicode="&#x12e;" horiz-adv-x="368" d="M87 -188q0 96 73 198h98q-78 -96 -78 -171q0 -36 116 -45q19 -2 32 -2v-94l-36 -1q-205 0 -205 115zM135 0v1515h148v-1515h-148z" />
<glyph unicode="&#x12f;" horiz-adv-x="367" d="M73 -188q0 96 73 198h98q-78 -96 -78 -171q0 -36 116 -45q19 -2 32 -2v-94l-36 -1q-205 0 -205 115zM120 1188v150h150v-150h-150zM129 0v1055h132v-1055h-132z" />
<glyph unicode="&#x130;" horiz-adv-x="368" d="M134 1654v150h150v-150h-150zM135 0v1515h148v-1515h-148z" />
<glyph unicode="&#x131;" horiz-adv-x="367" d="M129 0v1055h132v-1055h-132z" />
<glyph unicode="&#x132;" horiz-adv-x="1264" d="M135 0v1515h148v-1515h-148zM443 244l103 53q24 -64 88 -123q27 -25 73 -45.5t97 -20.5q122 0 174.5 83.5t52.5 237.5v1086h148v-1086q0 -326 -217 -417q-69 -28 -153 -28t-150 26.5t-103 60t-65 76.5q-40 61 -48 97z" />
<glyph unicode="&#x133;" horiz-adv-x="683" d="M120 1188v150h150v-150h-150zM129 0v1055h132v-1055h-132zM308 -225q97 0 140 34t43 162v1084h132v-1055q0 -171 -42 -238q-16 -25 -29 -41.5t-37.5 -28t-40.5 -17t-47 -8.5q-42 -4 -75 -4h-36zM482 1188v150h150v-150h-150z" />
<glyph unicode="&#x134;" horiz-adv-x="846" d="M25 244l103 53q24 -64 88 -123q27 -25 73 -45.5t97 -20.5q122 0 174.5 83.5t52.5 237.5v1086h148v-1086q0 -326 -217 -417q-69 -28 -153 -28t-150 26.5t-103 60t-65 76.5q-40 61 -48 97zM465 1719l222 222l222 -222l-66 -64l-156 156l-157 -157z" />
<glyph unicode="&#x135;" horiz-adv-x="312" d="M-63 -225q97 0 140 34t43 162v1084h132v-1055q0 -171 -42 -238q-16 -25 -29 -41.5t-37.5 -28t-40.5 -17t-47 -8.5q-42 -4 -75 -4h-36zM-40 1253l222 222l222 -222l-66 -64l-156 156l-157 -157z" />
<glyph unicode="&#x136;" horiz-adv-x="1090" d="M135 0v1515h149v-824l617 824h159l-434 -569l489 -946h-166l-417 822l-248 -327v-495h-149zM539 -522l87 250h-65v150h150v-150q-27 -57 -76 -152t-52 -98h-44z" />
<glyph unicode="&#x137;" horiz-adv-x="861" d="M130 0v1515h132v-982l404 522h158l-276 -359l338 -696h-146l-282 582l-196 -243v-339h-132zM422 -522l87 250h-65v150h150v-150q-27 -57 -76 -152t-52 -98h-44z" />
<glyph unicode="&#x138;" horiz-adv-x="782" d="M120 2v1053h132v-506l382 506h134l-304 -398l343 -657h-143l-280 553l-132 -176v-375h-132z" />
<glyph unicode="&#x139;" horiz-adv-x="930" d="M135 0v1515h148v-1373h672v-142h-820zM195 1672l295 295l87 -87l-316 -273z" />
<glyph unicode="&#x13a;" horiz-adv-x="367" d="M129 -2v1517h132v-1517h-132zM181 1655l295 295l87 -87l-316 -273z" />
<glyph unicode="&#x13b;" horiz-adv-x="930" d="M135 0v1515h148v-1373h672v-142h-820zM459 -522l87 250h-65v150h150v-150q-27 -57 -76 -152t-52 -98h-44z" />
<glyph unicode="&#x13c;" horiz-adv-x="367" d="M109 -524l87 250h-65v150h150v-150q-27 -57 -76 -152t-52 -98h-44zM129 -2v1517h132v-1517h-132z" />
<glyph unicode="&#x13d;" horiz-adv-x="930" d="M135 0v1515h148v-1373h672v-142h-820zM415 1093l87 250h-65v150h150v-150q-27 -57 -76 -152t-52 -98h-44z" />
<glyph unicode="&#x13e;" horiz-adv-x="570" d="M129 -2v1517h132v-1517h-132zM378 1115l87 250h-65v150h150v-150q-27 -57 -76 -152t-52 -98h-44z" />
<glyph unicode="&#x13f;" horiz-adv-x="930" d="M135 0v1515h148v-1373h672v-142h-820zM470 691v150h150v-150h-150z" />
<glyph unicode="&#x140;" horiz-adv-x="654" d="M129 -2v1517h132v-1517h-132zM484 786v150h150v-150h-150z" />
<glyph unicode="&#x141;" horiz-adv-x="930" d="M-156 324v155l291 291v745h148v-597l305 305v-156l-305 -305v-620h672v-142h-820v615z" />
<glyph unicode="&#x142;" horiz-adv-x="606" d="M18 376v154l259 259v726h132v-594l229 229v-155l-229 -229v-768h-132v637z" />
<glyph unicode="&#x143;" horiz-adv-x="1201" d="M128 0v1515h236l611 -1154v1154h148v-1515h-127l-720 1368v-1368h-148zM612 1672l295 295l87 -87l-316 -273z" />
<glyph unicode="&#x144;" d="M120 0v1055h132v-173q88 87 167 135.5t186 48.5t181 -70t74 -210v-786h-132v786q0 75 -53.5 121.5t-115.5 46.5q-148 0 -307 -173v-781h-132zM476 1206l295 295l87 -87l-316 -273z" />
<glyph unicode="&#x145;" horiz-adv-x="1201" d="M128 0v1515h236l611 -1154v1154h148v-1515h-127l-720 1368v-1368h-148zM540 -522l87 250h-65v150h150v-150q-27 -57 -76 -152t-52 -98h-44z" />
<glyph unicode="&#x146;" d="M120 0v1055h132v-173q88 87 167 135.5t186 48.5t181 -70t74 -210v-786h-132v786q0 75 -53.5 121.5t-115.5 46.5q-148 0 -307 -173v-781h-132zM404 -522l87 250h-65v150h150v-150q-27 -57 -76 -152t-52 -98h-44z" />
<glyph unicode="&#x147;" horiz-adv-x="1201" d="M128 0v1515h236l611 -1154v1154h148v-1515h-127l-720 1368v-1368h-148zM404 1876l65 65l157 -157l156 156l66 -64l-222 -222z" />
<glyph unicode="&#x148;" d="M120 0v1055h132v-173q88 87 167 135.5t186 48.5t181 -70t74 -210v-786h-132v786q0 75 -53.5 121.5t-115.5 46.5q-148 0 -307 -173v-781h-132zM268 1410l65 65l157 -157l156 156l66 -64l-222 -222z" />
<glyph unicode="&#x149;" horiz-adv-x="1077" d="M70 1046l87 250h-65v150h150v-150q-27 -57 -76 -152t-52 -98h-44zM277 0v1055h132v-173q88 87 167 135.5t186 48.5t181 -70t74 -210v-786h-132v786q0 75 -53.5 121.5t-115.5 46.5q-148 0 -307 -173v-781h-132z" />
<glyph unicode="&#x14a;" horiz-adv-x="1201" d="M128 0v1515h236l611 -1154v1154h148v-1515q0 -212 -68 -275q-26 -24 -45 -36.5t-58 -18.5q-51 -8 -92 -8h-44l-8 112q97 0 140 35t43 181v19l-715 1359v-1368h-148z" />
<glyph unicode="&#x14b;" d="M120 0v1055h132v-173q88 87 167 135.5t186 48.5t181 -70t74 -210v-786q0 -171 -42 -238q-16 -25 -29 -41.5t-37.5 -28t-40.5 -17t-47 -8.5q-42 -4 -75 -4h-36l-8 112q97 0 140 33.5t43 191.5v786q0 75 -53.5 121.5t-115.5 46.5q-148 0 -307 -173v-781h-132z" />
<glyph unicode="&#x14c;" horiz-adv-x="1213" d="M80 753q0 115 19 224t62 211t106.5 177.5t159.5 121t211.5 45.5t208 -46.5t154 -123t103.5 -178.5q79 -192 79 -432q0 -439 -227 -652q-123 -116 -315 -116q-111 0 -205 44.5t-158.5 119t-110 174t-66.5 208t-21 223.5zM228 739q0 -119 23.5 -231.5t71 -203.5t129 -143.5 t180 -52.5t169 39.5t113.5 102.5t71 150q50 154 50 352q0 329 -121 510q-43 65 -113 105.5t-160 40.5t-161.5 -36t-118 -96.5t-77 -145.5t-43.5 -178.5t-13 -212.5zM378 1654v92h527v-92h-527z" />
<glyph unicode="&#x14d;" horiz-adv-x="922" d="M75 534.5q0 241.5 108.5 386.5t303.5 145t302.5 -146t107.5 -390t-108.5 -393t-301.5 -149q-197 0 -306 154q-106 151 -106 392.5zM207 528q0 -317 165 -402q50 -26 115 -26t115.5 26t80.5 67t49 99q33 101 33 235q0 427 -279 427t-279 -426zM224 1188v92h527v-92h-527z " />
<glyph unicode="&#x14e;" horiz-adv-x="1213" d="M80 753q0 115 19 224t62 211t106.5 177.5t159.5 121t211.5 45.5t208 -46.5t154 -123t103.5 -178.5q79 -192 79 -432q0 -439 -227 -652q-123 -116 -315 -116q-111 0 -205 44.5t-158.5 119t-110 174t-66.5 208t-21 223.5zM228 739q0 -119 23.5 -231.5t71 -203.5t129 -143.5 t180 -52.5t169 39.5t113.5 102.5t71 150q50 154 50 352q0 329 -121 510q-43 65 -113 105.5t-160 40.5t-161.5 -36t-118 -96.5t-77 -145.5t-43.5 -178.5t-13 -212.5zM435 1789l69 40q18 -42 57 -69t80 -27t80 27t57 69l69 -40q-65 -135 -206 -135t-206 135z" />
<glyph unicode="&#x14f;" horiz-adv-x="922" d="M75 534.5q0 241.5 108.5 386.5t303.5 145t302.5 -146t107.5 -390t-108.5 -393t-301.5 -149q-197 0 -306 154q-106 151 -106 392.5zM207 528q0 -317 165 -402q50 -26 115 -26t115.5 26t80.5 67t49 99q33 101 33 235q0 427 -279 427t-279 -426zM281 1323l69 40 q18 -42 57 -69t80 -27t80 27t57 69l69 -40q-65 -135 -206 -135t-206 135z" />
<glyph unicode="&#x150;" horiz-adv-x="1213" d="M80 753q0 115 19 224t62 211t106.5 177.5t159.5 121t211.5 45.5t208 -46.5t154 -123t103.5 -178.5q79 -192 79 -432q0 -439 -227 -652q-123 -116 -315 -116q-111 0 -205 44.5t-158.5 119t-110 174t-66.5 208t-21 223.5zM228 739q0 -119 23.5 -231.5t71 -203.5t129 -143.5 t180 -52.5t169 39.5t113.5 102.5t71 150q50 154 50 352q0 329 -121 510q-43 65 -113 105.5t-160 40.5t-161.5 -36t-118 -96.5t-77 -145.5t-43.5 -178.5t-13 -212.5zM432 1601l87 250h-65v150h150v-150q-27 -57 -76 -152t-52 -98h-44zM697 1601l87 250h-65v150h150v-150 q-27 -57 -76 -152t-52 -98h-44z" />
<glyph unicode="&#x151;" horiz-adv-x="922" d="M75 534.5q0 241.5 108.5 386.5t303.5 145t302.5 -146t107.5 -390t-108.5 -393t-301.5 -149q-197 0 -306 154q-106 151 -106 392.5zM207 528q0 -317 165 -402q50 -26 115 -26t115.5 26t80.5 67t49 99q33 101 33 235q0 427 -279 427t-279 -426zM276 1117l87 250h-65v150 h150v-150q-27 -57 -76 -152t-52 -98h-44zM541 1117l87 250h-65v150h150v-150q-27 -57 -76 -152t-52 -98h-44z" />
<glyph unicode="&#x152;" horiz-adv-x="1668" d="M80 753.5q0 113.5 19 220t62 206t106.5 173.5t159.5 118t214 44h971v-124h-673v-533h483v-124h-483v-601h711v-133h-1009q-111 0 -205 43t-158.5 116t-110 170t-66.5 204t-21 220.5zM228 760.5q0 -291.5 90 -447.5q43 -76 130 -129q46 -27 121 -40t113 -11t68 1t41 -1 v1258q-155 0 -216 -10q-178 -30 -262.5 -179.5t-84.5 -441z" />
<glyph unicode="&#x153;" horiz-adv-x="1565" d="M75 534.5q0 241.5 108.5 386.5t303.5 145q117 0 205.5 -56t138.5 -158q78 165 247 204q43 10 90 10t92 -11.5t96.5 -47t88.5 -93.5q86 -136 86 -401h-634q0 -267 135 -364q67 -48 149 -48q154 0 262 191l91 -63q-39 -72 -102 -130q-120 -110 -251 -110q-236 0 -350 216 q-52 -103 -139.5 -160t-195 -57t-186 41t-129.5 113q-106 151 -106 392.5zM207 528q0 -317 165 -402q50 -26 115 -26t115.5 26t80.5 67t49 99q33 101 33 235q0 427 -279 427t-279 -426zM903 625h496q0 149 -69 247q-58 82 -165 82q-175 0 -234 -162q-28 -76 -28 -167z" />
<glyph unicode="&#x154;" horiz-adv-x="1043" d="M135 0v1515h510q239 0 358 -186q65 -101 65 -212q0 -134 -64 -245q-70 -122 -228 -156l286 -716h-162l-276 692h-341v-692h-148zM283 816h376q105 0 179 66q82 73 82 228q0 206 -222 264q-66 17 -144 17h-271v-575zM376 1672l295 295l87 -87l-316 -273z" />
<glyph unicode="&#x155;" horiz-adv-x="589" d="M120 0v1055h132v-284q47 104 72 143q98 152 254 152q12 0 36 -2v-112q-68 -9 -113 -25.5t-88 -52.5q-75 -62 -161 -247v-627h-132zM353 1206l295 295l87 -87l-316 -273z" />
<glyph unicode="&#x156;" horiz-adv-x="1043" d="M135 0v1515h510q239 0 358 -186q65 -101 65 -212q0 -134 -64 -245q-70 -122 -228 -156l286 -716h-162l-276 692h-341v-692h-148zM283 816h376q105 0 179 66q82 73 82 228q0 206 -222 264q-66 17 -144 17h-271v-575zM512 -522l87 250h-65v150h150v-150q-27 -57 -76 -152 t-52 -98h-44z" />
<glyph unicode="&#x157;" horiz-adv-x="589" d="M100 -522l87 250h-65v150h150v-150q-27 -57 -76 -152t-52 -98h-44zM120 0v1055h132v-284q47 104 72 143q98 152 254 152q12 0 36 -2v-112q-68 -9 -113 -25.5t-88 -52.5q-75 -62 -161 -247v-627h-132z" />
<glyph unicode="&#x158;" horiz-adv-x="1043" d="M135 0v1515h510q239 0 358 -186q65 -101 65 -212q0 -134 -64 -245q-70 -122 -228 -156l286 -716h-162l-276 692h-341v-692h-148zM283 816h376q105 0 179 66q82 73 82 228q0 206 -222 264q-66 17 -144 17h-271v-575zM336 1876l65 65l157 -157l156 156l66 -64l-222 -222z " />
<glyph unicode="&#x159;" horiz-adv-x="589" d="M120 0v1055h132v-284q47 104 72 143q98 152 254 152q12 0 36 -2v-112q-68 -9 -113 -25.5t-88 -52.5q-75 -62 -161 -247v-627h-132zM145 1410l65 65l157 -157l156 156l66 -64l-222 -222z" />
<glyph unicode="&#x15a;" horiz-adv-x="983" d="M40 368l137 48q1 0 4.5 -17t13 -44t25.5 -60t45.5 -66t68.5 -60q86 -61 227 -61t210 77t69 189.5t-43.5 177t-152.5 109.5q-32 13 -84 31l-95 33q-247 82 -332 210q-59 89 -59 208q0 141 112 263q53 56 135 91t172.5 35t160 -24.5t112 -60.5t76.5 -83t49 -84l29 -74 q13 -35 16 -41l-130 -50q-2 5 -9.5 31.5t-13 43.5t-19 47t-28 50.5t-38 45t-50.5 39.5q-66 36 -149 36q-123 0 -200 -72.5t-77 -192.5q0 -131 68 -184q37 -29 62.5 -42t60 -25.5t50.5 -19t63 -20.5l84 -26q232 -71 319 -211q59 -95 59 -230q0 -98 -62 -205 q-77 -136 -234 -180q-59 -16 -137.5 -16t-154.5 21t-127.5 55t-93 75t-66.5 82q-46 75 -65 130zM433 1719l295 295l87 -87l-316 -273z" />
<glyph unicode="&#x15b;" horiz-adv-x="828" d="M80 200l99 64q53 -82 118 -122.5t159 -40.5q98 0 159 53q51 44 51 108t-22 102t-62 62q-67 38 -139.5 55.5t-114 32t-85.5 39.5t-76 56q-73 71 -73 187.5t93.5 193t238.5 76.5q171 0 289 -123q22 -23 37 -45l-91 -68q-7 7 -28 29.5t-27 28.5l-26 21q-18 16 -30 21l-34 12 q-32 12 -108 12t-131 -43.5t-55 -95.5t18 -83.5t54 -54.5q58 -36 134 -59t100.5 -31t66 -24.5t65 -31.5t53.5 -39.5t46 -51.5q39 -68 39 -148q0 -133 -101 -218t-234 -85t-223.5 50.5t-159.5 160.5zM412 1206l295 295l87 -87l-316 -273z" />
<glyph unicode="&#x15c;" horiz-adv-x="983" d="M40 368l137 48q1 0 4.5 -17t13 -44t25.5 -60t45.5 -66t68.5 -60q86 -61 227 -61t210 77t69 189.5t-43.5 177t-152.5 109.5q-32 13 -84 31l-95 33q-247 82 -332 210q-59 89 -59 208q0 141 112 263q53 56 135 91t172.5 35t160 -24.5t112 -60.5t76.5 -83t49 -84l29 -74 q13 -35 16 -41l-130 -50q-2 5 -9.5 31.5t-13 43.5t-19 47t-28 50.5t-38 45t-50.5 39.5q-66 36 -149 36q-123 0 -200 -72.5t-77 -192.5q0 -131 68 -184q37 -29 62.5 -42t60 -25.5t50.5 -19t63 -20.5l84 -26q232 -71 319 -211q59 -95 59 -230q0 -98 -62 -205 q-77 -136 -234 -180q-59 -16 -137.5 -16t-154.5 21t-127.5 55t-93 75t-66.5 82q-46 75 -65 130zM277 1719l222 222l222 -222l-66 -64l-156 156l-157 -157z" />
<glyph unicode="&#x15d;" horiz-adv-x="828" d="M80 200l99 64q53 -82 118 -122.5t159 -40.5q98 0 159 53q51 44 51 108t-22 102t-62 62q-67 38 -139.5 55.5t-114 32t-85.5 39.5t-76 56q-73 71 -73 187.5t93.5 193t238.5 76.5q171 0 289 -123q22 -23 37 -45l-91 -68q-7 7 -28 29.5t-27 28.5l-26 21q-18 16 -30 21l-34 12 q-32 12 -108 12t-131 -43.5t-55 -95.5t18 -83.5t54 -54.5q58 -36 134 -59t100.5 -31t66 -24.5t65 -31.5t53.5 -39.5t46 -51.5q39 -68 39 -148q0 -133 -101 -218t-234 -85t-223.5 50.5t-159.5 160.5zM204 1253l222 222l222 -222l-66 -64l-156 156l-157 -157z" />
<glyph unicode="&#x15e;" horiz-adv-x="983" d="M40 368l137 48q1 0 4.5 -17t13 -44t25.5 -60t45.5 -66t68.5 -60q86 -61 227 -61t210 77t69 189.5t-43.5 177t-152.5 109.5q-32 13 -84 31l-95 33q-249 86 -332 210q-59 89 -59 208q0 141 112 263q53 56 135 91t172.5 35t160 -24.5t112 -60.5t76.5 -83t49 -84l29 -74 q15 -38 16 -41l-130 -50q-2 5 -9.5 31.5t-13 43.5t-19 47t-28 50.5t-38 45t-50.5 39.5q-66 36 -149 36q-123 0 -200 -72.5t-77 -192.5q0 -131 68 -184q37 -29 62.5 -42t60 -25.5t50.5 -19t63 -20.5l84 -26q233 -72 319 -211q59 -95 59 -230q0 -98 -62 -205 q-77 -136 -234 -180q-34 -9 -74 -13q68 -98 68 -191q0 -115 -205 -115l-36 1v94q89 0 118.5 16t29.5 31q0 71 -71 162q-62 3 -122 20q-76 21 -127.5 55t-93 75t-66.5 82q-46 75 -65 130z" />
<glyph unicode="&#x15f;" horiz-adv-x="828" d="M80 200l99 64q53 -82 118 -122.5t159 -40.5q98 0 159 53q51 44 51 108t-22 102t-62 62q-67 38 -139.5 55.5t-114 32t-85.5 39.5t-76 56q-73 71 -73 187.5t93.5 193t238.5 76.5q171 0 289 -123q22 -23 37 -45l-91 -68q-7 7 -28 30q-21 22 -27 28l-26 21q-18 16 -30 21 l-34 12q-32 12 -108 12t-131 -43.5t-55 -95.5t18 -83.5t54 -54.5q58 -36 134 -59t100.5 -31t66 -24.5t65 -31.5t53.5 -39.5t46 -51.5q39 -68 39 -148q0 -133 -101 -218q-82 -69 -185 -82q68 -98 68 -191q0 -115 -205 -115l-36 1v94q89 0 118.5 16t29.5 31q0 72 -71 163 q-103 7 -176 49q-91 50 -160 160z" />
<glyph unicode="&#x160;" horiz-adv-x="983" d="M40 368l137 48q1 0 4.5 -17t13 -44t25.5 -60t45.5 -66t68.5 -60q86 -61 227 -61t210 77t69 189.5t-43.5 177t-152.5 109.5q-32 13 -84 31l-95 33q-247 82 -332 210q-59 89 -59 208q0 141 112 263q53 56 135 91t172.5 35t160 -24.5t112 -60.5t76.5 -83t49 -84l29 -74 q13 -35 16 -41l-130 -50q-2 5 -9.5 31.5t-13 43.5t-19 47t-28 50.5t-38 45t-50.5 39.5q-66 36 -149 36q-123 0 -200 -72.5t-77 -192.5q0 -131 68 -184q37 -29 62.5 -42t60 -25.5t50.5 -19t63 -20.5l84 -26q232 -71 319 -211q59 -95 59 -230q0 -98 -62 -205 q-77 -136 -234 -180q-59 -16 -137.5 -16t-154.5 21t-127.5 55t-93 75t-66.5 82q-46 75 -65 130zM277 1876l65 65l157 -157l156 156l66 -64l-222 -222z" />
<glyph unicode="&#x161;" horiz-adv-x="828" d="M80 200l99 64q53 -82 118 -122.5t159 -40.5q98 0 159 53q51 44 51 108t-22 102t-62 62q-67 38 -139.5 55.5t-114 32t-85.5 39.5t-76 56q-73 71 -73 187.5t93.5 193t238.5 76.5q171 0 289 -123q22 -23 37 -45l-91 -68q-7 7 -28 29.5t-27 28.5l-26 21q-18 16 -30 21l-34 12 q-32 12 -108 12t-131 -43.5t-55 -95.5t18 -83.5t54 -54.5q58 -36 134 -59t100.5 -31t66 -24.5t65 -31.5t53.5 -39.5t46 -51.5q39 -68 39 -148q0 -133 -101 -218t-234 -85t-223.5 50.5t-159.5 160.5zM204 1410l65 65l157 -157l156 156l66 -64l-222 -222z" />
<glyph unicode="&#x162;" horiz-adv-x="1012" d="M25 1391v124h1012v-124h-432v-1391h-18q66 -97 66 -188q0 -115 -205 -115l-36 1v94q89 0 118.5 16t29.5 31q0 71 -70 161h-33v1391h-432z" />
<glyph unicode="&#x163;" horiz-adv-x="556" d="M36 943v112h178v385h132v-385h242v-112h-242v-669q0 -101 31 -138t102 -37q29 0 69 5t40 6v-99q-52 -19 -102 -23q67 -97 67 -189q0 -115 -205 -115l-36 1v94q89 0 118.5 16t29.5 31q0 72 -71 163q-9 0 -15 1q-23 3 -56 19t-54 45q-50 70 -50 220v669h-178z" />
<glyph unicode="&#x164;" horiz-adv-x="1012" d="M25 1391v124h1012v-124h-432v-1391h-148v1391h-432zM309 1876l65 65l157 -157l156 156l66 -64l-222 -222z" />
<glyph unicode="&#x165;" horiz-adv-x="795" d="M36 943v112h178v385h132v-385h242v-112h-242v-669q0 -101 31 -138t102 -37q29 0 69 5t40 6v-99q-66 -24 -128.5 -24t-85.5 3t-56 19t-54 45q-50 70 -50 220v669h-178zM603 1115l87 250h-65v150h150v-150q-27 -57 -76 -152t-52 -98h-44z" />
<glyph unicode="&#x166;" horiz-adv-x="1012" d="M25 1391v124h1012v-124h-432v-500h221v-124h-221v-767h-148v767h-224v124h224v500h-432z" />
<glyph unicode="&#x167;" horiz-adv-x="556" d="M36 943v112h178v385h132v-385h242v-112h-242v-239h225v-112h-225v-318q0 -101 31 -138t102 -37q29 0 69 5t40 6v-99q-66 -24 -128.5 -24t-85.5 3t-56 19t-54 45q-50 70 -50 220v318h-167v112h167v239h-178z" />
<glyph unicode="&#x168;" horiz-adv-x="1163" d="M135 455v1060h148v-1060q0 -136 66 -229q83 -118 260 -118q264 0 313 238q12 55 12 109v1060h151v-1060q0 -164 -89 -293q-120 -178 -387 -178q-319 0 -429 254q-45 106 -45 217zM304 1698q25 72 70 111q52 45 102.5 45t85 -14t56.5 -31q57 -46 108 -46h10q32 3 57 26 t37 58l83 -40q-25 -72 -73.5 -114t-103.5 -42t-96.5 23t-78 45.5t-70.5 22.5h-10q-32 -3 -57 -26t-37 -58z" />
<glyph unicode="&#x169;" horiz-adv-x="929" d="M129 269v786h132v-786q0 -75 53.5 -121.5t115.5 -46.5q148 0 307 173v781h132v-1055h-132v174q-142 -139 -243 -170q-49 -15 -102 -15q-115 0 -189 70t-74 210zM194 1232q25 72 70 111q52 45 102.5 45t85 -14t56.5 -31q57 -46 108 -46h10q32 3 57 26t37 58l83 -40 q-25 -72 -73.5 -114t-103.5 -42t-96.5 23t-78 45.5t-70.5 22.5h-10q-32 -3 -57 -26t-37 -58z" />
<glyph unicode="&#x16a;" horiz-adv-x="1163" d="M135 455v1060h148v-1060q0 -136 66 -229q83 -118 260 -118q264 0 313 238q12 55 12 109v1060h151v-1060q0 -164 -89 -293q-120 -178 -387 -178q-319 0 -429 254q-45 106 -45 217zM345 1654v92h527v-92h-527z" />
<glyph unicode="&#x16b;" horiz-adv-x="929" d="M129 269v786h132v-786q0 -75 53.5 -121.5t115.5 -46.5q148 0 307 173v781h132v-1055h-132v174q-142 -139 -243 -170q-49 -15 -102 -15q-115 0 -189 70t-74 210zM236 1188v92h527v-92h-527z" />
<glyph unicode="&#x16c;" horiz-adv-x="1163" d="M135 455v1060h148v-1060q0 -136 66 -229q83 -118 260 -118q264 0 313 238q12 55 12 109v1060h151v-1060q0 -164 -89 -293q-120 -178 -387 -178q-319 0 -429 254q-45 106 -45 217zM403 1789l69 40q18 -42 57 -69t80 -27t80 27t57 69l69 -40q-65 -135 -206 -135t-206 135z " />
<glyph unicode="&#x16d;" horiz-adv-x="929" d="M129 269v786h132v-786q0 -75 53.5 -121.5t115.5 -46.5q148 0 307 173v781h132v-1055h-132v174q-142 -139 -243 -170q-49 -15 -102 -15q-115 0 -189 70t-74 210zM293 1323l69 40q18 -42 57 -69t80 -27t80 27t57 69l69 -40q-65 -135 -206 -135t-206 135z" />
<glyph unicode="&#x16e;" horiz-adv-x="1163" d="M135 455v1060h148v-1060q0 -136 66 -229q83 -118 260 -118q264 0 313 238q12 55 12 109v1060h151v-1060q0 -164 -89 -293q-120 -178 -387 -178q-319 0 -429 254q-45 106 -45 217zM337 1916q0 106 74.5 180.5t180.5 74.5t180.5 -74.5t74.5 -180.5t-74.5 -180.5 t-180.5 -74.5t-180.5 74.5t-74.5 180.5zM433 1916q0 -65 46.5 -111.5t111.5 -46.5t111.5 46.5t46.5 111.5t-46.5 111.5t-111.5 46.5t-111.5 -46.5t-46.5 -111.5z" />
<glyph unicode="&#x16f;" horiz-adv-x="929" d="M129 269v786h132v-786q0 -75 53.5 -121.5t115.5 -46.5q148 0 307 173v781h132v-1055h-132v174q-142 -139 -243 -170q-49 -15 -102 -15q-115 0 -189 70t-74 210zM227 1375q0 106 74.5 180.5t180.5 74.5t180.5 -74.5t74.5 -180.5t-74.5 -180.5t-180.5 -74.5t-180.5 74.5 t-74.5 180.5zM323 1375q0 -65 46.5 -111.5t111.5 -46.5t111.5 46.5t46.5 111.5t-46.5 111.5t-111.5 46.5t-111.5 -46.5t-46.5 -111.5z" />
<glyph unicode="&#x170;" horiz-adv-x="1163" d="M135 455v1060h148v-1060q0 -136 66 -229q83 -118 260 -118q264 0 313 238q12 55 12 109v1060h151v-1060q0 -164 -89 -293q-120 -178 -387 -178q-319 0 -429 254q-45 106 -45 217zM405 1531l87 250h-65v150h150v-150q-27 -57 -76 -152t-52 -98h-44zM670 1531l87 250h-65 v150h150v-150q-27 -57 -76 -152t-52 -98h-44z" />
<glyph unicode="&#x171;" horiz-adv-x="929" d="M129 269v786h132v-786q0 -75 53.5 -121.5t115.5 -46.5q148 0 307 173v781h132v-1055h-132v174q-142 -139 -243 -170q-49 -15 -102 -15q-115 0 -189 70t-74 210zM320 1115l87 250h-65v150h150v-150q-27 -57 -76 -152t-52 -98h-44zM585 1115l87 250h-65v150h150v-150 q-27 -57 -76 -152t-52 -98h-44z" />
<glyph unicode="&#x172;" horiz-adv-x="1163" d="M135 455v1060h148v-1060q0 -136 66 -229q83 -118 260 -118q264 0 313 238q12 55 12 109v1060h151v-1060q0 -160 -88 -291q-111 -165 -346 -179q-71 -84 -71 -162q0 -36 116 -45q19 -2 32 -2v-94q-1 0 -16 -0.5t-26 0.5l-34 1q-71 3 -97.5 19t-40.5 28q-27 23 -27 66 q0 93 67 190q-231 19 -336 184q-83 128 -83 285z" />
<glyph unicode="&#x173;" horiz-adv-x="929" d="M129 269v786h132v-786q0 -75 53.5 -121.5t115.5 -46.5q148 0 307 173v781h132v-1055h-132v174q-142 -139 -243 -170q-49 -15 -102 -15q-115 0 -189 70t-74 210zM681 -199q0 96 73 198h98q-78 -96 -78 -171q0 -36 116 -45q19 -2 32 -2v-94l-36 -1q-205 0 -205 115z" />
<glyph unicode="&#x174;" horiz-adv-x="1564" d="M25 1515h154l259 -1198h10l274 1198h170l274 -1198h10l259 1198h154l-351 -1515h-152l-274 1198h-10l-274 -1198h-152zM585 1719l222 222l222 -222l-66 -64l-156 156l-157 -157z" />
<glyph unicode="&#x175;" horiz-adv-x="1266" d="M25 1055h123l232 -795l208 795h120l226 -800l222 800h135l-301 -1055h-118l-224 809l-201 -809h-135zM436 1253l222 222l222 -222l-66 -64l-156 156l-157 -157z" />
<glyph unicode="&#x176;" horiz-adv-x="1072" d="M25 1515h154l382 -713l382 713h154l-462 -855v-660h-148v660zM339 1719l222 222l222 -222l-66 -64l-156 156l-157 -157z" />
<glyph unicode="&#x177;" horiz-adv-x="855" d="M25 1055h142l299 -859l280 859h134l-368 -1119q-57 -171 -114 -232q-63 -66 -124 -81.5t-124 -15.5t-123 8l10 121q36 -17 96 -17t99 15.5t64 40t45.5 54t32.5 59.5q21 56 30 109zM230 1253l222 222l222 -222l-66 -64l-156 156l-157 -157z" />
<glyph unicode="&#x178;" horiz-adv-x="1072" d="M25 1515h154l382 -713l382 713h154l-462 -855v-660h-148v660zM326 1654v150h150v-150h-150zM645 1654v150h150v-150h-150z" />
<glyph unicode="&#x179;" horiz-adv-x="1092" d="M68 0v107l825 1280h-771v128h952v-123l-794 -1250h788v-142h-1000zM532 1672l295 295l87 -87l-316 -273z" />
<glyph unicode="&#x17a;" horiz-adv-x="729" d="M25 0v85l560 858h-507v112h676v-74l-568 -861h568v-120h-729zM402 1206l295 295l87 -87l-316 -273z" />
<glyph unicode="&#x17b;" horiz-adv-x="1092" d="M68 0v107l825 1280h-771v128h952v-123l-794 -1250h788v-142h-1000zM521 1654v150h150v-150h-150z" />
<glyph unicode="&#x17c;" horiz-adv-x="729" d="M25 0v85l560 858h-507v112h676v-74l-568 -861h568v-120h-729zM341 1188v150h150v-150h-150z" />
<glyph unicode="&#x17d;" horiz-adv-x="1092" d="M68 0v107l825 1280h-771v128h952v-123l-794 -1250h788v-142h-1000zM376 1876l65 65l157 -157l156 156l66 -64l-222 -222z" />
<glyph unicode="&#x17e;" horiz-adv-x="729" d="M25 0v85l560 858h-507v112h676v-74l-568 -861h568v-120h-729zM194 1410l65 65l157 -157l156 156l66 -64l-222 -222z" />
<glyph unicode="&#x17f;" horiz-adv-x="567" d="M13 943v112h173q0 274 125 383q100 87 293 87v-120q-134 0 -199 -77q-81 -94 -81 -449v-879h-139v943h-172z" />
<glyph unicode="&#x180;" horiz-adv-x="944" d="M22 1168v112h98v235h132v-235h294v-112h-294v-251q19 41 99 95t172 54q180 0 288 -154.5t108 -401.5q0 -147 -55 -278q-64 -150 -182 -210q-66 -33 -135 -33t-120 20t-86 52q-59 54 -89 105q0 -154 -25 -166h-133q26 55 26 146v1022h-98zM252 278q101 -139 178 -164 q38 -13 97 -13t112.5 31.5t84.5 87.5q63 113 63 290q0 444 -298 444q-131 0 -237 -151v-525z" />
<glyph unicode="&#x181;" horiz-adv-x="1082" d="M-58 1350q0 92 48.5 128.5t144.5 36.5h473q183 0 302 -104.5t119 -258.5q0 -255 -178 -326q-31 -13 -77 -26q164 -42 246 -197q44 -85 44 -193q0 -187 -117 -298.5t-339 -111.5h-473v1419q-58 0 -74.5 -13.5t-16.5 -59t6 -69.5l-102 13q-6 33 -6 60zM283 124h325 q163 0 238 68q32 29 55 85t23 133q0 142 -87 229t-229 87h-325v-602zM283 853h325q140 0 212 71q30 29 52.5 88t22.5 140q0 117 -73.5 178t-213.5 61h-325v-538z" />
<glyph unicode="&#x182;" horiz-adv-x="1082" d="M135 0v1515h906v-124h-758v-538h325q190 0 319 -103q137 -111 137 -340q0 -187 -117 -298.5t-339 -111.5h-473zM283 124h325q163 0 238 68q32 29 55 85t23 133q0 142 -87 229t-229 87h-325v-602z" />
<glyph unicode="&#x183;" horiz-adv-x="944" d="M94 0q26 55 26 146v1369h656v-112h-524v-486q19 41 99 95t172 54q180 0 288 -154.5t108 -401.5q0 -147 -55 -278q-64 -150 -182 -210q-66 -33 -135 -33t-120 20t-86 52q-59 54 -89 105q0 -154 -25 -166h-133zM252 278q101 -139 178 -164q38 -13 97 -13t112.5 31.5 t84.5 87.5q63 113 63 290q0 444 -298 444q-131 0 -237 -151v-525z" />
<glyph unicode="&#x184;" horiz-adv-x="1077" d="M-32 1422q142 0 142 93h148v-771q11 23 31 45l39 46q33 37 85 62q85 43 184 43q203 0 329 -126.5t126 -335.5q0 -142 -72 -267q-79 -137 -218 -192q-76 -30 -166 -30q-224 0 -355 182t-131 507v645q-28 -9 -67.5 -9t-61.5 6zM270 515q22 -306 218 -382q51 -20 106.5 -20 t107.5 20t98 61q104 91 104 266t-83 265.5t-224 90.5q-154 0 -247 -115q-52 -64 -80 -186z" />
<glyph unicode="&#x185;" horiz-adv-x="961" d="M110 594v921h132v-855q21 77 107 138q73 52 188 52q187 0 293 -115t106 -318q0 -220 -137 -341q-99 -87 -252 -87t-245 59q-192 124 -192 546zM254 431q14 -240 190 -311q45 -19 87 -19t75.5 7t71 27.5t64.5 54.5q62 76 62 227q0 321 -267 321q-161 0 -237 -150 q-25 -48 -41 -131z" />
<glyph unicode="&#x186;" horiz-adv-x="1124" d="M80 1076q4 11 18.5 54t24.5 70t32.5 73.5t45 77.5t60 68.5t79.5 59.5q101 53 207 53t178.5 -24t126.5 -65.5t97.5 -100t72.5 -126t48 -145t27.5 -155.5t8.5 -175.5t-17.5 -205t-58.5 -209t-102 -176.5t-153.5 -120.5t-188.5 -45.5t-163.5 24.5t-113.5 63.5t-84 86.5 t-60 95.5q-46 99 -57 150l-6 24v1l152 41q16 -114 40.5 -166.5t49 -86t54.5 -56.5q71 -53 170 -53q390 0 390 649q0 278 -82 454q-93 197 -308 197q-176 0 -274 -138q-68 -97 -68 -217z" />
<glyph unicode="&#x187;" horiz-adv-x="1124" d="M80 732q0 141 17.5 248.5t58.5 209t102 176.5t153.5 120.5t206.5 45.5q210 0 343 -174q19 164 146 164q66 0 119 -31l-14 -101q-12 8 -46 18.5t-63.5 10.5t-48.5 -22q-32 -36 -32 -99q0 -38 46 -167l16 -43v-1l-152 -41q-16 114 -40.5 166.5t-49 86t-54.5 56.5 q-71 53 -170 53q-390 0 -390 -649q0 -278 82 -454q93 -197 308 -197q78 0 140 27.5t98 67t60 91.5q42 86 44 169l146 -23q-4 -11 -18.5 -54t-24.5 -70t-32.5 -73.5t-45 -77.5t-60 -68.5t-79.5 -59.5q-101 -53 -207 -53t-178.5 24t-126.5 65.5t-97.5 100t-72.5 126t-48 144.5 q-36 147 -36 288z" />
<glyph unicode="&#x188;" horiz-adv-x="876" d="M75 520q0 546 425 546q152 0 249 -114q7 72 41.5 120.5t99.5 48.5t124 -31l-14 -102q-12 8 -46 19t-63.5 11t-49 -22t-25.5 -47t-6 -61.5t16 -74.5l-106 -48q-2 20 -21.5 59t-41.5 64t-63.5 45.5t-93.5 20.5q-293 0 -293 -425q0 -206 77.5 -317t215.5 -111q95 0 158 73 q55 63 74 112l9 22l104 -50q-35 -97 -115 -176q-36 -35 -98 -64t-132 -29q-218 0 -321.5 139.5t-103.5 391.5z" />
<glyph unicode="&#x189;" horiz-adv-x="1174" d="M9 676v136h128v703h361q155 0 273 -43t190 -113.5t117 -172.5q78 -178 78 -441q0 -394 -218 -595q-161 -150 -440 -150h-361v676h-128zM285 124h213q256 0 386 172q124 165 124 449q0 434 -220 574q-113 72 -290 72h-213v-579h324v-136h-324v-552z" />
<glyph unicode="&#x18a;" horiz-adv-x="1164" d="M-59 1353q0 74 40.5 119.5t114.5 45.5l400 -3q502 0 614 -446q36 -144 36 -294t-21 -256t-69.5 -202.5t-121.5 -165.5q-161 -151 -438 -151h-361v1447q-92 0 -92 -105q0 -38 6 -62l-102 13q-6 33 -6 60zM283 124h213q327 0 444 279q58 140 58 342q0 359 -138 512 q-54 59 -146.5 96.5t-217.5 37.5h-213v-1267z" />
<glyph unicode="&#x18b;" horiz-adv-x="1164" d="M68 517q0 115 16 192t59 145t115 110q155 91 460 91h213v334h-758v126h906v-1515h-361q-354 0 -506 142q-144 134 -144 375zM216 558q0 -84 4.5 -126t18 -85.5t36 -75.5t60.5 -61t91 -47q113 -39 292 -39h213v807h-213q-214 0 -322 -57q-111 -58 -146 -146 q-34 -86 -34 -170z" />
<glyph unicode="&#x18c;" horiz-adv-x="934" d="M75 510q0 147 47.5 273t139.5 204.5t196.5 78.5t184.5 -54t99 -95v486h-524v112h656v-1369q0 -30 8.5 -78.5t17.5 -67.5h-133q-25 12 -25 166q-102 -177 -284 -177q-91 0 -166 45.5t-121 120.5q-96 157 -96 355zM207 510q0 -177 63 -290q66 -119 209 -119q95 0 156 54 q49 43 107 123v525q-106 151 -237 151q-298 0 -298 -444z" />
<glyph unicode="&#x18d;" horiz-adv-x="1031" d="M55 999q0 207 132 366q60 73 147 117t183 44q201 0 335 -149t134 -385t-130 -379t-339 -143h-5l401 -346v-124h-777v124h603l-514 445q-44 39 -87 119q-83 157 -83 311zM187 982.5q0 -172.5 87 -286.5t242.5 -114t246.5 113t91 308t-120 321q-86 90 -217 90 q-81 0 -146 -36.5t-104 -97.5q-80 -125 -80 -297.5z" />
<glyph unicode="&#x18e;" horiz-adv-x="1012" d="M135 0v133h711v601h-483v124h483v533h-673v124h821v-1515h-859z" />
<glyph unicode="&#x18f;" horiz-adv-x="1229" d="M103 1186q43 81 108 147.5t119 104.5q128 90 261.5 90t232.5 -40.5t167.5 -109.5t116 -163t69.5 -199.5t22 -231.5t-20 -242t-53 -197.5t-80 -144.5t-97 -101.5t-107 -63.5q-99 -43 -213 -43q-244 0 -381 194q-141 199 -141 595h953q0 393 -198 542q-108 81 -256 81 q-224 0 -384 -289q-4 -6 -5 -8zM246 657q0 -128 38.5 -232.5t80 -165.5t110.5 -102t151.5 -41t149 28t111 74.5t78 103t51.5 118.5q35 122 35 217h-805z" />
<glyph unicode="&#x190;" horiz-adv-x="1059" d="M70 417q0 231 237 375q-131 85 -173 244q-15 54 -15 113q0 101 59.5 188.5t157.5 138.5t229.5 51t246.5 -58.5t188 -142.5l-96 -93q-47 61 -143 106t-208 45t-202.5 -64.5t-90.5 -182.5t69.5 -196.5t202.5 -78.5h213v-141h-213q-144 0 -232 -84.5t-88 -229.5 q0 -90 50 -154q96 -121 298 -121q91 0 164 28.5t106.5 57t69.5 64.5l40 42l101 -87q-195 -248 -481 -248q-222 0 -356 110t-134 318z" />
<glyph unicode="&#x191;" horiz-adv-x="974" d="M-41 -155l5 102q44 -20 99 -20q72 0 72 73v1515h821v-124h-673v-533h483v-124h-483v-734q0 -92 -50.5 -134t-170.5 -42q-55 0 -103 21z" />
<glyph unicode="&#x192;" horiz-adv-x="520" d="M-53 -114h89q88 0 117 26q33 29 33 88v943h-173v112h173v223q0 163 141 220q66 26 143.5 26t86.5 -9v-111h-89q-150 0 -150 -126v-223h239v-112h-239v-943q0 -234 -289 -234q-73 0 -82 9v111z" />
<glyph unicode="&#x193;" horiz-adv-x="1196" d="M80 756.5q0 105.5 14 196.5t42 177t74.5 158.5t105.5 127.5q128 116 320 116q260 0 400 -242q76 35 94 60t12.5 51.5t-36.5 56.5t-50 40l81 63q33 -20 70 -63.5t37 -87.5t-23 -79t-59 -60q-51 -36 -87 -53l-6 5q27 -62 43 -124l-145 -36q-1 7 -2.5 19.5t-11 48.5 t-22.5 68.5t-39.5 72t-59.5 68.5q-76 68 -192 68t-198 -54t-127 -148q-87 -180 -87 -438q0 -308 80 -460q105 -200 331 -200q281 0 325 324q9 70 9 159h-337v124h482v-715h-120v192q-113 -156 -239 -192q-56 -16 -148 -16t-187.5 46t-158.5 122t-105.5 178.5t-61 211.5 t-18.5 214.5z" />
<glyph unicode="&#x194;" horiz-adv-x="851" d="M25 1514h138q-19 -19 21.5 -182.5t110.5 -331.5l155 -334l156 334q88 206 130 400q11 54 11 81.5t-9 32.5h138q18 -16 -21 -180.5t-105 -333.5l-197 -450q73 -48 128.5 -130t55.5 -159q0 -117 -83 -194.5t-203 -77.5t-203 77.5t-83 194.5q0 77 55.5 159t128.5 130 l-196 450q-66 170 -105.5 334.5t-22.5 179.5zM282 267.5q0 -73.5 47 -117t121 -43.5t121 43.5t47 117t-48.5 133t-119.5 59.5t-119.5 -59.5t-48.5 -133z" />
<glyph unicode="&#x195;" horiz-adv-x="1503" d="M129 0v1515h132v-633q148 141 243 170q49 14 110 14t110.5 -25t77.5 -64.5t44 -102.5q27 -101 27 -267v-112q0 -181 16.5 -229.5t33.5 -78.5t41 -47q57 -39 120 -39t103.5 13t76.5 40q83 59 83 182q0 251 -77 719h131q78 -459 78 -719q0 -111 -54 -192 q-104 -155 -318 -155q-187 0 -277 91q-37 39 -56.5 114t-24 140t-4.5 177v106q0 248 -87 311q-36 26 -90 26q-148 0 -307 -173v-781h-132z" />
<glyph unicode="&#x196;" horiz-adv-x="368" d="M135 0v1515h148v-1515h-148z" />
<glyph unicode="&#x197;" horiz-adv-x="510" d="M18 762v136h190v617h148v-617h186v-136h-186v-762h-148v762h-190z" />
<glyph unicode="&#x198;" horiz-adv-x="1124" d="M135 0v1515h149v-824l227 304q289 386 360 465t140 79q128 0 212 -145l-85 -69q-65 90 -126 90q-22 0 -46.5 -27.5t-138.5 -177.5l-201 -264l489 -946h-166l-417 822l-248 -327v-495h-149z" />
<glyph unicode="&#x199;" horiz-adv-x="861" d="M130 0v1260q0 291 128 398q91 77 212 53q25 -5 44 -13l-32 -95q-77 22 -138 -39q-82 -82 -82 -304v-728l404 523h158l-276 -359l338 -696h-146l-282 582l-196 -243v-339h-132z" />
<glyph unicode="&#x19a;" horiz-adv-x="524" d="M25 684v112h195v719h132v-719h197v-112h-197v-686h-132v686h-195z" />
<glyph unicode="&#x19b;" horiz-adv-x="855" d="M25 0l376 1050l-65 199l-147 -85l-56 96l168 97l-53 158h135l31 -93l173 100l56 -96l-194 -112l431 -1314h-134l-280 859l-299 -859h-142z" />
<glyph unicode="&#x19c;" horiz-adv-x="1560" d="M135 269v1246h148v-1246q0 -80 45.5 -121t107.5 -41q145 0 298 159v1249h148v-1246q0 -76 49.5 -119t111.5 -43q139 0 291 150v1258h148v-1515h-148v158q-146 -137 -234 -162q-45 -13 -118 -13t-145 47.5t-94 143.5q-95 -89 -132 -116q-102 -75 -214.5 -75t-187 72.5 t-74.5 213.5z" />
<glyph unicode="&#x19d;" horiz-adv-x="1201" d="M-39 -226q81 0 124 35t43 181v1525h236l611 -1154v1154h148v-1515h-127l-720 1368v-1368q0 -212 -68 -275q-26 -24 -45 -36.5t-57 -18.5q-52 -8 -93 -8h-44z" />
<glyph unicode="&#x19e;" d="M120 0v1055h132v-173q88 87 167 135.5t186 48.5t181 -70t74 -210v-1196h-132v1196q0 75 -53.5 121.5t-115.5 46.5q-148 0 -307 -173v-781h-132z" />
<glyph unicode="&#x19f;" horiz-adv-x="1213" d="M80 753q0 115 19 224t62 211t106.5 177.5t159.5 121t211.5 45.5t208 -46.5t154 -123t103.5 -178.5q79 -192 79 -432q0 -439 -227 -652q-123 -116 -315 -116q-111 0 -205 44.5t-158.5 119t-110 174t-66.5 208t-21 223.5zM228 744h807v8q0 329 -121 510q-43 65 -113 105.5 t-160 40.5t-161.5 -36t-118 -96.5t-77.5 -145.5q-56 -157 -56 -378v-8zM234 620q40 -390 268 -486q63 -26 139.5 -26t139 29t104.5 77t73 116q54 117 71 290h-795z" />
<glyph unicode="&#x1a0;" horiz-adv-x="1213" d="M80 752q0 244 81 436q91 215 266 298q96 46 214 46q260 0 407 -236q155 68 58 162q-31 30 -50 40l81 63q33 -20 70 -63.5t37 -94.5q0 -97 -157 -179q96 -202 96 -472q0 -439 -227 -652q-123 -116 -315 -116q-111 0 -205 44.5t-158.5 119t-109.5 174.5q-88 191 -88 430z M228 739q0 -119 23.5 -231.5t71 -203.5t129 -143.5t180 -52.5t169 39.5t113.5 102.5t71 150q50 154 50 352q0 329 -121 510q-43 65 -113 105.5t-160 40.5t-161.5 -36t-118 -96.5t-77 -145.5t-43.5 -178.5t-13 -212.5z" />
<glyph unicode="&#x1a1;" horiz-adv-x="922" d="M75 534.5q0 241.5 108.5 386.5t316.5 145t316 -187q101 45 101 112q0 28 -35 64.5t-55 47.5l81 63q33 -20 70 -63.5t37 -87.5t-23 -79t-58 -60q-52 -36 -88 -53l-3 2q54 -123 54 -298q0 -241 -108.5 -390t-301.5 -149q-197 0 -306 154q-106 151 -106 392.5zM207 528 q0 -317 165 -402q50 -26 115 -26t115.5 26t80.5 67t49 99q33 101 33 235q0 427 -279 427t-279 -426z" />
<glyph unicode="&#x1a2;" horiz-adv-x="1587" d="M80 753q0 115 19 224t62 211t106.5 177.5t159.5 121t214 45.5q172 0 297 -106q86 107 238.5 107t239 -92t86.5 -229v-1209h-148v1209q0 77 -52 139t-127.5 62t-152.5 -79q81 -110 121 -264t40 -284t-13 -221t-40 -178t-71 -159.5t-103 -127.5q-123 -116 -315 -116 q-111 0 -205 44.5t-158.5 119t-110 174t-66.5 208t-21 223.5zM228 739q0 -119 23.5 -231.5t71 -203.5t129 -143.5t180 -52.5t169 39.5t113.5 102.5t71 150q50 154 50 352q0 329 -121 510q-43 65 -113 105.5t-160 40.5t-161.5 -36t-118 -96.5t-77 -145.5t-43.5 -178.5 t-13 -212.5z" />
<glyph unicode="&#x1a3;" horiz-adv-x="1329" d="M75 534.5q0 241.5 108.5 386.5t303.5 145q68 0 146.5 -26.5t120.5 -76.5q13 26 44 53q61 52 172 52q65 0 114.5 -21t74.5 -51q52 -61 61 -110l3 -21v-1057h-132v1057q-23 93 -121 93q-63 0 -99.5 -31.5t-46.5 -60.5q73 -142 73 -361t-108.5 -368t-301.5 -149 q-197 0 -306 154q-106 151 -106 392.5zM207 528q0 -317 165 -402q50 -26 115 -26t115.5 26t80.5 67t49 99q33 101 33 235q0 427 -279 427t-279 -426z" />
<glyph unicode="&#x1a4;" horiz-adv-x="1086" d="M-58 1350q0 92 48.5 128.5t144.5 36.5h529q235 0 346 -186q58 -98 58 -195.5t-22 -170t-67.5 -135t-126.5 -99.5t-188 -37h-381v-692h-148v1419q-58 0 -74.5 -13.5t-16.5 -59t6 -69.5l-102 13q-6 33 -6 60zM283 816h280q162 0 259.5 71t97.5 217t-98 216.5t-259 70.5 h-280v-575z" />
<glyph unicode="&#x1a5;" horiz-adv-x="965" d="M129 -410v1465h132v-164q24 45 79 90q104 85 219 85t205 -77q-6 192 134 201q66 3 118 -20v-102q-32 15 -81.5 18.5t-67.5 -10.5t-28 -38t-11 -44.5t3 -45.5q3 -22 11 -48q98 -144 98 -353q0 -276 -135 -439q-98 -119 -261 -119q-92 0 -178 55.5t-105 95.5v-550h-132z M261 254q46 -66 112 -109.5t125.5 -43.5t100 11.5t80 42t67.5 79.5q62 108 62 313q0 250 -116 352q-62 55 -156 55q-126 0 -220 -106q-24 -27 -55 -69v-525z" />
<glyph unicode="&#x1a6;" horiz-adv-x="1043" d="M135 0v1648h148v-134h362q238 0 358 -186q65 -100 65 -211q0 -134 -64 -245q-70 -122 -228 -156l451 -1130h-162l-441 1106h-341v-692h-148zM283 816h376q105 0 179 66q82 73 82 228q0 206 -222 264q-66 17 -144 17h-271v-575z" />
<glyph unicode="&#x1a7;" horiz-adv-x="983" d="M40 407q0 48 16.5 107t42.5 101t65.5 77.5t78 57.5t88 43t87.5 33l84 26q140 43 199 78q105 64 105 198.5t-77 207t-200 72.5q-152 0 -237 -120q-34 -48 -51 -108t-19 -65l-130 50q3 6 16 41l29 74q37 92 125 167q101 85 267 85q96 0 178 -35t135 -91q112 -122 112 -263 q0 -224 -205 -337q-88 -48 -158 -72l-123 -42q-52 -18 -84 -31q-109 -45 -152.5 -109.5t-43.5 -177t69 -189.5t207 -77q190 0 298 121q64 71 84 170q4 17 5 17l137 -48l-8 -21q-64 -181 -224 -287q-116 -76 -292 -76q-192 0 -307 122q-117 124 -117 301z" />
<glyph unicode="&#x1a8;" horiz-adv-x="828" d="M80 290.5q0 131.5 82.5 199t259.5 120.5t216 122q18 31 18 83t-55 95.5t-141 43.5q-66 0 -93 -10l-39 -14q-12 -5 -30 -21l-26 -21q-6 -6 -27 -28.5t-28 -29.5l-91 68q32 47 85 88q104 80 245 80t234.5 -76.5t93.5 -205.5q0 -146 -149 -231q-72 -41 -147.5 -59 t-113 -31.5t-78.5 -36.5q-84 -50 -84 -149q0 -111 102 -155q50 -21 126 -21q154 0 259 163l99 -64q-69 -110 -159.5 -160.5t-223.5 -50.5t-234 85t-101 216.5z" />
<glyph unicode="&#x1a9;" horiz-adv-x="1086" d="M68 0v107l412 637l-412 648v127h952v-132h-771l415 -643l-384 -602h788v-142h-1000z" />
<glyph unicode="&#x1aa;" horiz-adv-x="614" d="M13 1539.5q0 66.5 46.5 116t128.5 49.5q158 0 204 -150l2 -1l-1 -2q21 -71 21 -152l-2 -142v-1258q0 -88 69 -106q31 -8 81 -8h89v-111q-9 -9 -82 -9q-289 0 -289 234v1278q0 19 -0.5 52t-0.5 48q-31 -6 -101.5 -6t-117.5 50.5t-47 117zM111 1541q0 -25 21.5 -49 t70.5 -24t71 9q-12 126 -81 126q-37 0 -59.5 -18.5t-22.5 -43.5z" />
<glyph unicode="&#x1ab;" horiz-adv-x="556" d="M36 943v112h178v385h132v-385h242v-112h-242v-669q0 -101 31 -138t102 -37q29 0 69 5t40 6q0 -36 12 -110.5t8.5 -126t-31 -84.5t-71.5 -44q-59 -15 -124 -4l-12 100q10 -6 71 -0.5t79 27.5q35 45 6 125q-35 -6 -82 -6t-70 3t-56 19t-54 45q-50 70 -50 220v669h-178z" />
<glyph unicode="&#x1ac;" horiz-adv-x="1012" d="M0 1322q0 96 51 144.5t142 48.5h844v-124h-432v-1391h-148v1391h-264q-58 0 -74.5 -13t-16.5 -58.5t6 -69.5h-98q-10 37 -10 72z" />
<glyph unicode="&#x1ad;" horiz-adv-x="556" d="M36 943v112h178v385q0 97 48.5 132t121 35t120.5 -21l-5 -102q-44 20 -88.5 20t-54.5 -14t-10 -50v-385h242v-112h-242v-669q0 -101 31 -138t102 -37q29 0 69 5t40 6v-99q-66 -24 -128.5 -24t-85.5 3t-56 19t-54 45q-50 70 -50 220v669h-178z" />
<glyph unicode="&#x1ae;" horiz-adv-x="1012" d="M25 1391v124h1012v-124h-432v-1391q0 -146 43 -181t124 -35l-8 -112h-7q-147 0 -187 26q-65 43 -80 88q-33 99 -33 224v1381h-432z" />
<glyph unicode="&#x1af;" horiz-adv-x="1197" d="M135 455v1060h148v-1060q0 -136 66 -229q83 -118 260 -118q263 0 311 238q11 52 11 109v1060h154v-80q44 9 82.5 39.5t32 64.5t-31.5 74.5t-38 47.5l90 30q27 -16 53.5 -54.5t26.5 -90.5q0 -130 -215 -197v-894q0 -164 -89 -293q-120 -178 -387 -178q-319 0 -429 254 q-45 106 -45 217z" />
<glyph unicode="&#x1b0;" horiz-adv-x="929" d="M129 269v786h132v-786q0 -75 53.5 -121.5t115.5 -46.5q148 0 307 173v781h132v-57q92 19 110 78q8 28 -16 71t-42 61l95 40q40 -42 55.5 -94t6.5 -86.5t-39 -61.5t-68 -42q-61 -24 -102 -31v-933h-132v174q-142 -139 -243 -170q-49 -15 -102 -15q-115 0 -189 70t-74 210z " />
<glyph unicode="&#x1b1;" horiz-adv-x="1305" d="M80 690q0 206 56.5 391.5t159.5 291.5h-216v142h433v-142q-71 -34 -128 -108.5t-90 -167.5q-67 -190 -67 -383q0 -235 103 -413q51 -89 138 -141.5t199.5 -52.5t201 46.5t144.5 129.5q113 167 113 407t-79.5 429.5t-218.5 253.5v142h446v-142h-230q107 -107 168.5 -292.5 t61.5 -334.5t-23.5 -256t-73 -199.5t-120.5 -161.5q-152 -146 -390 -146q-329 0 -493 316q-95 185 -95 391z" />
<glyph unicode="&#x1b2;" horiz-adv-x="1072" d="M25 1515h154l373 -1256q299 700 370 1003q35 147 35 247q0 26 -26 49q-36 33 -87 50l40 123q93 -19 135 -47q85 -58 85 -137.5t-14 -178t-48 -222.5l-62 -217q-27 -92 -85 -247l-85 -226l-181 -456h-154z" />
<glyph unicode="&#x1b3;" horiz-adv-x="1072" d="M-140 1394l10 20q36 68 67 89q133 94 239 -23q58 -63 107 -154l278 -524l382 713h154l-462 -855v-660h-148v660q-41 71 -153 291.5t-186 340t-115 119.5q-31 0 -51.5 -18.5t-41.5 -62.5z" />
<glyph unicode="&#x1b4;" horiz-adv-x="855" d="M25 1055h142l299 -859l244 751q30 94 78 144t128 50q128 0 208 -137l-97 -62q-49 82 -103.5 82t-79.5 -77l-332 -1011q-57 -171 -114 -232q-63 -66 -124 -81.5t-124 -15.5t-123 8l10 121q36 -17 96 -17t99 15.5t64 40t45.5 54t32.5 59.5q21 56 30 109z" />
<glyph unicode="&#x1b5;" horiz-adv-x="1092" d="M68 0v107l373 579h-325v124h405l372 577h-771v128h952v-123l-370 -582h340v-124h-418l-346 -544h788v-142h-1000z" />
<glyph unicode="&#x1b6;" horiz-adv-x="729" d="M25 0v85l254 389h-157v112h230l233 357h-507v112h676v-74l-261 -395h153v-112h-226l-234 -354h568v-120h-729z" />
<glyph unicode="&#x1b7;" horiz-adv-x="1059" d="M70 237l101 87l49 -57q62 -71 114 -98q108 -56 231 -56t225.5 106.5t102.5 256.5q0 148 -71 216q-51 49 -101.5 64t-84 21t-83.5 9q-79 6 -187 6v141l477 455h-721v127h919v-123l-462 -459q-1 -1 -1 -2t-1 -1h27q129 0 254 -76q110 -67 156 -198q27 -76 27 -170 q0 -228 -136 -362.5t-354 -134.5q-286 0 -481 248z" />
<glyph unicode="&#x1b8;" horiz-adv-x="1059" d="M70 486q0 188 92 290q86 96 190 125q102 29 156 29h26q-2 2 -2 3l-462 459v123h919v-127h-721l477 -455v-141q-187 0 -245.5 -10.5t-97 -22t-64 -28t-50 -40t-38.5 -53.5q-32 -67 -32 -162q0 -150 102.5 -256.5t239.5 -106.5q196 0 332 154l48 57l101 -87 q-195 -248 -481 -248q-218 0 -354 134.5t-136 362.5z" />
<glyph unicode="&#x1b9;" horiz-adv-x="892" d="M26 74q0 168 121 275q52 46 121 72t104 33q72 14 121 16q-1 0 -1 1t-1 2l-462 474v108h837v-112h-639l477 -470v-125q-246 -4 -358 -48q-125 -50 -164 -128q-24 -47 -24 -108q0 -150 102.5 -256.5t239.5 -106.5q131 0 250 123q53 55 67 88l101 -87q-114 -164 -289 -217 q-63 -19 -129 -19q-129 0 -235.5 55.5t-172.5 168t-66 261.5z" />
<glyph unicode="&#x1ba;" horiz-adv-x="919" d="M25 924v131h919v-127l-419 -409q-1 -1 -1 -2h24q116 0 222 -45q161 -69 161 -228q0 -76 -38.5 -135t-100.5 -94.5t-137 -61.5t-149.5 -44t-136.5 -35q-139 -40 -139 -99q0 -39 42 -53t114.5 -14t150 11.5t92.5 20.5l32 -127q-145 -28 -271.5 -28t-208 45t-81.5 125.5 t38 131t99 78.5t134 47.5t146.5 36.5t134.5 37.5t99 57.5t38 81t-12.5 69.5t-46.5 41t-64.5 25t-97.5 13.5q-105 5 -255 5v141l433 404h-721z" />
<glyph unicode="&#x1bb;" horiz-adv-x="1130" d="M90 0q0 151 21.5 203t47.5 99t63 90q89 103 227 215h-345v132h520l101 74q61 46 82.5 71t41.5 52.5t29 52.5q24 62 24 127q0 127 -73 203t-223 76q-83 0 -148.5 -30.5t-102.5 -78.5q-74 -94 -74 -198h-148q0 125 69.5 227t181.5 157t233 55t219 -54t156 -149t58 -208 q0 -129 -66 -224q-53 -77 -140 -153h188v-132h-356q-407 -318 -424 -465h777v-142h-939z" />
<glyph unicode="&#x1bc;" horiz-adv-x="1139" d="M25 1381v131h981v-131h-614v-450q61 58 160 82q41 10 84 10q197 0 325 -136t128 -365.5t-132 -381t-342 -151.5q-188 0 -329 147q-72 74 -90 140l98 75q20 -59 78 -117q115 -115 238 -115q113 0 209 87q122 109 122 326q0 242 -151 326q-73 41 -161 41t-165 -64t-84 -113 h-136v659h-219z" />
<glyph unicode="&#x1bd;" horiz-adv-x="824" d="M36 943v112h686v-112h-415v-282q64 64 156 64q138 0 234.5 -101.5t96.5 -261.5t-98 -266.5t-247 -106.5q-162 0 -267 147q-24 34 -32 62l77 50q18 -37 57 -73q74 -70 161 -70q145 0 195 127q22 57 22 137q0 244 -204 244q-61 0 -108 -38.5t-52 -72.5h-123v441h-139z" />
<glyph unicode="&#x1be;" horiz-adv-x="813" d="M93 201l100 68q34 -57 57 -83q52 -57 175 -57q73 0 142 75t69 184q0 125 -123 267l-102 119q-123 143 -123 272h-193v112h193v357h132v-357h199v-112h-199q0 -101 124 -239l104 -119q124 -148 124 -300q0 -102 -42.5 -190t-123 -143t-195.5 -55t-190 50.5t-128 150.5z " />
<glyph unicode="&#x1bf;" horiz-adv-x="906" d="M129 0v1171h132v-70q94 87 263 87q273 0 341 -250q16 -59 16 -123.5t-22.5 -132t-57.5 -120.5t-88.5 -102.5t-105.5 -85.5t-118 -71q-106 -56 -228 -103v-200h-132zM261 324q146 51 217 96.5t118.5 86t79.5 84.5q73 103 73 225q0 248 -225 248q-139 0 -230 -102 q-19 -22 -33 -46v-592z" />
<glyph unicode="&#x1c0;" horiz-adv-x="298" d="M100 -132v1695h148v-1695h-148z" />
<glyph unicode="&#x1c1;" horiz-adv-x="646" d="M100 -132v1695h148v-1695h-148zM448 -132v1695h148v-1695h-148z" />
<glyph unicode="&#x1c2;" horiz-adv-x="624" d="M75 507v132h188v140h-188v132h188v652h148v-652h188v-132h-188v-140h188v-132h-188v-639h-148v639h-188z" />
<glyph unicode="&#x1c3;" horiz-adv-x="284" d="M92 0v150h150v-150h-150zM92 1446h150l-23 -1146h-104z" />
<glyph unicode="&#x1c4;" horiz-adv-x="2306" d="M135 0v1515h361q502 0 614 -446q36 -144 36 -294t-21 -256t-69.5 -202.5t-121.5 -165.5q-161 -151 -438 -151h-361zM283 124h213q327 0 444 279q58 140 58 342q0 359 -138 512q-54 59 -146.5 96.5t-217.5 37.5h-213v-1267zM1282 0v107l825 1280h-771v128h952v-123 l-794 -1250h788v-142h-1000zM1590 1876l65 65l157 -157l156 156l66 -64l-222 -222z" />
<glyph unicode="&#x1c5;" horiz-adv-x="1943" d="M135 0v1515h361q502 0 614 -446q36 -144 36 -294t-21 -256t-69.5 -202.5t-121.5 -165.5q-161 -151 -438 -151h-361zM283 124h213q327 0 444 279q58 140 58 342q0 359 -138 512q-54 59 -146.5 96.5t-217.5 37.5h-213v-1267zM1239 0v85l560 858h-507v112h676v-74l-568 -861 h568v-120h-729zM1408 1410l65 65l157 -157l156 156l66 -64l-222 -222z" />
<glyph unicode="&#x1c6;" horiz-adv-x="1713" d="M75 510q0 147 47.5 273t139.5 204.5t196.5 78.5t184.5 -54t99 -95v598h132v-1369q0 -30 8.5 -78.5t17.5 -67.5h-133q-25 12 -25 166q-102 -177 -284 -177q-91 0 -166 45.5t-121 120.5q-96 157 -96 355zM207 510q0 -177 63 -290q66 -119 209 -119q95 0 156 54 q49 43 107 123v525q-106 151 -237 151q-298 0 -298 -444zM1009 0v85l560 858h-507v112h676v-74l-568 -861h568v-120h-729zM1178 1410l65 65l157 -157l156 156l66 -64l-222 -222z" />
<glyph unicode="&#x1c7;" horiz-adv-x="1777" d="M135 0v1515h148v-1373h672v-142h-820zM956 244l103 53q24 -64 88 -123q27 -25 73 -45.5t97 -20.5q122 0 174.5 83.5t52.5 237.5v1086h148v-1086q0 -326 -217 -417q-69 -28 -153 -28t-150 26.5t-103 60t-65 76.5q-40 61 -48 97z" />
<glyph unicode="&#x1c8;" horiz-adv-x="1292" d="M135 0v1515h148v-1373h672v-142h-820zM917 -225q97 0 140 34t43 162v1084h132v-1055q0 -171 -42 -238q-16 -25 -29 -41.5t-37.5 -28t-40.5 -17t-47 -8.5q-42 -4 -75 -4h-36zM1091 1188v150h150v-150h-150z" />
<glyph unicode="&#x1c9;" horiz-adv-x="704" d="M129 -2v1517h132v-1517h-132zM329 -225q97 0 140 34t43 162v1084h132v-1055q0 -171 -42 -238q-16 -25 -29 -41.5t-37.5 -28t-40.5 -17t-47 -8.5q-42 -4 -75 -4h-36zM503 1188v150h150v-150h-150z" />
<glyph unicode="&#x1ca;" horiz-adv-x="2097" d="M128 0v1515h236l611 -1154v1154h148v-1515h-127l-720 1368v-1368h-148zM1276 244l103 53q24 -64 88 -123q27 -25 73 -45.5t97 -20.5q122 0 174.5 83.5t52.5 237.5v1086h148v-1086q0 -326 -217 -417q-69 -28 -153 -28t-150 26.5t-103 60t-65 76.5q-40 61 -48 97z" />
<glyph unicode="&#x1cb;" horiz-adv-x="1563" d="M128 0v1515h236l611 -1154v1154h148v-1515h-127l-720 1368v-1368h-148zM1188 -225q97 0 140 34t43 162v1084h132v-1055q0 -171 -42 -238q-16 -25 -29 -41.5t-37.5 -28t-40.5 -17t-47 -8.5q-42 -4 -75 -4h-36zM1362 1188v150h150v-150h-150z" />
<glyph unicode="&#x1cc;" horiz-adv-x="1282" d="M120 0v1055h132v-173q88 87 167 135.5t186 48.5t181 -70t74 -210v-786h-132v786q0 75 -53.5 121.5t-115.5 46.5q-148 0 -307 -173v-781h-132zM907 -225q97 0 140 34t43 162v1084h132v-1055q0 -171 -42 -238q-16 -25 -29 -41.5t-37.5 -28t-40.5 -17t-47 -8.5 q-42 -4 -75 -4h-36zM1081 1188v150h150v-150h-150z" />
<glyph unicode="&#x1cd;" horiz-adv-x="1080" d="M25 0l432 1515h216l432 -1515h-154l-130 478h-509l-133 -478h-154zM343 1876l65 65l157 -157l156 156l66 -64l-222 -222zM346 602h440l-221 787z" />
<glyph unicode="&#x1ce;" horiz-adv-x="878" d="M72 257.5q0 71.5 18 125t56.5 95t87.5 73.5t122 58q133 47 325 85q0 158 -61 211q-54 47 -157 47q-126 0 -217 -96q-39 -39 -54 -70l-95 63q112 215 381 215q241 0 308 -185q27 -75 27 -182v-549q0 -29 11 -79t20 -69h-133q-30 15 -30 168q-141 -181 -311 -181 q-188 0 -261 132q-37 67 -37 138.5zM204 252q0 -74 52 -113.5t115.5 -39.5t112 19t88.5 49q73 55 109 98v317q-190 -49 -225 -60q-176 -57 -227 -150q-25 -46 -25 -120zM256 1410l65 65l157 -157l156 156l66 -64l-222 -222z" />
<glyph unicode="&#x1cf;" horiz-adv-x="368" d="M-13 1876l65 65l157 -157l156 156l66 -64l-222 -222zM135 0v1515h148v-1515h-148z" />
<glyph unicode="&#x1d0;" horiz-adv-x="367" d="M-27 1410l65 65l157 -157l156 156l66 -64l-222 -222zM129 0v1055h132v-1055h-132z" />
<glyph unicode="&#x1d1;" horiz-adv-x="1213" d="M80 753q0 115 19 224t62 211t106.5 177.5t159.5 121t211.5 45.5t208 -46.5t154 -123t103.5 -178.5q79 -192 79 -432q0 -439 -227 -652q-123 -116 -315 -116q-111 0 -205 44.5t-158.5 119t-110 174t-66.5 208t-21 223.5zM228 739q0 -119 23.5 -231.5t71 -203.5t129 -143.5 t180 -52.5t169 39.5t113.5 102.5t71 150q50 154 50 352q0 329 -121 510q-43 65 -113 105.5t-160 40.5t-161.5 -36t-118 -96.5t-77 -145.5t-43.5 -178.5t-13 -212.5zM419 1876l65 65l157 -157l156 156l66 -64l-222 -222z" />
<glyph unicode="&#x1d2;" horiz-adv-x="922" d="M75 534.5q0 241.5 108.5 386.5t303.5 145t302.5 -146t107.5 -390t-108.5 -393t-301.5 -149q-197 0 -306 154q-106 151 -106 392.5zM207 528q0 -317 165 -402q50 -26 115 -26t115.5 26t80.5 67t49 99q33 101 33 235q0 427 -279 427t-279 -426zM265 1410l65 65l157 -157 l156 156l66 -64l-222 -222z" />
<glyph unicode="&#x1d3;" horiz-adv-x="1163" d="M135 455v1060h148v-1060q0 -136 66 -229q83 -118 260 -118q264 0 313 238q12 55 12 109v1060h151v-1060q0 -164 -89 -293q-120 -178 -387 -178q-319 0 -429 254q-45 106 -45 217zM388 1876l65 65l157 -157l156 156l66 -64l-222 -222z" />
<glyph unicode="&#x1d4;" horiz-adv-x="929" d="M129 269v786h132v-786q0 -75 53.5 -121.5t115.5 -46.5q148 0 307 173v781h132v-1055h-132v174q-142 -139 -243 -170q-49 -15 -102 -15q-115 0 -189 70t-74 210zM277 1410l65 65l157 -157l156 156l66 -64l-222 -222z" />
<glyph unicode="&#x1d5;" horiz-adv-x="1163" d="M135 455v1060h148v-1060q0 -136 66 -229q83 -118 260 -118q264 0 313 238q12 55 12 109v1060h151v-1060q0 -164 -89 -293q-120 -178 -387 -178q-319 0 -429 254q-45 106 -45 217zM345 1926v92h527v-92h-527zM374 1654v150h150v-150h-150zM693 1654v150h150v-150h-150z " />
<glyph unicode="&#x1d6;" horiz-adv-x="929" d="M129 269v786h132v-786q0 -75 53.5 -121.5t115.5 -46.5q148 0 307 173v781h132v-1055h-132v174q-142 -139 -243 -170q-49 -15 -102 -15q-115 0 -189 70t-74 210zM236 1460v92h527v-92h-527zM264 1188v150h150v-150h-150zM583 1188v150h150v-150h-150z" />
<glyph unicode="&#x1d7;" horiz-adv-x="1163" d="M135 455v1060h148v-1060q0 -136 66 -229q83 -118 260 -118q264 0 313 238q12 55 12 109v1060h151v-1060q0 -164 -89 -293q-120 -178 -387 -178q-319 0 -429 254q-45 106 -45 217zM374 1654v150h150v-150h-150zM542 1910l295 295l87 -87l-316 -273zM693 1654v150h150v-150 h-150z" />
<glyph unicode="&#x1d8;" horiz-adv-x="929" d="M129 269v786h132v-786q0 -75 53.5 -121.5t115.5 -46.5q148 0 307 173v781h132v-1055h-132v174q-142 -139 -243 -170q-49 -15 -102 -15q-115 0 -189 70t-74 210zM264 1188v150h150v-150h-150zM433 1525l295 295l87 -87l-316 -273zM583 1188v150h150v-150h-150z" />
<glyph unicode="&#x1d9;" horiz-adv-x="1163" d="M135 455v1060h148v-1060q0 -136 66 -229q83 -118 260 -118q264 0 313 238q12 55 12 109v1060h151v-1060q0 -164 -89 -293q-120 -178 -387 -178q-319 0 -429 254q-45 106 -45 217zM374 1654v150h150v-150h-150zM386 2148l65 65l157 -157l156 156l66 -64l-222 -222z M693 1654v150h150v-150h-150z" />
<glyph unicode="&#x1da;" horiz-adv-x="929" d="M129 269v786h132v-786q0 -75 53.5 -121.5t115.5 -46.5q148 0 307 173v781h132v-1055h-132v174q-142 -139 -243 -170q-49 -15 -102 -15q-115 0 -189 70t-74 210zM264 1188v150h150v-150h-150zM277 1682l65 65l157 -157l156 156l66 -64l-222 -222zM583 1188v150h150v-150 h-150z" />
<glyph unicode="&#x1db;" horiz-adv-x="1163" d="M135 455v1060h148v-1060q0 -136 66 -229q83 -118 260 -118q264 0 313 238q12 55 12 109v1060h151v-1060q0 -164 -89 -293q-120 -178 -387 -178q-319 0 -429 254q-45 106 -45 217zM293 2136l87 87l295 -295l-66 -65zM374 1654v150h150v-150h-150zM693 1654v150h150v-150 h-150z" />
<glyph unicode="&#x1dc;" horiz-adv-x="929" d="M129 269v786h132v-786q0 -75 53.5 -121.5t115.5 -46.5q148 0 307 173v781h132v-1055h-132v174q-142 -139 -243 -170q-49 -15 -102 -15q-115 0 -189 70t-74 210zM183 1733l87 87l295 -295l-66 -65zM264 1188v150h150v-150h-150zM583 1188v150h150v-150h-150z" />
<glyph unicode="&#x1dd;" horiz-adv-x="875" d="M75 826q39 72 102 130q120 110 237 110t199 -43t131 -116t74.5 -163t25.5 -189t-14 -180.5t-37 -138.5t-56 -101.5t-68 -71.5t-76 -44q-71 -30 -135 -30t-109 11.5t-96.5 47t-88.5 93.5q-86 136 -86 401h634q0 267 -135 364q-67 48 -149 48q-154 0 -262 -191zM210 430 q0 -149 69 -247q58 -82 165 -82q175 0 234 162q28 76 28 167h-496z" />
<glyph unicode="&#x1de;" horiz-adv-x="1080" d="M25 0l432 1515h216l432 -1515h-154l-130 478h-509l-133 -478h-154zM302 1926v92h527v-92h-527zM330 1654v150h150v-150h-150zM346 602h440l-221 787zM649 1654v150h150v-150h-150z" />
<glyph unicode="&#x1df;" horiz-adv-x="878" d="M72 257.5q0 71.5 18 125t56.5 95t87.5 73.5t122 58q133 47 325 85q0 158 -61 211q-54 47 -157 47q-126 0 -217 -96q-39 -39 -54 -70l-95 63q112 215 381 215q241 0 308 -185q27 -75 27 -182v-549q0 -29 11 -79t20 -69h-133q-30 15 -30 168q-141 -181 -311 -181 q-188 0 -261 132q-37 67 -37 138.5zM204 252q0 -74 52 -113.5t115.5 -39.5t112 19t88.5 49q73 55 109 98v317q-190 -49 -225 -60q-176 -57 -227 -150q-25 -46 -25 -120zM214 1460v92h527v-92h-527zM244 1188v150h150v-150h-150zM563 1188v150h150v-150h-150z" />
<glyph unicode="&#x1e0;" horiz-adv-x="1080" d="M25 0l432 1515h216l432 -1515h-154l-130 478h-509l-133 -478h-154zM302 1926v92h527v-92h-527zM346 602h440l-221 787zM490 1654v150h150v-150h-150z" />
<glyph unicode="&#x1e1;" horiz-adv-x="878" d="M72 257.5q0 71.5 18 125t56.5 95t87.5 73.5t122 58q133 47 325 85q0 158 -61 211q-54 47 -157 47q-126 0 -217 -96q-39 -39 -54 -70l-95 63q112 215 381 215q241 0 308 -185q27 -75 27 -182v-549q0 -29 11 -79t20 -69h-133q-30 15 -30 168q-141 -181 -311 -181 q-188 0 -261 132q-37 67 -37 138.5zM204 252q0 -74 52 -113.5t115.5 -39.5t112 19t88.5 49q73 55 109 98v317q-190 -49 -225 -60q-176 -57 -227 -150q-25 -46 -25 -120zM214 1460v92h527v-92h-527zM403 1188v150h150v-150h-150z" />
<glyph unicode="&#x1e2;" horiz-adv-x="1550" d="M25 0l432 1515h1037v-124h-673v-533h483v-124h-483v-601h711v-133h-859v478h-361l-133 -478h-154zM346 602h327v787h-108zM712 1654v92h527v-92h-527z" />
<glyph unicode="&#x1e3;" horiz-adv-x="1477" d="M72 259.5q0 71.5 18 125t56.5 95t87.5 73.5t122 58q133 47 325 85q0 158 -61 211q-54 47 -157 47q-126 0 -217 -96q-39 -39 -54 -70l-95 63q112 215 381 215q221 0 296 -157q104 157 303 157q184 0 280 -152q86 -136 86 -401h-634q0 -267 135 -364q67 -48 135 -48 t116.5 22.5t80.5 56.5q62 67 80 112l90 -63q-37 -74 -101 -132q-119 -108 -248 -108t-222 64.5t-145 178.5q-163 -243 -360 -243q-188 0 -261 132q-37 67 -37 138.5zM204 254q0 -74 52 -113.5t113 -39.5t105 16.5t77.5 38.5t68.5 52q48 44 84 86q-26 69 -26 180 q0 18 1.5 54.5t1.5 55.5q-190 -49 -225 -60q-176 -57 -227 -150q-25 -46 -25 -120zM514 1188v92h527v-92h-527zM815 625h496q0 149 -69 247q-58 82 -165 82q-175 0 -234 -162q-28 -76 -28 -167z" />
<glyph unicode="&#x1e4;" horiz-adv-x="1196" d="M80 768q0 190 56 362q56 171 180 286q128 116 320 116q141 0 265 -85q145 -99 211 -348l-145 -36q-1 7 -2.5 19.5t-11 48.5t-22.5 68.5t-39.5 72t-59.5 68.5q-76 68 -192 68t-198 -54t-127 -148q-87 -180 -87 -438q0 -308 80 -460q105 -200 331 -200q136 0 211 69.5 t104 200.5h-257v124h273q3 44 3 89h-337v124h482v-213h103v-124h-103v-378h-120v192q-113 -156 -239 -192q-56 -16 -148 -16t-187.5 46t-158.5 122t-105 178q-80 192 -80 438z" />
<glyph unicode="&#x1e5;" horiz-adv-x="955" d="M42 -188q0 54 15 84t45.5 54t53 38.5t61.5 34t47 24.5q-82 17 -124 60t-42 78.5t13.5 64.5t40.5 54q44 39 73 57t32 20q-60 51 -105.5 133.5t-45.5 181t54.5 185.5t146 136t177.5 49t138.5 -21t112.5 -62q76 62 124 71q62 13 114 14v-120h-2q-171 0 -171 -31 q48 -89 59 -121h113v-112h-96q0 -159 -104 -269t-268 -110q-87 0 -178 38q-8 -7 -36 -27q-60 -42 -60 -84q0 -46 42 -63q32 -13 79.5 -20t67 -9.5t65.5 -3.5q112 -1 266 -38q97 -23 158.5 -92t61.5 -165q0 -286 -479 -286q-169 0 -301 61q-67 31 -107.5 86.5t-40.5 109.5z M174 -169q0 -98 106 -133q91 -31 170.5 -31t105.5 0.5t67 4t67 10t57 19.5t49 31q42 42 42 102t-40 95.5t-101.5 50.5t-121.5 21.5t-114.5 9t-65.5 5.5q-107 -40 -139 -59q-82 -48 -82 -126zM238 689q0 -117 70 -194.5t190 -77.5t182 77.5t64 189.5h-282v112h265 q-24 72 -80 115t-158 43t-176.5 -74t-74.5 -191z" />
<glyph unicode="&#x1e6;" horiz-adv-x="1196" d="M80 756.5q0 105.5 14 196.5t42 177t74.5 158.5t105.5 127.5q128 116 320 116q141 0 265 -85q145 -99 211 -348l-145 -36q-1 7 -2.5 19.5t-11 48.5t-22.5 68.5t-39.5 72t-59.5 68.5q-76 68 -192 68t-198 -54t-127 -148q-87 -180 -87 -438q0 -308 80 -460 q105 -200 331 -200q281 0 325 324q9 70 9 159h-337v124h482v-715h-120v192q-113 -156 -239 -192q-56 -16 -148 -16t-187.5 46t-158.5 122t-105.5 178.5t-61 211.5t-18.5 214.5zM414 1876l65 65l157 -157l156 156l66 -64l-222 -222z" />
<glyph unicode="&#x1e7;" horiz-adv-x="955" d="M42 -188q0 54 15 84t45.5 54t53 38.5t61.5 34t47 24.5q-82 17 -124 60t-42 78.5t13.5 64.5t40.5 54q44 39 73 57t32 20q-60 51 -105.5 133.5t-45.5 181t54.5 185.5t146 136t177.5 49t138.5 -21t112.5 -62q76 62 124 71q62 13 114 14v-120h-2q-171 0 -171 -31 q51 -94 63.5 -138.5t12.5 -89.5q0 -161 -103.5 -272.5t-268.5 -111.5q-87 0 -178 38q-8 -7 -36 -27q-60 -42 -60 -84q0 -46 42 -63q32 -13 79.5 -20t67 -9.5t65.5 -3.5q112 -1 266 -38q97 -23 158.5 -92t61.5 -165q0 -286 -479 -286q-169 0 -301 61q-67 31 -107.5 86.5 t-40.5 109.5zM174 -169q0 -98 106 -133q91 -31 170.5 -31t105.5 0.5t67 4t67 10t57 19.5t49 31q42 42 42 102t-40 95.5t-101.5 50.5t-121.5 21.5t-114.5 9t-65.5 5.5q-107 -40 -139 -59q-82 -48 -82 -126zM238 689q0 -117 70 -194.5t190.5 -77.5t183 79t62.5 192 t-61.5 189.5t-178.5 76.5t-191.5 -74t-74.5 -191zM295 1412l65 65l157 -157l156 156l66 -64l-222 -222z" />
<glyph unicode="&#x1e8;" horiz-adv-x="1090" d="M135 0v1515h149v-824l617 824h159l-434 -569l489 -946h-166l-417 822l-248 -327v-495h-149zM376 1876l65 65l157 -157l156 156l66 -64l-222 -222z" />
<glyph unicode="&#x1e9;" horiz-adv-x="861" d="M130 0v1515h132v-982l404 522h158l-276 -359l338 -696h-146l-282 582l-196 -243v-339h-132zM259 1859l65 65l157 -157l156 156l66 -64l-222 -222z" />
<glyph unicode="&#x1ea;" horiz-adv-x="1213" d="M80 753q0 115 19 224t62 211t106.5 177.5t159.5 121t211.5 45.5t208 -46.5t154 -123t103.5 -178.5q79 -192 79 -432q0 -439 -227 -652q-109 -103 -273 -115q-71 -90 -71 -162q0 -36 116 -45q19 -2 32 -2v-94l-36 -1q-205 0 -205 115q0 93 68 191q-80 8 -151 41 q-94 45 -158.5 119.5t-110 174t-66.5 208t-21 223.5zM228 739q0 -119 23.5 -231.5t71 -203.5t129 -143.5t180 -52.5t169 39.5t113.5 102.5t71 150q50 154 50 352q0 329 -121 510q-43 65 -113 105.5t-160 40.5t-161.5 -36t-118 -96.5t-77 -145.5t-43.5 -178.5t-13 -212.5z " />
<glyph unicode="&#x1eb;" horiz-adv-x="922" d="M75 534.5q0 241.5 108.5 386.5t303.5 145t302.5 -146t107.5 -390t-109 -393q-96 -132 -258 -147q-72 -91 -72 -163q0 -36 116 -45q19 -2 32 -2v-94l-36 -1q-205 0 -205 115q0 93 68 191q-159 19 -252 151q-106 151 -106 392.5zM207 528q0 -317 165 -402q50 -26 115 -26 t115.5 26t80.5 67t49 99q33 101 33 235q0 427 -279 427t-279 -426z" />
<glyph unicode="&#x1ec;" horiz-adv-x="1213" d="M80 753q0 115 19 224t62 211t106.5 177.5t159.5 121t211.5 45.5t208 -46.5t154 -123t103.5 -178.5q79 -192 79 -432q0 -439 -227 -652q-109 -103 -273 -115q-71 -90 -71 -162q0 -36 116 -45q19 -2 32 -2v-94l-36 -1q-205 0 -205 115q0 93 68 191q-80 8 -151 41 q-94 45 -158.5 119.5t-110 174t-66.5 208t-21 223.5zM228 739q0 -119 23.5 -231.5t71 -203.5t129 -143.5t180 -52.5t169 39.5t113.5 102.5t71 150q50 154 50 352q0 329 -121 510q-43 65 -113 105.5t-160 40.5t-161.5 -36t-118 -96.5t-77 -145.5t-43.5 -178.5t-13 -212.5z M378 1654v92h527v-92h-527z" />
<glyph unicode="&#x1ed;" horiz-adv-x="922" d="M75 534.5q0 241.5 108.5 386.5t303.5 145t302.5 -146t107.5 -390t-109 -393q-96 -132 -258 -147q-72 -91 -72 -163q0 -36 116 -45q19 -2 32 -2v-94l-36 -1q-205 0 -205 115q0 93 68 191q-159 19 -252 151q-106 151 -106 392.5zM207 528q0 -317 165 -402q50 -26 115 -26 t115.5 26t80.5 67t49 99q33 101 33 235q0 427 -279 427t-279 -426zM224 1188v92h527v-92h-527z" />
<glyph unicode="&#x1ee;" horiz-adv-x="1059" d="M70 237l101 87l49 -57q62 -71 114 -98q108 -56 231 -56t225.5 106.5t102.5 256.5q0 148 -71 216q-51 49 -101.5 64t-84 21t-83.5 9q-79 6 -187 6v141l477 455h-721v127h919v-123l-462 -459q-1 -1 -1 -2t-1 -1h27q129 0 254 -76q110 -67 156 -198q27 -76 27 -170 q0 -228 -136 -362.5t-354 -134.5q-286 0 -481 248zM353 1876l65 65l157 -157l156 156l66 -64l-222 -222z" />
<glyph unicode="&#x1ef;" horiz-adv-x="892" d="M25 -175l101 87q14 -33 55.5 -76t76.5 -70q86 -65 185 -65q137 0 239.5 106.5t102.5 256.5q0 284 -546 284v125l477 470h-639v112h837v-108l-462 -474l-2 -3q147 0 282 -78q185 -105 185 -318q0 -149 -66 -261.5t-172.5 -168t-235.5 -55.5q-255 0 -418 236zM283 1410 l65 65l157 -157l156 156l66 -64l-222 -222z" />
<glyph unicode="&#x1f0;" horiz-adv-x="312" d="M-63 -225q97 0 140 34t43 162v1084h132v-1055q0 -171 -42 -238q-16 -25 -29 -41.5t-37.5 -28t-40.5 -17t-47 -8.5q-42 -4 -75 -4h-36zM-37 1410l65 65l157 -157l156 156l66 -64l-222 -222z" />
<glyph unicode="&#x1f1;" horiz-adv-x="2306" d="M135 0v1515h361q502 0 614 -446q36 -144 36 -294t-21 -256t-69.5 -202.5t-121.5 -165.5q-161 -151 -438 -151h-361zM283 124h213q327 0 444 279q58 140 58 342q0 359 -138 512q-54 59 -146.5 96.5t-217.5 37.5h-213v-1267zM1282 0v107l825 1280h-771v128h952v-123 l-794 -1250h788v-142h-1000z" />
<glyph unicode="&#x1f2;" horiz-adv-x="1943" d="M135 0v1515h361q502 0 614 -446q36 -144 36 -294t-21 -256t-69.5 -202.5t-121.5 -165.5q-161 -151 -438 -151h-361zM283 124h213q327 0 444 279q58 140 58 342q0 359 -138 512q-54 59 -146.5 96.5t-217.5 37.5h-213v-1267zM1239 0v85l560 858h-507v112h676v-74l-568 -861 h568v-120h-729z" />
<glyph unicode="&#x1f3;" horiz-adv-x="1713" d="M75 510q0 147 47.5 273t139.5 204.5t196.5 78.5t184.5 -54t99 -95v598h132v-1369q0 -30 8.5 -78.5t17.5 -67.5h-133q-25 12 -25 166q-102 -177 -284 -177q-91 0 -166 45.5t-121 120.5q-96 157 -96 355zM207 510q0 -177 63 -290q66 -119 209 -119q95 0 156 54 q49 43 107 123v525q-106 151 -237 151q-298 0 -298 -444zM1009 0v85l560 858h-507v112h676v-74l-568 -861h568v-120h-729z" />
<glyph unicode="&#x1f4;" horiz-adv-x="1196" d="M80 756.5q0 105.5 14 196.5t42 177t74.5 158.5t105.5 127.5q128 116 320 116q141 0 265 -85q145 -99 211 -348l-145 -36q-1 7 -2.5 19.5t-11 48.5t-22.5 68.5t-39.5 72t-59.5 68.5q-76 68 -192 68t-198 -54t-127 -148q-87 -180 -87 -438q0 -308 80 -460 q105 -200 331 -200q281 0 325 324q9 70 9 159h-337v124h482v-715h-120v192q-113 -156 -239 -192q-56 -16 -148 -16t-187.5 46t-158.5 122t-105.5 178.5t-61 211.5t-18.5 214.5zM570 1719l295 295l87 -87l-316 -273z" />
<glyph unicode="&#x1f5;" horiz-adv-x="955" d="M42 -188q0 54 15 84t45.5 54t53 38.5t61.5 34t47 24.5q-82 17 -124 60t-42 78.5t13.5 64.5t40.5 54q44 39 73 57t32 20q-60 51 -105.5 133.5t-45.5 181t54.5 185.5t146 136t177.5 49t138.5 -21t112.5 -62q76 62 124 71q62 13 114 14v-120h-2q-171 0 -171 -31 q51 -94 63.5 -138.5t12.5 -89.5q0 -161 -103.5 -272.5t-268.5 -111.5q-87 0 -178 38q-8 -7 -36 -27q-60 -42 -60 -84q0 -46 42 -63q32 -13 79.5 -20t67 -9.5t65.5 -3.5q112 -1 266 -38q97 -23 158.5 -92t61.5 -165q0 -286 -479 -286q-169 0 -301 61q-67 31 -107.5 86.5 t-40.5 109.5zM174 -169q0 -98 106 -133q91 -31 170.5 -31t105.5 0.5t67 4t67 10t57 19.5t49 31q42 42 42 102t-40 95.5t-101.5 50.5t-121.5 21.5t-114.5 9t-65.5 5.5q-107 -40 -139 -59q-82 -48 -82 -126zM238 689q0 -117 70 -194.5t190.5 -77.5t183 79t62.5 192 t-61.5 189.5t-178.5 76.5t-191.5 -74t-74.5 -191zM472 1255l295 295l87 -87l-316 -273z" />
<glyph unicode="&#x1f6;" horiz-adv-x="1749" d="M135 0v1515h148v-657h688v657h148v-1020q0 -158 11.5 -201.5t23 -72t29 -46t41.5 -32.5q46 -29 103.5 -29t87.5 6.5t60 22.5t52 41q49 54 49 152q0 251 -77 719h148q78 -459 78 -719q0 -111 -54 -192q-104 -155 -318 -155q-212 0 -295 107q-53 70 -67 151 q-19 119 -19 264l-1 223h-688v-734h-148z" />
<glyph unicode="&#x1f7;" horiz-adv-x="1029" d="M135 0v1515h148v-80q85 97 291 97t321.5 -102.5t115.5 -286.5q0 -475 -491 -804q-106 -71 -237 -139v-200h-148zM283 324q209 147 296 226q196 175 255 373q29 100 29 189t-18 139t-46.5 79t-68.5 47q-68 31 -142.5 31t-125 -15.5t-84.5 -41.5q-62 -46 -95 -102v-925z " />
<glyph unicode="&#x1f8;" horiz-adv-x="1201" d="M128 0v1515h236l611 -1154v1154h148v-1515h-127l-720 1368v-1368h-148zM309 1927l87 87l295 -295l-66 -65z" />
<glyph unicode="&#x1f9;" d="M120 0v1055h132v-173q88 87 167 135.5t186 48.5t181 -70t74 -210v-786h-132v786q0 75 -53.5 121.5t-115.5 46.5q-148 0 -307 -173v-781h-132zM174 1461l87 87l295 -295l-66 -65z" />
<glyph unicode="&#x1fa;" horiz-adv-x="1080" d="M25 0l432 1515q-39 18 -73 51q-74 75 -74 181t74.5 180.5t180 74.5t180.5 -74.5t75 -180.5t-75 -181q-33 -33 -73 -51h1l432 -1515h-154l-130 478h-509l-133 -478h-154zM346 602h440l-221 787zM406 1747q0 -65 46 -111.5t111.5 -46.5t112 46.5t46.5 111.5t-46.5 111.5 t-112 46.5t-111.5 -46.5t-46 -111.5zM421 2215l295 295l87 -87l-316 -273z" />
<glyph unicode="&#x1fb;" horiz-adv-x="878" d="M72 257.5q0 71.5 18 125t56.5 95t87.5 73.5t122 58q133 47 325 85q0 158 -61 211q-54 47 -157 47q-126 0 -217 -96q-39 -39 -54 -70l-95 63q112 215 381 215q241 0 308 -185q27 -75 27 -182v-549q0 -29 11 -79t20 -69h-133q-30 15 -30 168q-141 -181 -311 -181 q-188 0 -261 132q-37 67 -37 138.5zM204 252q0 -74 52 -113.5t115.5 -39.5t112 19t88.5 49q73 55 109 98v317q-190 -49 -225 -60q-176 -57 -227 -150q-25 -46 -25 -120zM205 1413q0 106 74.5 180.5t180.5 74.5t180.5 -74.5t74.5 -180.5t-74.5 -180.5t-180.5 -74.5 t-180.5 74.5t-74.5 180.5zM301 1413q0 -65 46.5 -111.5t111.5 -46.5t111.5 46.5t46.5 111.5t-46.5 111.5t-111.5 46.5t-111.5 -46.5t-46.5 -111.5zM410 1888l295 295l87 -87l-316 -273z" />
<glyph unicode="&#x1fc;" horiz-adv-x="1550" d="M25 0l432 1515h1037v-124h-673v-533h483v-124h-483v-601h711v-133h-859v478h-361l-133 -478h-154zM346 602h327v787h-108zM910 1719l295 295l87 -87l-316 -273z" />
<glyph unicode="&#x1fd;" horiz-adv-x="1477" d="M72 259.5q0 71.5 18 125t56.5 95t87.5 73.5t122 58q133 47 325 85q0 158 -61 211q-54 47 -157 47q-126 0 -217 -96q-39 -39 -54 -70l-95 63q112 215 381 215q221 0 296 -157q104 157 303 157q184 0 280 -152q86 -136 86 -401h-634q0 -267 135 -364q67 -48 135 -48 t116.5 22.5t80.5 56.5q62 67 80 112l90 -63q-37 -74 -101 -132q-119 -108 -248 -108t-222 64.5t-145 178.5q-163 -243 -360 -243q-188 0 -261 132q-37 67 -37 138.5zM204 254q0 -74 52 -113.5t113 -39.5t105 16.5t77.5 38.5t68.5 52q48 44 84 86q-26 69 -26 180 q0 18 1.5 54.5t1.5 55.5q-190 -49 -225 -60q-176 -57 -227 -150q-25 -46 -25 -120zM712 1253l295 295l87 -87l-316 -273zM815 625h496q0 149 -69 247q-58 82 -165 82q-175 0 -234 -162q-28 -76 -28 -167z" />
<glyph unicode="&#x1fe;" horiz-adv-x="1221" d="M80 733q0 135 19 244t62 211t106.5 177.5t159.5 121t214 45.5q174 0 306 -112l74 129l114 -66l-97 -167q75 -111 114 -260.5t39 -284.5t-19 -243t-62 -208t-105.5 -174t-156 -118t-207.5 -44q-175 0 -308 110l-76 -132l-115 66l97 168q-78 109 -118.5 255.5t-40.5 281.5z M228 732.5q0 -240.5 85 -410.5l568 984q-97 102 -240 102q-257 0 -357 -278q-56 -157 -56 -397.5zM397 204q101 -96 244 -96q89 0 160 39.5t115.5 102.5t73.5 149q53 153 53 380.5t-81 403.5zM570 1736l295 295l87 -87l-316 -273z" />
<glyph unicode="&#x1ff;" horiz-adv-x="922" d="M75 536q0 240 108.5 385t303.5 145q107 0 193 -48l48 84l114 -66l-60 -106q115 -148 115 -396t-108.5 -397t-301.5 -149q-119 0 -213 63l-50 -87l-115 66l68 118q-102 148 -102 388zM207 528q0 -152 41 -257l375 649q-58 34 -136 34q-280 0 -280 -426zM332 152 q65 -52 142.5 -52t128 26t80.5 67t49 99q33 101 33 259t-50 264zM420 1289l295 295l87 -87l-316 -273z" />
<glyph unicode="&#x200;" horiz-adv-x="1080" d="M25 0l432 1515h216l432 -1515h-154l-130 478h-509l-133 -478h-154zM233 1927l87 87l295 -295l-66 -65zM346 602h440l-221 787zM586 1927l87 87l295 -295l-66 -65z" />
<glyph unicode="&#x201;" horiz-adv-x="878" d="M72 257.5q0 71.5 18 125t56.5 95t87.5 73.5t122 58q133 47 325 85q0 158 -61 211q-54 47 -157 47q-126 0 -217 -96q-39 -39 -54 -70l-95 63q112 215 381 215q241 0 308 -185q27 -75 27 -182v-549q0 -29 11 -79t20 -69h-133q-30 15 -30 168q-141 -181 -311 -181 q-188 0 -261 132q-37 67 -37 138.5zM157 1461l87 87l295 -295l-66 -65zM204 252q0 -74 52 -113.5t115.5 -39.5t112 19t88.5 49q73 55 109 98v317q-190 -49 -225 -60q-176 -57 -227 -150q-25 -46 -25 -120zM510 1461l87 87l295 -295l-66 -65z" />
<glyph unicode="&#x202;" horiz-adv-x="1080" d="M25 0l432 1515h216l432 -1515h-154l-130 478h-509l-133 -478h-154zM346 602h440l-221 787zM359 1694q65 135 206 135t206 -135l-69 -40q-18 42 -57 69t-80 27t-80 -27t-57 -69z" />
<glyph unicode="&#x203;" horiz-adv-x="878" d="M72 257.5q0 71.5 18 125t56.5 95t87.5 73.5t122 58q133 47 325 85q0 158 -61 211q-54 47 -157 47q-126 0 -217 -96q-39 -39 -54 -70l-95 63q112 215 381 215q241 0 308 -185q27 -75 27 -182v-549q0 -29 11 -79t20 -69h-133q-30 15 -30 168q-141 -181 -311 -181 q-188 0 -261 132q-37 67 -37 138.5zM204 252q0 -74 52 -113.5t115.5 -39.5t112 19t88.5 49q73 55 109 98v317q-190 -49 -225 -60q-176 -57 -227 -150q-25 -46 -25 -120zM272 1228q65 135 206 135t206 -135l-69 -40q-18 42 -57 69t-80 27t-80 -27t-57 -69z" />
<glyph unicode="&#x204;" horiz-adv-x="1012" d="M135 0v1515h821v-124h-673v-533h483v-124h-483v-601h711v-133h-859zM225 1927l87 87l295 -295l-66 -65zM578 1927l87 87l295 -295l-66 -65z" />
<glyph unicode="&#x205;" horiz-adv-x="875" d="M75 500q0 99 14 180.5t37 138.5t56 101.5t68 71.5t76 44q71 30 135 30t109 -11.5t96.5 -47t88.5 -93.5q86 -136 86 -401h-634q0 -267 135 -364q67 -48 149 -48q154 0 262 191l91 -63q-39 -72 -102 -130q-120 -110 -237 -110t-199 43t-131 116t-74.5 163t-25.5 189z M163 1461l87 87l295 -295l-66 -65zM213 625h496q0 149 -69 247q-58 82 -165 82q-175 0 -234 -162q-28 -76 -28 -167zM516 1461l87 87l295 -295l-66 -65z" />
<glyph unicode="&#x206;" horiz-adv-x="1012" d="M135 0v1515h821v-124h-673v-533h483v-124h-483v-601h711v-133h-859zM339 1694q65 135 206 135t206 -135l-69 -40q-18 42 -57 69t-80 27t-80 -27t-57 -69z" />
<glyph unicode="&#x207;" horiz-adv-x="875" d="M75 500q0 99 14 180.5t37 138.5t56 101.5t68 71.5t76 44q71 30 135 30t109 -11.5t96.5 -47t88.5 -93.5q86 -136 86 -401h-634q0 -267 135 -364q67 -48 149 -48q154 0 262 191l91 -63q-39 -72 -102 -130q-120 -110 -237 -110t-199 43t-131 116t-74.5 163t-25.5 189z M213 625h496q0 149 -69 247q-58 82 -165 82q-175 0 -234 -162q-28 -76 -28 -167zM269 1228q65 135 206 135t206 -135l-69 -40q-18 42 -57 69t-80 27t-80 -27t-57 -69z" />
<glyph unicode="&#x208;" horiz-adv-x="368" d="M-103 1927l87 87l295 -295l-66 -65zM135 0v1515h148v-1515h-148zM250 1927l87 87l295 -295l-66 -65z" />
<glyph unicode="&#x209;" horiz-adv-x="367" d="M-169 1461l87 87l295 -295l-66 -65zM129 0v1055h132v-1055h-132zM184 1461l87 87l295 -295l-66 -65z" />
<glyph unicode="&#x20a;" horiz-adv-x="368" d="M3 1694q65 135 206 135t206 -135l-69 -40q-18 42 -57 69t-80 27t-80 -27t-57 -69zM135 0v1515h148v-1515h-148z" />
<glyph unicode="&#x20b;" horiz-adv-x="367" d="M-11 1228q65 135 206 135t206 -135l-69 -40q-18 42 -57 69t-80 27t-80 -27t-57 -69zM129 0v1055h132v-1055h-132z" />
<glyph unicode="&#x20c;" horiz-adv-x="1213" d="M80 753q0 115 19 224t62 211t106.5 177.5t159.5 121t211.5 45.5t208 -46.5t154 -123t103.5 -178.5q79 -192 79 -432q0 -439 -227 -652q-123 -116 -315 -116q-111 0 -205 44.5t-158.5 119t-110 174t-66.5 208t-21 223.5zM228 739q0 -119 23.5 -231.5t71 -203.5t129 -143.5 t180 -52.5t169 39.5t113.5 102.5t71 150q50 154 50 352q0 329 -121 510q-43 65 -113 105.5t-160 40.5t-161.5 -36t-118 -96.5t-77 -145.5t-43.5 -178.5t-13 -212.5zM325 1927l87 87l295 -295l-66 -65zM678 1927l87 87l295 -295l-66 -65z" />
<glyph unicode="&#x20d;" horiz-adv-x="922" d="M75 534.5q0 241.5 108.5 386.5t303.5 145t302.5 -146t107.5 -390t-108.5 -393t-301.5 -149q-197 0 -306 154q-106 151 -106 392.5zM177 1461l87 87l295 -295l-66 -65zM207 528q0 -317 165 -402q50 -26 115 -26t115.5 26t80.5 67t49 99q33 101 33 235q0 427 -279 427 t-279 -426zM530 1461l87 87l295 -295l-66 -65z" />
<glyph unicode="&#x20e;" horiz-adv-x="1213" d="M80 753q0 115 19 224t62 211t106.5 177.5t159.5 121t211.5 45.5t208 -46.5t154 -123t103.5 -178.5q79 -192 79 -432q0 -439 -227 -652q-123 -116 -315 -116q-111 0 -205 44.5t-158.5 119t-110 174t-66.5 208t-21 223.5zM228 739q0 -119 23.5 -231.5t71 -203.5t129 -143.5 t180 -52.5t169 39.5t113.5 102.5t71 150q50 154 50 352q0 329 -121 510q-43 65 -113 105.5t-160 40.5t-161.5 -36t-118 -96.5t-77 -145.5t-43.5 -178.5t-13 -212.5zM435 1694q65 135 206 135t206 -135l-69 -40q-18 42 -57 69t-80 27t-80 -27t-57 -69z" />
<glyph unicode="&#x20f;" horiz-adv-x="922" d="M75 534.5q0 241.5 108.5 386.5t303.5 145t302.5 -146t107.5 -390t-108.5 -393t-301.5 -149q-197 0 -306 154q-106 151 -106 392.5zM207 528q0 -317 165 -402q50 -26 115 -26t115.5 26t80.5 67t49 99q33 101 33 235q0 427 -279 427t-279 -426zM281 1228q65 135 206 135 t206 -135l-69 -40q-18 42 -57 69t-80 27t-80 -27t-57 -69z" />
<glyph unicode="&#x210;" horiz-adv-x="1043" d="M135 0v1515h510q239 0 358 -186q65 -101 65 -212q0 -134 -64 -245q-70 -122 -228 -156l286 -716h-162l-276 692h-341v-692h-148zM237 1927l87 87l295 -295l-66 -65zM283 816h376q105 0 179 66q82 73 82 228q0 206 -222 264q-66 17 -144 17h-271v-575zM590 1927l87 87 l295 -295l-66 -65z" />
<glyph unicode="&#x211;" horiz-adv-x="589" d="M27 1461l87 87l295 -295l-66 -65zM120 0v1055h132v-284q47 104 72 143q98 152 254 152q12 0 36 -2v-112q-68 -9 -113 -25.5t-88 -52.5q-75 -62 -161 -247v-627h-132zM380 1461l87 87l295 -295l-66 -65z" />
<glyph unicode="&#x212;" horiz-adv-x="1043" d="M135 0v1515h510q239 0 358 -186q65 -101 65 -212q0 -134 -64 -245q-70 -122 -228 -156l286 -716h-162l-276 692h-341v-692h-148zM283 816h376q105 0 179 66q82 73 82 228q0 206 -222 264q-66 17 -144 17h-271v-575zM307 1694q65 135 206 135t206 -135l-69 -40 q-18 42 -57 69t-80 27t-80 -27t-57 -69z" />
<glyph unicode="&#x213;" horiz-adv-x="589" d="M120 0v1055h132v-284q47 104 72 143q98 152 254 152q12 0 36 -2v-112q-68 -9 -113 -25.5t-88 -52.5q-75 -62 -161 -247v-627h-132zM161 1228q65 135 206 135t206 -135l-69 -40q-18 42 -57 69t-80 27t-80 -27t-57 -69z" />
<glyph unicode="&#x214;" horiz-adv-x="1163" d="M135 455v1060h148v-1060q0 -136 66 -229q83 -118 260 -118q264 0 313 238q12 55 12 109v1060h151v-1060q0 -164 -89 -293q-120 -178 -387 -178q-319 0 -429 254q-45 106 -45 217zM283 1927l87 87l295 -295l-66 -65zM636 1927l87 87l295 -295l-66 -65z" />
<glyph unicode="&#x215;" horiz-adv-x="929" d="M129 269v786h132v-786q0 -75 53.5 -121.5t115.5 -46.5q148 0 307 173v781h132v-1055h-132v174q-142 -139 -243 -170q-49 -15 -102 -15q-115 0 -189 70t-74 210zM195 1461l87 87l295 -295l-66 -65zM548 1461l87 87l295 -295l-66 -65z" />
<glyph unicode="&#x216;" horiz-adv-x="1163" d="M135 455v1060h148v-1060q0 -136 66 -229q83 -118 260 -118q264 0 313 238q12 55 12 109v1060h151v-1060q0 -164 -89 -293q-120 -178 -387 -178q-319 0 -429 254q-45 106 -45 217zM404 1694q65 135 206 135t206 -135l-69 -40q-18 42 -57 69t-80 27t-80 -27t-57 -69z" />
<glyph unicode="&#x217;" horiz-adv-x="929" d="M129 269v786h132v-786q0 -75 53.5 -121.5t115.5 -46.5q148 0 307 173v781h132v-1055h-132v174q-142 -139 -243 -170q-49 -15 -102 -15q-115 0 -189 70t-74 210zM293 1228q65 135 206 135t206 -135l-69 -40q-18 42 -57 69t-80 27t-80 -27t-57 -69z" />
<glyph unicode="&#x218;" horiz-adv-x="983" d="M40 368l137 48q1 0 4.5 -17t13 -44t25.5 -60t45.5 -66t68.5 -60q86 -61 227 -61t210 77t69 189.5t-43.5 177t-152.5 109.5q-32 13 -84 31l-95 33q-247 82 -332 210q-59 89 -59 208q0 141 112 263q53 56 135 91t172.5 35t160 -24.5t112 -60.5t76.5 -83t49 -84l29 -74 q13 -35 16 -41l-130 -50q-2 5 -9.5 31.5t-13 43.5t-19 47t-28 50.5t-38 45t-50.5 39.5q-66 36 -149 36q-123 0 -200 -72.5t-77 -192.5q0 -131 68 -184q37 -29 62.5 -42t60 -25.5t50.5 -19t63 -20.5l84 -26q232 -71 319 -211q59 -95 59 -230q0 -98 -62 -205 q-77 -136 -234 -180q-59 -16 -137.5 -16t-154.5 21t-127.5 55t-93 75t-66.5 82q-46 75 -65 130zM436 -538l87 250h-65v150h150v-150q-27 -57 -76 -152t-52 -98h-44z" />
<glyph unicode="&#x219;" horiz-adv-x="828" d="M80 200l99 64q53 -82 118 -122.5t159 -40.5q98 0 159 53q51 44 51 108t-22 102t-62 62q-67 38 -139.5 55.5t-114 32t-85.5 39.5t-76 56q-73 71 -73 187.5t93.5 193t238.5 76.5q171 0 289 -123q22 -23 37 -45l-91 -68q-7 7 -28 29.5t-27 28.5l-26 21q-18 16 -30 21l-34 12 q-32 12 -108 12t-131 -43.5t-55 -95.5t18 -83.5t54 -54.5q58 -36 134 -59t100.5 -31t66 -24.5t65 -31.5t53.5 -39.5t46 -51.5q39 -68 39 -148q0 -133 -101 -218t-234 -85t-223.5 50.5t-159.5 160.5zM372 -533l87 250h-65v150h150v-150q-27 -57 -76 -152t-52 -98h-44z" />
<glyph unicode="&#x21a;" horiz-adv-x="1012" d="M25 1391v124h1012v-124h-432v-1391h-148v1391h-432zM445 -522l87 250h-65v150h150v-150q-27 -57 -76 -152t-52 -98h-44z" />
<glyph unicode="&#x21b;" horiz-adv-x="556" d="M36 943v112h178v385h132v-385h242v-112h-242v-669q0 -101 31 -138t102 -37q29 0 69 5t40 6v-99q-66 -24 -128.5 -24t-85.5 3t-56 19t-54 45q-50 70 -50 220v669h-178zM309 -535l87 250h-65v150h150v-150q-27 -57 -76 -152t-52 -98h-44z" />
<glyph unicode="&#x21c;" horiz-adv-x="967" d="M40 1290l56 62q71 78 133 109q128 66 242 66t212 -51t157.5 -138.5t59.5 -188.5q0 -159 -99 -276q-44 -52 -89 -81q123 -74 180 -166q57 -91 57 -209q0 -98 -86 -219q-50 -71 -206 -196q-80 -63 -172 -118l-167 -98q-28 -17 -41 -24l-44 134l208 126q157 96 226.5 158.5 t90.5 91.5q49 72 49 139t-32.5 130.5t-84.5 99.5q-124 86 -242 17l-171 -97v141q227 129 264.5 152t83.5 58.5t71 67.5q63 80 63 177.5t-90.5 162t-199 64.5t-192.5 -57t-141 -130z" />
<glyph unicode="&#x21d;" horiz-adv-x="976" d="M80 834l56 62q71 78 133 109q128 66 246 66q171 0 279 -87t108 -238q0 -189 -134 -318q-28 -27 -54 -44l32 -10q51 -15 87.5 -39.5t49 -38.5t27.5 -35t23 -44q19 -55 19 -116.5t-27.5 -118.5t-72.5 -102.5t-105 -87.5t-121.5 -73.5t-126.5 -58.5q-114 -47 -209 -70 l-44 122q255 68 428 181q62 41 104 94.5t42 116t-34.5 111t-88 66.5t-120 9t-127.5 -46l-170 -103v141l266 162q106 66 146 115q80 98 80 173.5t-42 121.5q-79 85 -239.5 85t-314.5 -198z" />
<glyph unicode="&#x21e;" horiz-adv-x="1204" d="M135 0v1515h148v-657h688v657h148v-1515h-148v734h-688v-734h-148zM405 1876l65 65l157 -157l156 156l66 -64l-222 -222z" />
<glyph unicode="&#x21f;" horiz-adv-x="929" d="M129 0v1515h132v-633q148 141 243 170q49 14 102 14q115 0 189 -70t74 -210v-786h-132v786q0 75 -53.5 121.5t-115.5 46.5q-148 0 -307 -173v-781h-132zM277 1859l65 65l157 -157l156 156l66 -64l-222 -222z" />
<glyph unicode="&#x220;" horiz-adv-x="1099" d="M128 0v1491h147v-220q93 92 216 162.5t236 70.5q123 0 206 -74q88 -78 88 -240v-1601h-147v1601q0 85 -60.5 136.5t-141.5 51.5t-202.5 -70t-194.5 -150v-1158h-147z" />
<glyph unicode="&#x221;" horiz-adv-x="934" d="M75 510q0 147 47.5 273t139.5 204.5t196.5 78.5t184.5 -54t99 -95v598h132v-1369q0 -42 2 -106q40 12 84 12q87 0 134 -50.5t47 -117.5t-47 -118t-128 -51q-150 0 -200 145q-69 -70 -107 -157l-79 42q49 133 164 224q-5 50 -2 197q-102 -177 -284 -177q-91 0 -166 45.5 t-121 120.5q-96 157 -96 355zM207 510q0 -177 63 -290q66 -119 209 -119q95 0 156 54q49 43 107 123v525q-106 151 -237 151q-298 0 -298 -444zM884 -58q17 -121 77 -121q37 0 59.5 18.5t22.5 43.5t-21.5 49t-61 24t-76.5 -14z" />
<glyph unicode="&#x222;" horiz-adv-x="948" d="M80 458q0 298 182 409q-61 34 -103.5 89t-42.5 115q0 172 77 359l131 -41q-67 -171 -67 -325q0 -41 43 -74q81 -65 201 -65q167 0 223 161q14 39 14 80t-10.5 88.5t-20.5 74t-35 85.5l-35 79l141 22l30 -71q63 -148 71.5 -204.5t8.5 -110.5t-49.5 -142t-104.5 -119 q184 -111 184 -411q0 -232 -109 -353t-309.5 -121t-310 122.5t-109.5 352.5zM228 449.5q0 -196.5 72 -271t200 -74.5q163 0 220 104q50 91 50 267t-59 251.5t-215 75.5t-212 -78t-56 -274.5z" />
<glyph unicode="&#x223;" horiz-adv-x="832" d="M75 397q0 259 158 356q-127 71 -127 188q0 82 35 149.5t86 107.5l94 -64q-72 -83 -80.5 -126.5t-8.5 -89.5t70 -79t131.5 -33t105.5 19.5t70 49.5q54 62 54 125q0 130 -117 251l89 75q161 -122 161 -329q0 -77 -46.5 -144.5t-101.5 -98.5q159 -96 159 -358 q0 -202 -95 -307t-270 -105t-271 106.5t-96 306.5zM206 397q0 -226 116 -281q49 -22 120 -22t119 22t72 66q43 77 43 230t-51 219t-186 66t-184 -68t-49 -232z" />
<glyph unicode="&#x224;" horiz-adv-x="1092" d="M68 1v106l825 1280h-771v128h952v-123l-794 -1250h788v-141q28 -84 -38 -142q-45 -41 -132 -64q-23 -6 -37 -8l-39 60q74 0 126 45q18 17 25.5 40.5t-15.5 68.5h-890z" />
<glyph unicode="&#x225;" horiz-adv-x="729" d="M25 0v85l560 858h-507v112h676v-74l-568 -861h568v-120h-7q21 -77 -41 -132q-45 -41 -132 -64q-23 -6 -37 -8l-39 60q74 0 126 46q43 38 14 98h-613z" />
<glyph unicode="&#x226;" horiz-adv-x="1080" d="M25 0l432 1515h216l432 -1515h-154l-130 478h-509l-133 -478h-154zM346 602h440l-221 787zM490 1654v150h150v-150h-150z" />
<glyph unicode="&#x227;" horiz-adv-x="878" d="M72 257.5q0 71.5 18 125t56.5 95t87.5 73.5t122 58q133 47 325 85q0 158 -61 211q-54 47 -157 47q-126 0 -217 -96q-39 -39 -54 -70l-95 63q112 215 381 215q241 0 308 -185q27 -75 27 -182v-549q0 -29 11 -79t20 -69h-133q-30 15 -30 168q-141 -181 -311 -181 q-188 0 -261 132q-37 67 -37 138.5zM204 252q0 -74 52 -113.5t115.5 -39.5t112 19t88.5 49q73 55 109 98v317q-190 -49 -225 -60q-176 -57 -227 -150q-25 -46 -25 -120zM403 1188v150h150v-150h-150z" />
<glyph unicode="&#x228;" horiz-adv-x="1012" d="M135 0v1515h821v-124h-673v-533h483v-124h-483v-601h711v-133h-380q72 -101 72 -198q0 -43 -20 -60.5t-35 -26.5t-35.5 -14t-37 -8t-37.5 -4t-32.5 -1.5t-26.5 0t-16 0.5v94q89 0 118.5 16t29.5 31q0 75 -78 171h-381z" />
<glyph unicode="&#x229;" horiz-adv-x="875" d="M75 502q0 429 251 534q71 30 135 30t109 -11.5t96.5 -47t88.5 -93.5q86 -136 86 -401h-634q0 -267 135 -364q67 -48 149 -48q154 0 262 191l91 -63q-54 -101 -161 -176q-67 -47 -139 -59q69 -97 69 -193q0 -43 -20.5 -60.5t-35.5 -26.5t-35 -14t-36.5 -8t-37.5 -4l-34 -2 q-11 0 -26 0.5t-16 0.5v94q89 0 118.5 16t29.5 31q0 75 -71 163q-93 8 -166 54t-117 117q-91 146 -91 340zM213 625h496q0 149 -69 247q-58 82 -165 82q-175 0 -234 -162q-28 -76 -28 -167z" />
<glyph unicode="&#x22a;" horiz-adv-x="1213" d="M80 753q0 115 19 224t62 211t106.5 177.5t159.5 121t211.5 45.5t208 -46.5t154 -123t103.5 -178.5q79 -192 79 -432q0 -439 -227 -652q-123 -116 -315 -116q-111 0 -205 44.5t-158.5 119t-110 174t-66.5 208t-21 223.5zM228 739q0 -119 23.5 -231.5t71 -203.5t129 -143.5 t180 -52.5t169 39.5t113.5 102.5t71 150q50 154 50 352q0 329 -121 510q-43 65 -113 105.5t-160 40.5t-161.5 -36t-118 -96.5t-77 -145.5t-43.5 -178.5t-13 -212.5zM378 1926v92h527v-92h-527zM406 1654v150h150v-150h-150zM725 1654v150h150v-150h-150z" />
<glyph unicode="&#x22b;" horiz-adv-x="922" d="M75 534.5q0 241.5 108.5 386.5t303.5 145t302.5 -146t107.5 -390t-108.5 -393t-301.5 -149q-197 0 -306 154q-106 151 -106 392.5zM207 528q0 -317 165 -402q50 -26 115 -26t115.5 26t80.5 67t49 99q33 101 33 235q0 427 -279 427t-279 -426zM224 1460v92h527v-92h-527z M252 1188v150h150v-150h-150zM571 1188v150h150v-150h-150z" />
<glyph unicode="&#x22c;" horiz-adv-x="1213" d="M80 753q0 115 19 224t62 211t106.5 177.5t159.5 121t211.5 45.5t208 -46.5t154 -123t103.5 -178.5q79 -192 79 -432q0 -439 -227 -652q-123 -116 -315 -116q-111 0 -205 44.5t-158.5 119t-110 174t-66.5 208t-21 223.5zM228 739q0 -119 23.5 -231.5t71 -203.5t129 -143.5 t180 -52.5t169 39.5t113.5 102.5t71 150q50 154 50 352q0 329 -121 510q-43 65 -113 105.5t-160 40.5t-161.5 -36t-118 -96.5t-77 -145.5t-43.5 -178.5t-13 -212.5zM336 1698q25 72 70 111q52 45 102.5 45t85 -14t56.5 -31q57 -46 108 -46h10q32 3 57 26t37 58l83 -40 q-25 -72 -73.5 -114t-103.5 -42t-96.5 23t-78 45.5t-70.5 22.5h-10q-32 -3 -57 -26t-37 -58zM379 1973v92h527v-92h-527z" />
<glyph unicode="&#x22d;" horiz-adv-x="922" d="M75 534.5q0 241.5 108.5 386.5t303.5 145t302.5 -146t107.5 -390t-108.5 -393t-301.5 -149q-197 0 -306 154q-106 151 -106 392.5zM182 1232q25 72 70 111q52 45 102.5 45t85 -14t56.5 -31q57 -46 108 -46h10q32 3 57 26t37 58l83 -40q-25 -72 -73.5 -114t-103.5 -42 t-96.5 23t-78 45.5t-70.5 22.5h-10q-32 -3 -57 -26t-37 -58zM207 528q0 -317 165 -402q50 -26 115 -26t115.5 26t80.5 67t49 99q33 101 33 235q0 427 -279 427t-279 -426zM216 1507v92h527v-92h-527z" />
<glyph unicode="&#x22e;" horiz-adv-x="1213" d="M80 753q0 115 19 224t62 211t106.5 177.5t159.5 121t211.5 45.5t208 -46.5t154 -123t103.5 -178.5q79 -192 79 -432q0 -439 -227 -652q-123 -116 -315 -116q-111 0 -205 44.5t-158.5 119t-110 174t-66.5 208t-21 223.5zM228 739q0 -119 23.5 -231.5t71 -203.5t129 -143.5 t180 -52.5t169 39.5t113.5 102.5t71 150q50 154 50 352q0 329 -121 510q-43 65 -113 105.5t-160 40.5t-161.5 -36t-118 -96.5t-77 -145.5t-43.5 -178.5t-13 -212.5zM566 1654v150h150v-150h-150z" />
<glyph unicode="&#x22f;" horiz-adv-x="922" d="M75 534.5q0 241.5 108.5 386.5t303.5 145t302.5 -146t107.5 -390t-108.5 -393t-301.5 -149q-197 0 -306 154q-106 151 -106 392.5zM207 528q0 -317 165 -402q50 -26 115 -26t115.5 26t80.5 67t49 99q33 101 33 235q0 427 -279 427t-279 -426zM412 1188v150h150v-150h-150 z" />
<glyph unicode="&#x230;" horiz-adv-x="1213" d="M80 753q0 115 19 224t62 211t106.5 177.5t159.5 121t211.5 45.5t208 -46.5t154 -123t103.5 -178.5q79 -192 79 -432q0 -439 -227 -652q-123 -116 -315 -116q-111 0 -205 44.5t-158.5 119t-110 174t-66.5 208t-21 223.5zM228 739q0 -119 23.5 -231.5t71 -203.5t129 -143.5 t180 -52.5t169 39.5t113.5 102.5t71 150q50 154 50 352q0 329 -121 510q-43 65 -113 105.5t-160 40.5t-161.5 -36t-118 -96.5t-77 -145.5t-43.5 -178.5t-13 -212.5zM378 1926v92h527v-92h-527zM566 1654v150h150v-150h-150z" />
<glyph unicode="&#x231;" horiz-adv-x="922" d="M75 534.5q0 241.5 108.5 386.5t303.5 145t302.5 -146t107.5 -390t-108.5 -393t-301.5 -149q-197 0 -306 154q-106 151 -106 392.5zM207 528q0 -317 165 -402q50 -26 115 -26t115.5 26t80.5 67t49 99q33 101 33 235q0 427 -279 427t-279 -426zM224 1460v92h527v-92h-527z M412 1188v150h150v-150h-150z" />
<glyph unicode="&#x232;" horiz-adv-x="1072" d="M25 1515h154l382 -713l382 713h154l-462 -855v-660h-148v660zM298 1654v92h527v-92h-527z" />
<glyph unicode="&#x233;" horiz-adv-x="855" d="M25 1055h142l299 -859l280 859h134l-368 -1119q-57 -171 -114 -232q-63 -66 -124 -81.5t-124 -15.5t-123 8l10 121q36 -17 96 -17t99 15.5t64 40t45.5 54t32.5 59.5q21 56 30 109zM189 1188v92h527v-92h-527z" />
<glyph unicode="&#x234;" horiz-adv-x="342" d="M-6 -151q66 55 139 96q-4 45 -4 179v1391h132v-1411q0 -41 2 -105q44 11 84 11q86 0 133.5 -52t47.5 -120t-47 -124.5t-128 -56.5q-156 0 -204 191q-59 -38 -114 -89zM272 -97q21 -134 76 -134q36 0 59 21.5t23 47t-22 51t-59.5 25.5t-76.5 -11z" />
<glyph unicode="&#x235;" d="M120 0v1055h132v-173q88 87 167 135.5t186 48.5t181 -70t74 -210v-640q0 -75 2 -109q45 15 84 15q86 0 133.5 -52t47.5 -119.5t-47 -119.5t-128 -52q-134 0 -189 143q-44 -43 -66 -79l-79 54q39 70 118 136q-8 60 -8 203v620q0 75 -53.5 121.5t-115.5 46.5 q-148 0 -307 -173v-781h-132zM870 -66q16 -123 77 -123q36 0 59 21.5t23 47t-22 51t-60 25.5t-77 -22z" />
<glyph unicode="&#x236;" horiz-adv-x="556" d="M36 943v112h178v385h132v-385h242v-112h-242v-583q0 -202 30 -328q74 34 152.5 34t120 -46.5t41.5 -113t-44 -111t-126 -44.5q-140 0 -212 110q-27 -29 -58 -73l-82 60q30 56 93 111q-47 141 -47 421v563h-178zM408 -59q44 -89 114 -89t70 54q0 33 -21 48.5t-64 15.5 t-99 -29z" />
<glyph unicode="&#x237;" horiz-adv-x="312" d="M-63 -225q97 0 140 34t43 162v1084h132v-1055q0 -171 -42 -238q-16 -25 -29 -41.5t-37.5 -28t-40.5 -17t-47 -8.5q-42 -4 -75 -4h-36z" />
<glyph unicode="&#x238;" horiz-adv-x="1566" d="M75 510q0 147 47.5 273t139.5 204.5t196.5 78.5t184.5 -54t99 -95v598h132v-598q19 41 99 95t172 54q180 0 288 -154.5t108 -401.5q0 -147 -55 -278q-64 -150 -182 -210q-66 -33 -135 -33t-120 20t-86 52q-59 54 -89 105q0 -154 -25 -166h-82q-25 12 -25 166 q-102 -177 -284 -177q-91 0 -166 45.5t-121 120.5q-96 157 -96 355zM207 510q0 -177 63 -290q66 -119 209 -119q95 0 156 54q49 43 107 123v525q-106 151 -237 151q-298 0 -298 -444zM874 278q101 -139 178 -164q38 -13 97 -13t112.5 31.5t84.5 87.5q63 113 63 290 q0 444 -298 444q-131 0 -237 -151v-525z" />
<glyph unicode="&#x239;" horiz-adv-x="1590" d="M75 543q0 79 15.5 152.5t47.5 140.5t76 118q98 112 244 112q143 0 260 -127q24 -26 36 -48v164h132v-164q24 45 79 90q104 85 217 85q210 0 320 -230q63 -132 63 -289q0 -276 -135 -439q-98 -119 -261 -119q-92 0 -178 55.5t-105 95.5v-550h-132v550q-19 -40 -105 -95.5 t-172.5 -55.5t-154 32t-112.5 86.5t-76 127t-45 151t-14 157.5zM207 554.5q0 -111.5 17 -191.5t45 -129t67 -80q70 -53 155 -53q156 0 263 153v525q-60 82 -104 115q-76 60 -170.5 60t-157 -55t-89 -144t-26.5 -200.5zM886 254q46 -66 112 -109.5t125.5 -43.5t100 11.5 t80 42t67.5 79.5q62 108 62 313q0 250 -115 352q-63 55 -157 55q-126 0 -219 -106q-25 -27 -56 -69v-525z" />
<glyph unicode="&#x23a;" horiz-adv-x="1080" d="M25 0l432 1515h216l48 -169l77 211l142 12l-158 -435l323 -1134h-154l-130 478h-278l-204 -560l-143 -12l209 572h-93l-133 -478h-154zM346 602h104l190 520l-75 267zM588 602h198l-86 307z" />
<glyph unicode="&#x23b;" horiz-adv-x="1124" d="M52 -38l135 289q-107 206 -107 508q0 388 178 607q61 75 153.5 120.5t192 45.5t169.5 -28l23 50h142l-54 -116q111 -91 174 -264q15 -39 20 -62l6 -24v-1l-152 -41q-25 182 -104 272l-493 -1056q99 -154 283 -154q78 0 140 27.5t98 67t60 91.5q42 86 44 169l146 -23 q-4 -11 -18.5 -54t-24.5 -70t-32.5 -73.5t-45 -77.5t-60 -68.5t-79.5 -59.5q-101 -53 -228 -53q-211 0 -345 145l-78 -167h-143zM228 759q0 -199 39 -337l453 969q-46 17 -102 17q-390 0 -390 -649z" />
<glyph unicode="&#x23c;" horiz-adv-x="876" d="M9 -236l170 364q-104 134 -104 392q0 546 425 546q60 0 109 -17l144 307h122l-169 -362q40 -33 70 -78t40 -74l10 -29l-106 -48q-13 68 -63 123l-336 -719q71 -68 179 -68q95 0 158 73q55 63 74 112l9 22l104 -50q-35 -97 -115 -176q-36 -35 -98 -64t-132 -29 q-140 0 -235 60l-133 -285h-123zM207 529q0 -148 42 -251l312 668q-29 8 -61 8q-293 0 -293 -425z" />
<glyph unicode="&#x23d;" horiz-adv-x="962" d="M25 677v124h142v714h148v-714h268v-124h-268v-535h672v-142h-820v677h-142z" />
<glyph unicode="&#x23e;" horiz-adv-x="1012" d="M25 1391v124h762l60 129h142l-60 -129h108v-124h-166l-266 -569v-822h-148v505l-236 -505h-143l379 810v581h-432zM605 1127l124 264h-124v-264z" />
<glyph unicode="&#x23f;" horiz-adv-x="828" d="M80 200l99 64q53 -82 118 -122.5t159 -40.5q98 0 159 53q51 44 51 108t-22 102t-62 62q-67 38 -139.5 55.5t-114 32t-85.5 39.5t-76 56q-73 71 -73 187.5t93.5 193t238.5 76.5q171 0 289 -123q22 -23 37 -45l-91 -68q-7 7 -28 29.5t-27 28.5l-26 21q-18 16 -30 21l-34 12 q-32 12 -108 12t-131 -43.5t-55 -95.5t18 -83.5t54 -54.5q60 -37 135 -59.5t99.5 -30.5t66 -24.5t65 -31.5t53.5 -39.5t46 -51.5q39 -68 39 -148q0 -133 -101 -218t-239 -85q-20 0 -52 2q5 -17 11.5 -50.5t11.5 -52.5q13 -51 49 -81t79.5 -30t92.5 25l34 -94 q-71 -32 -143 -32t-120 40.5t-69.5 84t-25.5 79.5q-13 97 -52 142q-114 49 -194 178z" />
<glyph unicode="&#x240;" horiz-adv-x="729" d="M25 0v85l560 858h-507v112h676v-74l-568 -861q94 0 152 -57q25 -24 47 -48q52 -57 119 -57q99 0 151 123l99 -57q-44 -94 -109.5 -140.5t-128 -46.5t-104 17t-69.5 40l-54 48q-63 58 -128 58h-136z" />
<glyph unicode="&#x241;" horiz-adv-x="813" d="M93 1314q53 100 128 150.5t190 50.5t195.5 -55t123 -143t42.5 -179t-36.5 -170.5t-87.5 -141.5l-104 -122q-124 -141 -124 -235v-469h-132v469q0 124 123 269l102 121q123 145 123 261t-69 191t-139.5 75t-112 -15.5t-65 -41.5t-57.5 -83z" />
<glyph unicode="&#x242;" horiz-adv-x="785" d="M75 903q53 100 128 150.5t190 50.5t195.5 -55t123 -143t42.5 -179t-36.5 -170.5t-87.5 -142.5l-104 -120q-124 -142 -124 -236v-59h-132v59q0 124 123 270l102 120q123 145 123 261t-69 191t-139.5 75t-112 -15.5t-65 -41.5t-57.5 -83z" />
<glyph unicode="&#x243;" horiz-adv-x="1082" d="M13 395v124h122v996h473q183 0 302 -104.5t119 -258.5q0 -255 -178 -326q-31 -13 -77 -26q164 -42 246 -197q44 -85 44 -193q0 -187 -117 -298.5t-339 -111.5h-473v395h-122zM283 124h325q163 0 238 68q32 29 55 85t23 133q0 142 -87 229t-229 87h-325v-207h254v-124 h-254v-271zM283 853h325q140 0 212 71q30 29 52.5 88t22.5 140q0 117 -73.5 178t-213.5 61h-325v-538z" />
<glyph unicode="&#x244;" horiz-adv-x="1163" d="M29 681v124h106v710h148v-710h651v710h151v-710h94v-124h-94v-226q0 -164 -89 -293q-120 -178 -387 -178q-319 0 -429 254q-45 106 -45 217v226h-106zM283 455q0 -136 66 -229q83 -118 260 -118q264 0 313 238q12 55 12 109v226h-651v-226z" />
<glyph unicode="&#x245;" horiz-adv-x="1054" d="M25 0l450 1515h154l450 -1515h-154l-373 1256l-373 -1256h-154z" />
<glyph unicode="&#x246;" horiz-adv-x="1012" d="M135 0v1515h602l23 63l141 13l-27 -76h82v-124h-127l-195 -533h132v-124h-177l-219 -601h624v-133h-672l-22 -60l-143 -12l27 72h-49zM283 272l169 462h-169v-462zM283 858h214l194 533h-408v-533z" />
<glyph unicode="&#x247;" horiz-adv-x="875" d="M36 -257l171 366q-132 142 -132 393q0 429 251 534q71 30 155.5 30t154.5 -39l144 308h122l-178 -381q117 -138 117 -441h-323l-171 -367q65 -45 144 -45q154 0 262 191l91 -63q-39 -72 -102 -130q-120 -110 -239 -110t-207 48l-137 -294h-123zM207 513q0 -172 59 -278 l130 278h-189zM213 625h235l139 297q-48 32 -112 32t-113 -23t-76.5 -57.5t-44.5 -81.5q-28 -76 -28 -167zM571 625h138q0 114 -44 202z" />
<glyph unicode="&#x248;" horiz-adv-x="846" d="M25 244l103 53q24 -64 88 -123q27 -25 73 -45.5t97 -20.5q122 0 174.5 83.5t52.5 237.5v248h-251v124h251v714h148v-714h125v-124h-125v-248q0 -326 -217 -417q-69 -28 -153 -28t-150 26.5t-103 60t-65 76.5q-40 61 -48 97z" />
<glyph unicode="&#x249;" horiz-adv-x="312" d="M-81 508v112h201v435h132v-435h191v-112h-191v-508q0 -168 -42 -236q-32 -54 -60 -68t-45.5 -20t-46.5 -9q-40 -4 -74.5 -4h-38.5l-8 112q97 0 140 34t43 162v537h-201zM111 1188v150h150v-150h-150z" />
<glyph unicode="&#x24a;" horiz-adv-x="1272" d="M92 779q0 113 22 218.5t68 201t109.5 168.5t154 116.5t175 43.5t147.5 -20t109 -48.5t86 -64.5q69 -63 100 -117l25 234h123v-1511q0 -209 80 -281q87 -79 236 -79v-141q-159 0 -281 55q-125 55 -162 204q-21 88 -21 243v202q-26 -52 -136 -127q-129 -89 -256.5 -89 t-223.5 46t-161 123.5t-109.5 181t-64.5 216t-20 225.5zM240 794q0 -158 28.5 -276.5t74.5 -193t108.5 -124t125.5 -69.5t130 -20t138.5 42t121.5 95t96 118v750q-92 125 -138 171q-116 116 -252.5 116t-236.5 -87.5t-148 -225.5t-48 -296z" />
<glyph unicode="&#x24b;" horiz-adv-x="946" d="M75 543q0 79 15.5 152.5t47.5 140.5t76 118q98 112 244 112q143 0 260 -127q24 -26 36 -48l17 164h115v-1057q0 -146 56 -196q33 -31 136 -31v-123q-115 0 -196 38q-88 40 -113 142q-15 62 -15 171v141q-19 -40 -105 -95.5t-172.5 -55.5t-154 32t-112.5 86.5t-76 127 t-45 151t-14 157.5zM207 554.5q0 -111.5 17 -191.5t45 -129t67 -80q70 -53 155 -53q156 0 263 153v525q-60 82 -104 115q-76 60 -170.5 60t-157 -55t-89 -144t-26.5 -200.5z" />
<glyph unicode="&#x24c;" horiz-adv-x="1043" d="M-152 692v124h287v699h510q239 0 358 -186q65 -101 65 -212q0 -134 -64 -245q-70 -122 -228 -156l286 -716h-162l-276 692h-341v-692h-148v692h-287zM283 816h376q105 0 179 66q82 73 82 228q0 206 -222 264q-66 17 -144 17h-271v-575z" />
<glyph unicode="&#x24d;" horiz-adv-x="589" d="M-40 462v112h160v481h132v-284q47 104 72 143q98 152 254 152q12 0 36 -2v-112q-68 -9 -113 -25.5t-88 -52.5q-75 -62 -161 -247v-53h232v-112h-232v-462h-132v462h-160z" />
<glyph unicode="&#x24e;" horiz-adv-x="1072" d="M25 1515h154l146 -273h472l146 273h154l-148 -273h108v-124h-175l-247 -458v-660h-148v660l-247 458h-185v124h118zM392 1118l169 -316l169 316h-338z" />
<glyph unicode="&#x24f;" horiz-adv-x="855" d="M-12 564v112h173l-136 379h142l132 -379h324l123 379h134l-125 -379h161v-112h-197l-207 -628q-57 -171 -114 -232q-63 -66 -124 -81.5t-124 -15.5t-123 8l10 121q36 -17 96 -17t99 15.5t64 40t45.5 54t32.5 59.5q21 56 30 109l-203 567h-213zM338 564l128 -368l120 368 h-248z" />
<glyph unicode="&#x250;" horiz-adv-x="878" d="M72 1055h133q30 -15 30 -168q141 181 311 181q188 0 261 -132q37 -67 37 -138.5t-18 -125t-56.5 -95t-87.5 -73.5t-122 -58q-133 -47 -325 -85q0 -158 61 -211q54 -47 157 -47q126 0 217 96q39 39 54 70l95 -63q-112 -215 -381 -215q-241 0 -308 185q-27 75 -27 182v549 q0 29 -11 79t-20 69zM235 473q190 49 225 60q176 57 227 150q25 46 25 120t-52 113.5t-115.5 39.5t-112 -19t-88.5 -49q-73 -55 -109 -98v-317z" />
<glyph unicode="&#x253;" horiz-adv-x="944" d="M94 0q26 55 26 146v1114q0 290 128 398q62 53 148 56q62 3 107 -16l-32 -95q-78 22 -137 -39q-82 -83 -82 -304v-343q19 41 99 95t172 54q180 0 288 -154.5t108 -401.5q0 -147 -55 -278q-64 -150 -182 -210q-66 -33 -135 -33t-120 20t-86 52q-59 54 -89 105 q0 -154 -25 -166h-133zM252 278q101 -139 178 -164q38 -13 97 -13t112.5 31.5t84.5 87.5q63 113 63 290q0 444 -298 444q-131 0 -237 -151v-525z" />
<glyph unicode="&#x254;" horiz-adv-x="876" d="M75 797q35 97 115 176q36 35 98 64t132 29q218 0 321.5 -139.5t103.5 -391.5q0 -546 -425 -546q-105 0 -177 50q-71 50 -94 90q-40 68 -55 113l106 48q2 -20 21.5 -59t41.5 -64t63.5 -45.5t93.5 -20.5q293 0 293 425q0 206 -77.5 317t-215.5 111q-95 0 -158 -73 q-55 -63 -74 -112l-9 -22z" />
<glyph unicode="&#x255;" horiz-adv-x="876" d="M75 520q0 546 425 546q105 0 177 -50q71 -50 94 -90q40 -68 55 -113l-106 -48q-2 20 -21.5 59t-41.5 64t-63.5 45.5t-93.5 20.5q-293 0 -293 -425q0 -335 179 -408q91 267 270 267q73 0 119 -51.5t46 -116.5q0 -92 -84 -161.5t-237 -69.5q-26 0 -38 1q-8 -39 -12 -70 l-110 22q1 6 4 19l4 25q3 12 6 23q-279 84 -279 511zM490 101h10q66 0 136 34.5t70 80.5q0 20 -14 41.5t-38 21.5q-105 0 -164 -178z" />
<glyph unicode="&#x256;" horiz-adv-x="934" d="M75 510q0 147 47.5 273t139.5 204.5t196.5 78.5t184.5 -54t99 -95v598h132v-1515q0 -101 31 -138t102 -37q29 0 69 5t40 6v-99q-66 -24 -128.5 -24t-85.5 3t-56 19t-54 45q-50 70 -50 220v166q-102 -177 -284 -177q-91 0 -166 45.5t-121 120.5q-96 157 -96 355zM207 510 q0 -177 63 -290q66 -119 209 -119q95 0 156 54q49 43 107 123v525q-106 151 -237 151q-298 0 -298 -444z" />
<glyph unicode="&#x257;" horiz-adv-x="934" d="M75 510q0 147 47.5 273t139.5 204.5t196.5 78.5t184.5 -54t99 -95v343q0 290 128 398q62 53 148 56q62 3 107 -16l-32 -95q-78 22 -137 -39q-82 -83 -82 -304v-1114q0 -30 8.5 -78.5t17.5 -67.5h-133q-25 12 -25 166q-102 -177 -284 -177q-91 0 -166 45.5t-121 120.5 q-96 157 -96 355zM207 510q0 -177 63 -290q66 -119 209 -119q95 0 156 54q49 43 107 123v525q-106 151 -237 151q-298 0 -298 -444z" />
<glyph unicode="&#x258;" horiz-adv-x="875" d="M75 229l91 63q108 -191 262 -191q82 0 135 38t82 83q67 102 67 291h-634q0 374 174 495q85 58 192 58q185 0 293 -146q107 -144 107 -418q0 -205 -100 -354q-49 -73 -131 -116t-166 -43t-146 26.5t-106 66.5q-81 75 -120 147zM210 625h496q0 236 -149 306q-49 23 -108 23 t-102 -23.5t-68 -59t-41 -81.5q-28 -80 -28 -165z" />
<glyph unicode="&#x259;" horiz-adv-x="875" d="M75 826q39 72 102 130q120 110 237 110t199 -43t131 -116t74.5 -163t25.5 -189t-14 -180.5t-37 -138.5t-56 -101.5t-68 -71.5t-76 -44q-71 -30 -135 -30t-109 11.5t-96.5 47t-88.5 93.5q-86 136 -86 401h634q0 267 -135 364q-67 48 -149 48q-154 0 -262 -191zM210 430 q0 -149 69 -247q58 -82 165 -82q175 0 234 162q28 76 28 167h-496z" />
<glyph unicode="&#x292;" horiz-adv-x="892" d="M25 -175l101 87q14 -33 55.5 -76t76.5 -70q86 -65 185 -65q137 0 239.5 106.5t102.5 256.5q0 284 -546 284v125l477 470h-639v112h837v-108l-462 -474l-2 -3q147 0 282 -78q185 -105 185 -318q0 -149 -66 -261.5t-172.5 -168t-235.5 -55.5q-255 0 -418 236z" />
<glyph unicode="&#x299;" horiz-adv-x="951" d="M120 -6v1061h363q239 0 332 -80q82 -71 82 -186q0 -147 -91 -194q-41 -21 -132 -41q109 -19 180.5 -94.5t71.5 -190.5q0 -171 -124 -227q-106 -48 -319 -48h-363zM252 106h231l85 -1q127 0 170 37q40 34 48 65t8 62q0 99 -86 160t-225 61h-231v-384zM252 602h231 q102 0 146 10q136 33 136 177q0 81 -71 117.5t-211 36.5h-231v-341z" />
<glyph unicode="&#x29c;" horiz-adv-x="926" d="M120 0v1055h132v-442h482v442h132v-1055h-132v501h-482v-501h-132z" />
<glyph unicode="&#x2b0;" horiz-adv-x="490" d="M100 1055v683h66v-282q82 82 142.5 82t96 -34.5t35.5 -97.5v-351h-66v351q0 34 -23 55t-50 21q-63 0 -135 -78v-349h-66z" />
<glyph unicode="&#x2b2;" horiz-adv-x="212" d="M28 848q43 0 60 16t17 61v464h51v-452q0 -98 -38 -120q-29 -17 -87 -17zM100 1453v62h62v-62h-62z" />
<glyph unicode="&#x2b3;" horiz-adv-x="379" d="M100 1055v460h66v-128q30 69 62 101t85 32l16 -1v-56q-59 -8 -92 -36.5t-71 -110.5v-261h-66z" />
<glyph unicode="&#x2b7;" horiz-adv-x="724" d="M100 1515h59l103 -358l91 358h59l99 -360l98 360h65l-136 -460h-55l-101 349l-90 -349h-63z" />
<glyph unicode="&#x2b8;" horiz-adv-x="539" d="M100 1515h68l133 -368l124 368h64l-168 -491q-40 -114 -96 -137q-27 -11 -60.5 -11t-61.5 4l4 60q16 -8 55 -8t67.5 31.5t34.5 62.5l7 32z" />
<glyph unicode="&#x2b9;" horiz-adv-x="402" d="M70 1100l177 378l111 -52l-203 -364z" />
<glyph unicode="&#x2ba;" horiz-adv-x="527" d="M70 1046l87 250h-65v150h150v-150q-27 -57 -76 -152t-52 -98h-44zM335 1046l87 250h-65v150h150v-150q-27 -57 -76 -152t-52 -98h-44z" />
<glyph unicode="&#x2bc;" horiz-adv-x="284" d="M70 1046l87 250h-65v150h150v-150q-27 -57 -76 -152t-52 -98h-44z" />
<glyph unicode="&#x2c4;" horiz-adv-x="574" d="M90 1197l222 222l222 -222l-66 -64l-156 156l-157 -157z" />
<glyph unicode="&#x2c6;" horiz-adv-x="574" d="M90 1197l222 222l222 -222l-66 -64l-156 156l-157 -157z" />
<glyph unicode="&#x2c7;" horiz-adv-x="574" d="M90 1354l65 65l157 -157l156 156l66 -64l-222 -222z" />
<glyph unicode="&#x2c8;" horiz-adv-x="284" d="M70 1046l87 250h-65v150h150v-150q-27 -57 -76 -152t-52 -98h-44z" />
<glyph unicode="&#x2d8;" horiz-adv-x="480" d="M59 1250l69 40q18 -42 57 -69t80 -27t80 27t57 69l69 -40q-65 -135 -206 -135t-206 135z" />
<glyph unicode="&#x2d9;" horiz-adv-x="425" d="M-75 122v150h150v-150h-150z" />
<glyph unicode="&#x2da;" horiz-adv-x="425" d="M-254 384q0 106 74.5 180.5t180 74.5t180.5 -74.5t75 -180.5t-75 -180.5t-180.5 -74.5t-180 74.5t-74.5 180.5zM-158 384q0 -65 46 -111.5t111.5 -46.5t112 46.5t46.5 111.5t-46.5 111.5t-112 46.5t-111.5 -46.5t-46 -111.5z" />
<glyph unicode="&#x2db;" horiz-adv-x="300" d="M13 -198q0 96 73 198h98q-78 -96 -78 -171q0 -36 116 -45q19 -2 32 -2v-94l-36 -1q-205 0 -205 115z" />
<glyph unicode="&#x2dc;" horiz-adv-x="425" d="M-304 166q25 72 70 111q52 45 102.5 45t85 -14t56.5 -31q57 -46 108 -46h10q32 3 57 26t37 58l83 -40q-25 -72 -73.5 -114t-103.5 -42t-96.5 23t-78 45.5t-70.5 22.5h-10q-32 -3 -57 -26t-37 -58z" />
<glyph unicode="&#x2dd;" horiz-adv-x="425" d="M-154 122l87 250h-65v150h150v-150q-27 -57 -76 -152t-52 -98h-44zM111 122l87 250h-65v150h150v-150q-27 -57 -76 -152t-52 -98h-44z" />
<glyph unicode="&#x2e1;" horiz-adv-x="216" d="M100 1055v671h66v-671h-66z" />
<glyph unicode="&#x2e2;" horiz-adv-x="477" d="M100 1147l45 32q49 -74 125 -74q35 0 63 17.5t28 47.5t-7.5 44t-15.5 22t-27 16q-26 10 -59 17q-150 33 -150 125q0 58 44.5 95.5t97 37.5t87.5 -17q50 -24 76 -61l-45 -34q-4 4 -11 12t-11 11q-28 26 -41 28q-24 5 -54 5t-53.5 -19.5t-23.5 -41.5t6 -33.5t13 -18.5 t24 -14q20 -9 41 -15l40 -12q19 -6 22.5 -7t20.5 -7t21.5 -9t18 -10t18 -13t13.5 -15.5t12 -19.5q9 -28 9 -48q0 -60 -46.5 -99.5t-109.5 -39.5q-111 0 -171 98z" />
<glyph unicode="&#x2e3;" horiz-adv-x="526" d="M100 1055l149 236l-144 224h73l110 -170l109 170h73l-150 -221l156 -239h-73l-120 182l-110 -182h-73z" />
<glyph unicode="&#x300;" horiz-adv-x="633" d="M179 1368l87 87l295 -295l-66 -65z" />
<glyph unicode="&#x301;" horiz-adv-x="633" d="M122 1160l295 295l87 -87l-316 -273z" />
<glyph unicode="&#x302;" horiz-adv-x="574" d="M90 1197l222 222l222 -222l-66 -64l-156 156l-157 -157z" />
<glyph unicode="&#x303;" horiz-adv-x="739" d="M90 1159q25 72 70 111q52 45 102.5 45t85 -14t56.5 -31q57 -46 108 -46h10q32 3 57 26t37 58l83 -40q-25 -72 -73.5 -114t-103.5 -42t-96.5 23t-78 45.5t-70.5 22.5h-10q-32 -3 -57 -26t-37 -58z" />
<glyph unicode="&#x305;" horiz-adv-x="886" d="M0 1640v92h936v-92h-936z" />
<glyph unicode="&#x308;" horiz-adv-x="603" d="M92 1203v150h150v-150h-150zM411 1203v150h150v-150h-150z" />
<glyph unicode="&#x30a;" horiz-adv-x="610" d="M75 1242q0 106 74.5 180.5t180.5 74.5t180.5 -74.5t74.5 -180.5t-74.5 -180.5t-180.5 -74.5t-180.5 74.5t-74.5 180.5zM171 1242q0 -65 46.5 -111.5t111.5 -46.5t111.5 46.5t46.5 111.5t-46.5 111.5t-111.5 46.5t-111.5 -46.5t-46.5 -111.5z" />
<glyph unicode="&#x30b;" horiz-adv-x="527" d="M70 1046l87 250h-65v150h150v-150q-27 -57 -76 -152t-52 -98h-44zM335 1046l87 250h-65v150h150v-150q-27 -57 -76 -152t-52 -98h-44z" />
<glyph unicode="&#x30c;" horiz-adv-x="574" d="M90 1354l65 65l157 -157l156 156l66 -64l-222 -222z" />
<glyph unicode="&#x30e;" horiz-adv-x="527" d="M70 1046l87 250h-65v150h150v-150q-27 -57 -76 -152t-52 -98h-44zM335 1046l87 250h-65v150h150v-150q-27 -57 -76 -152t-52 -98h-44z" />
<glyph unicode="&#x30f;" horiz-adv-x="986" d="M179 1368l87 87l295 -295l-66 -65zM532 1368l87 87l295 -295l-66 -65z" />
<glyph unicode="&#x310;" horiz-adv-x="480" d="M59 1250l69 40q18 -42 57 -69t80 -27t80 27t57 69l69 -40q-65 -135 -206 -135t-206 135zM192 1334v150h150v-150h-150z" />
<glyph unicode="&#x311;" horiz-adv-x="480" d="M59 1155q65 135 206 135t206 -135l-69 -40q-18 42 -57 69t-80 27t-80 -27t-57 -69z" />
<glyph unicode="&#x312;" horiz-adv-x="284" d="M70 1106v150q27 57 76 152t52 98h44l-87 -250h65v-150h-150z" />
<glyph unicode="&#x313;" horiz-adv-x="284" d="M70 1106l87 250h-65v150h150v-150q-27 -57 -76 -152t-52 -98h-44z" />
<glyph unicode="&#x314;" horiz-adv-x="284" d="M70 1356v150h150v-150h-65l87 -250h-44q-3 3 -52 98t-76 152z" />
<glyph unicode="&#x315;" horiz-adv-x="284" d="M92 1106l87 250h-65v150h150v-150q-27 -57 -76 -152t-52 -98h-44z" />
<glyph unicode="&#x31b;" horiz-adv-x="300" d="M52 -175q124 50 124 121q0 28 -35 64.5t-55 47.5l81 63q33 -20 70 -63.5t37 -87.5t-23 -79t-59 -60q-51 -36 -87 -53z" />
<glyph unicode="&#x322;" horiz-adv-x="300" d="M52 -30q0 44 37 87.5t70 63.5l81 -63q-20 -11 -55 -47.5t-35 -68.5t31 -62.5t62 -42.5l31 -12l-53 -47q-103 48 -146 113q-23 35 -23 79z" />
<glyph unicode="&#x323;" horiz-adv-x="284" d="M92 -111h150v-150h-150v150z" />
<glyph unicode="&#x324;" horiz-adv-x="603" d="M92 -87h150v-150h-150v150zM411 -87h150v-150h-150v150z" />
<glyph unicode="&#x327;" horiz-adv-x="300" d="M22 -218q89 0 118.5 16t29.5 31q0 75 -78 171h98q73 -102 73 -198q0 -115 -205 -115l-36 1v94z" />
<glyph unicode="&#x337;" horiz-adv-x="930" d="M-156 348v108l744 744v-109z" />
<glyph unicode="&#x341;" horiz-adv-x="633" d="M122 1160l295 295l87 -87l-316 -273z" />
<glyph unicode="&#x344;" horiz-adv-x="603" d="M92 1203v150h150v-150h-150zM260 1540l295 295l87 -87l-316 -273zM411 1203v150h150v-150h-150z" />
<glyph unicode="&#x345;" horiz-adv-x="412" d="M165 -87h132v-315h-132v315z" />
<glyph unicode="&#x370;" horiz-adv-x="946" d="M135 0v1515h148v-657h688v-124h-688v-734h-148z" />
<glyph unicode="&#x371;" horiz-adv-x="683" d="M94 0v1055h132v-442h482v-112h-482v-501h-132z" />
<glyph unicode="&#x372;" horiz-adv-x="1098" d="M68 807v708h1012v-708h-148v584h-284v-1391h-148v1391h-284v-584h-148z" />
<glyph unicode="&#x373;" horiz-adv-x="916" d="M120 0v1055h736v-1054h-132v942h-170v-1353h-132v1353h-170v-943h-132z" />
<glyph unicode="&#x374;" horiz-adv-x="284" d="M70 1046l87 250h-65v150h150v-150q-27 -57 -76 -152t-52 -98h-44z" />
<glyph unicode="&#x376;" horiz-adv-x="1201" d="M128 0v1515h148v-1154l611 1154h236v-1515h-148v1368l-720 -1368h-127z" />
<glyph unicode="&#x377;" horiz-adv-x="912" d="M120 0v1055h132v-719l403 719h197v-1055h-132v876l-484 -876h-116z" />
<glyph unicode="&#x37b;" horiz-adv-x="851" d="M75 112l62 86q34 -34 116.5 -65.5t147.5 -31.5q138 0 215.5 111t77.5 317q0 425 -293 425q-76 0 -143.5 -24t-90.5 -58l-84 72q32 57 115 89.5t203 32.5q425 0 425 -546q0 -252 -103.5 -391.5t-321.5 -139.5q-103 0 -194.5 34t-131.5 89z" />
<glyph unicode="&#x37c;" horiz-adv-x="857" d="M75 520q0 546 425 546q120 0 203 -32.5t115 -89.5l-84 -72q-23 34 -90.5 58t-143.5 24q-293 0 -293 -425q0 -206 77.5 -317t215.5 -111q65 0 147.5 31.5t116.5 65.5l62 -86q-40 -55 -131.5 -89t-194.5 -34q-218 0 -321.5 139.5t-103.5 391.5zM407 447v150h150v-150h-150z " />
<glyph unicode="&#x37d;" horiz-adv-x="851" d="M75 115l62 86q34 -34 116.5 -65.5t147.5 -31.5q138 0 215.5 111t77.5 317q0 425 -293 425q-76 0 -143.5 -24t-90.5 -58l-84 72q32 57 115 89.5t203 32.5q425 0 425 -546q0 -252 -103.5 -391.5t-321.5 -139.5q-103 0 -194.5 34t-131.5 89zM336 447v150h150v-150h-150z" />
<glyph unicode="&#x37e;" horiz-adv-x="284" d="M70 -250l87 250h-65v150h150v-150q-27 -57 -76 -152t-52 -98h-44zM92 905v150h150v-150h-150z" />
<glyph unicode="&#x384;" horiz-adv-x="633" d="M180 1093l156 387l114 -46l-184 -375z" />
<glyph unicode="&#x385;" horiz-adv-x="633" d="M92 1203v150h150v-150h-150zM276 1408l156 387l114 -46l-184 -375zM411 1203v150h150v-150h-150z" />
<glyph unicode="&#x386;" horiz-adv-x="1080" d="M25 0l432 1515h216l432 -1515h-154l-130 478h-509l-133 -478h-154zM53 1136l156 387l114 -46l-184 -375zM346 602h440l-221 787z" />
<glyph unicode="&#x387;" horiz-adv-x="284" d="M92 786v150h150v-150h-150z" />
<glyph unicode="&#x388;" horiz-adv-x="1012" d="M-219 1133l156 387l114 -46l-184 -375zM135 0v1515h821v-124h-673v-533h483v-124h-483v-601h711v-133h-859z" />
<glyph unicode="&#x389;" horiz-adv-x="1204" d="M-210 1135l156 387l114 -46l-184 -375zM135 0v1515h148v-657h688v657h148v-1515h-148v734h-688v-734h-148z" />
<glyph unicode="&#x38a;" horiz-adv-x="368" d="M-210 1135l156 387l114 -46l-184 -375zM135 0v1515h148v-1515h-148z" />
<glyph unicode="&#x38c;" horiz-adv-x="1213" d="M-109 1135l156 387l114 -46l-184 -375zM80 753q0 115 19 224t62 211t106.5 177.5t159.5 121t211.5 45.5t208 -46.5t154 -123t103.5 -178.5q79 -192 79 -432q0 -439 -227 -652q-123 -116 -315 -116q-111 0 -205 44.5t-158.5 119t-110 174t-66.5 208t-21 223.5zM228 739 q0 -119 23.5 -231.5t71 -203.5t129 -143.5t180 -52.5t169 39.5t113.5 102.5t71 150q50 154 50 352q0 329 -121 510q-43 65 -113 105.5t-160 40.5t-161.5 -36t-118 -96.5t-77 -145.5t-43.5 -178.5t-13 -212.5z" />
<glyph unicode="&#x38e;" horiz-adv-x="1072" d="M-279 1136l156 387l114 -46l-184 -375zM25 1515h154l382 -713l382 713h154l-462 -855v-660h-148v660z" />
<glyph unicode="&#x38f;" horiz-adv-x="1305" d="M-109 1133l156 387l114 -46l-184 -375zM80 0v142h230q-107 107 -168.5 292.5t-61.5 334.5t23.5 256t73 199.5t120.5 161.5q152 146 390 146q329 0 493 -316q95 -185 95 -391t-56.5 -391.5t-159.5 -291.5h216v-142h-433v142q71 34 128 108.5t90 167.5q67 190 67 383 q0 235 -103 413q-51 89 -138 141.5t-199.5 52.5t-201 -46.5t-144.5 -129.5q-113 -167 -113 -407t79.5 -429.5t218.5 -253.5v-142h-446z" />
<glyph unicode="&#x390;" horiz-adv-x="412" d="M-4 1188v150h150v-150h-150zM165 0v1055h132v-1055h-132zM180 1393l156 387l114 -46l-184 -375zM315 1188v150h150v-150h-150z" />
<glyph unicode="&#x391;" horiz-adv-x="1080" d="M25 0l432 1515h216l432 -1515h-154l-130 478h-509l-133 -478h-154zM346 602h440l-221 787z" />
<glyph unicode="&#x392;" horiz-adv-x="1082" d="M135 0v1515h473q183 0 302 -104.5t119 -258.5q0 -255 -178 -326q-31 -13 -77 -26q164 -42 246 -197q44 -85 44 -193q0 -187 -117 -298.5t-339 -111.5h-473zM283 124h325q163 0 238 68q32 29 55 85t23 133q0 142 -87 229t-229 87h-325v-602zM283 853h325q140 0 212 71 q30 29 52.5 88t22.5 140q0 117 -73.5 178t-213.5 61h-325v-538z" />
<glyph unicode="&#x393;" horiz-adv-x="930" d="M135 0v1515h820v-142h-672v-1373h-148z" />
<glyph unicode="&#x394;" horiz-adv-x="1226" d="M68 0v107l517 1408h106l517 -1408v-107h-1140zM242 142h792l-396 1114z" />
<glyph unicode="&#x395;" horiz-adv-x="1012" d="M135 0v1515h821v-124h-673v-533h483v-124h-483v-601h711v-133h-859z" />
<glyph unicode="&#x396;" horiz-adv-x="1092" d="M68 0v107l825 1280h-771v128h952v-123l-794 -1250h788v-142h-1000z" />
<glyph unicode="&#x397;" horiz-adv-x="1204" d="M135 0v1515h148v-657h688v657h148v-1515h-148v734h-688v-734h-148z" />
<glyph unicode="&#x398;" horiz-adv-x="1213" d="M80 753q0 115 19 224t62 211t106.5 177.5t159.5 121t211.5 45.5t208 -46.5t154 -123t103.5 -178.5q79 -192 79 -432q0 -439 -227 -652q-123 -116 -315 -116q-111 0 -205 44.5t-158.5 119t-110 174t-66.5 208t-21 223.5zM228 739q0 -119 23.5 -231.5t71 -203.5t129 -143.5 t180 -52.5t169 39.5t113.5 102.5t71 150q50 154 50 352q0 329 -121 510q-43 65 -113 105.5t-160 40.5t-161.5 -36t-118 -96.5t-77 -145.5t-43.5 -178.5t-13 -212.5zM263 734v124h737v-124h-737z" />
<glyph unicode="&#x399;" horiz-adv-x="368" d="M135 0v1515h148v-1515h-148z" />
<glyph unicode="&#x39a;" horiz-adv-x="1090" d="M135 0v1515h149v-824l617 824h159l-434 -569l489 -946h-166l-417 822l-248 -327v-495h-149z" />
<glyph unicode="&#x39b;" horiz-adv-x="1054" d="M25 0l450 1515h154l450 -1515h-154l-373 1256l-373 -1256h-154z" />
<glyph unicode="&#x39c;" horiz-adv-x="1407" d="M128 0v1515h268l324 -1163h10l324 1163h268v-1515h-148v1374h-10l-382 -1374h-114l-382 1374h-10v-1374h-148z" />
<glyph unicode="&#x39d;" horiz-adv-x="1201" d="M128 0v1515h236l611 -1154v1154h148v-1515h-127l-720 1368v-1368h-148z" />
<glyph unicode="&#x39e;" horiz-adv-x="894" d="M40 0v142h859v-142h-859zM40 1372v142h859v-142h-859zM154 725v142h631v-142h-631z" />
<glyph unicode="&#x39f;" horiz-adv-x="1213" d="M80 753q0 115 19 224t62 211t106.5 177.5t159.5 121t211.5 45.5t208 -46.5t154 -123t103.5 -178.5q79 -192 79 -432q0 -439 -227 -652q-123 -116 -315 -116q-111 0 -205 44.5t-158.5 119t-110 174t-66.5 208t-21 223.5zM228 739q0 -119 23.5 -231.5t71 -203.5t129 -143.5 t180 -52.5t169 39.5t113.5 102.5t71 150q50 154 50 352q0 329 -121 510q-43 65 -113 105.5t-160 40.5t-161.5 -36t-118 -96.5t-77 -145.5t-43.5 -178.5t-13 -212.5z" />
<glyph unicode="&#x3a0;" horiz-adv-x="1190" d="M131 0v1515h981v-1515h-148v1391h-688v-1391h-145z" />
<glyph unicode="&#x3a1;" horiz-adv-x="1086" d="M135 0v1515h529q235 0 346 -186q58 -98 58 -195.5t-22 -170t-67.5 -135t-126.5 -99.5t-188 -37h-381v-692h-148zM283 816h280q162 0 259.5 71t97.5 217t-98 216.5t-259 70.5h-280v-575z" />
<glyph unicode="&#x3a3;" horiz-adv-x="1086" d="M68 0v107l412 637l-412 648v127h952v-132h-771l415 -643l-384 -602h788v-142h-1000z" />
<glyph unicode="&#x3a4;" horiz-adv-x="1012" d="M25 1391v124h1012v-124h-432v-1391h-148v1391h-432z" />
<glyph unicode="&#x3a5;" horiz-adv-x="1072" d="M25 1515h154l382 -713l382 713h154l-462 -855v-660h-148v660z" />
<glyph unicode="&#x3a6;" horiz-adv-x="1276" d="M80 758q0 149 59 283.5t177 230.5t273 115v128h148v-129q152 -19 270.5 -114.5t178.5 -230.5t60 -283t-60 -283t-178.5 -230.5t-270.5 -114.5v-130h-148v130q-154 19 -272 114.5t-177.5 230t-59.5 283.5zM228 758q0 -250 164 -404q84 -79 197 -99v1005q-111 -20 -195 -98 q-166 -156 -166 -404zM737 256q110 20 194 98.5t125.5 184t41.5 219.5t-41.5 219.5t-125.5 184t-194 98.5v-1004z" />
<glyph unicode="&#x3a7;" horiz-adv-x="1033" d="M25 0l437 773l-419 742h154l359 -634l348 634h154l-428 -765l425 -750h-156l-359 636l-359 -636h-156z" />
<glyph unicode="&#x3a8;" horiz-adv-x="1108" d="M68 962v553h148v-553q0 -214 80.5 -324.5t208.5 -132.5v1010h148v-1010q123 23 201 123q88 112 88 334v553h148v-553q0 -398 -272 -531q-75 -37 -165 -47v-384h-148v384q-181 20 -303 151q-134 143 -134 427z" />
<glyph unicode="&#x3a9;" horiz-adv-x="1305" d="M80 0v142h230q-107 107 -168.5 292.5t-61.5 334.5t23.5 256t73 199.5t120.5 161.5q152 146 390 146q329 0 493 -316q95 -185 95 -391t-56.5 -391.5t-159.5 -291.5h216v-142h-433v142q71 34 128 108.5t90 167.5q67 190 67 383q0 235 -103 413q-51 89 -138 141.5 t-199.5 52.5t-201 -46.5t-144.5 -129.5q-113 -167 -113 -407t79.5 -429.5t218.5 -253.5v-142h-446z" />
<glyph unicode="&#x3aa;" horiz-adv-x="368" d="M-26 1654v150h150v-150h-150zM135 0v1515h148v-1515h-148zM293 1654v150h150v-150h-150z" />
<glyph unicode="&#x3ab;" horiz-adv-x="1072" d="M25 1515h154l382 -713l382 713h154l-462 -855v-660h-148v660zM326 1654v150h150v-150h-150zM645 1654v150h150v-150h-150z" />
<glyph unicode="&#x3ac;" horiz-adv-x="1002" d="M75 526q0 402 256 509q74 31 137 31t103 -8t86 -27q104 -43 152 -153q37 158 73 177h138q-54 -33 -137 -470q6 -128 42 -321t71 -264h-140q-1 4 -18 50q-36 97 -47 173q-41 -102 -122 -169.5t-193 -67.5q-179 0 -290 141.5t-111 398.5zM207 526q0 -212 87 -324 q80 -104 182 -104q62 0 113.5 46t83.5 120q62 143 77 294q-7 221 -124 338q-58 58 -132 58q-130 0 -208.5 -105.5t-78.5 -322.5zM477 1222l156 387l114 -46l-184 -375z" />
<glyph unicode="&#x3ad;" horiz-adv-x="818" d="M75 300.5q0 153.5 166 253.5q-36 22 -69 65q-63 82 -63 186.5t97.5 183.5t211.5 79t203.5 -45.5t137.5 -108.5l-75 -73q-34 44 -104 79.5t-146 35.5t-134.5 -41.5t-58.5 -110.5q0 -194 174 -194h165v-112h-165q-99 0 -153.5 -56t-54.5 -154q0 -184 228 -184q54 0 79.5 9 t39 13t32.5 17t26.5 17t27 22.5t23 21.5t24.5 25l22 23l78 -68q-144 -192 -352 -192q-158 0 -259 77.5t-101 231zM390 1224l156 387l114 -46l-184 -375z" />
<glyph unicode="&#x3ae;" d="M120 0v1055h132v-173q88 87 167 135.5t186 48.5t181 -70t74 -210v-1196h-132v1196q0 75 -53.5 121.5t-115.5 46.5q-148 0 -307 -173v-781h-132zM462 1222l156 387l114 -46l-184 -375z" />
<glyph unicode="&#x3af;" horiz-adv-x="412" d="M165 0v1055h132v-1055h-132zM199 1216l156 387l114 -46l-184 -375z" />
<glyph unicode="&#x3b0;" d="M120 381v674h132v-674q0 -113 66 -197t170.5 -84t172 83.5t67.5 197.5v674h132v-674q0 -187 -104 -290t-267.5 -103t-266 103.5t-102.5 289.5zM256 1188v150h150v-150h-150zM440 1393l156 387l114 -46l-184 -375zM575 1188v150h150v-150h-150z" />
<glyph unicode="&#x3b1;" horiz-adv-x="1002" d="M75 526q0 402 256 509q74 31 137 31t103 -8t86 -27q104 -43 152 -153q37 158 73 177h138q-54 -33 -137 -470q6 -128 42 -321t71 -264h-140q-1 4 -18 50q-36 97 -47 173q-41 -102 -122 -169.5t-193 -67.5q-179 0 -290 141.5t-111 398.5zM207 526q0 -212 87 -324 q80 -104 182 -104q62 0 113.5 46t83.5 120q62 143 77 294q-7 221 -124 338q-58 58 -132 58q-130 0 -208.5 -105.5t-78.5 -322.5z" />
<glyph unicode="&#x3b2;" horiz-adv-x="1030" d="M129 -410v1353q0 582 420 582q150 0 245 -97.5t95 -226.5q0 -74 -36.5 -152t-111.5 -137q128 -47 196 -160t68 -274q0 -145 -66 -266q-121 -223 -374 -223q-185 0 -304 119v-518h-132zM261 325q41 -91 128.5 -157.5t158.5 -66.5t123 22t98.5 65t75 118.5t28.5 171.5 q0 175 -101.5 260t-281.5 85v112q131 21 203 94.5t72 166.5t-63.5 155t-147 62t-141 -37t-89.5 -104q-63 -127 -63 -329v-618z" />
<glyph unicode="&#x3b3;" d="M25 980q210 179 349 -169q55 -134 102 -346.5t59 -254.5l276 845h134l-346 -1055q-48 -127 -92 -412h-135q8 82 38.5 215t56.5 197q-30 94 -103 407t-125 419q-76 154 -166 54z" />
<glyph unicode="&#x3b4;" horiz-adv-x="1031" d="M75 523q0 236 130 379t339 143h5l-401 346v124h777v-124h-603l514 -445q44 -39 87 -119q83 -157 83 -311q0 -207 -132 -366q-60 -73 -147 -117t-183 -44q-201 0 -335 149t-134 385zM207 512q0 -195 120 -321q86 -90 217 -90q81 0 146 36.5t104 97.5q80 125 80 297.5 t-87 286.5t-242.5 114t-246.5 -113t-91 -308z" />
<glyph unicode="&#x3b5;" horiz-adv-x="818" d="M75 300.5q0 153.5 166 253.5q-36 22 -69 65q-63 82 -63 186.5t97.5 183.5t211.5 79t203.5 -45.5t137.5 -108.5l-75 -73q-34 44 -104 79.5t-146 35.5t-134.5 -41.5t-58.5 -110.5q0 -194 174 -194h165v-112h-165q-99 0 -153.5 -56t-54.5 -154q0 -184 228 -184q54 0 79.5 9 t39 13t32.5 17t26.5 17t27 22.5t23 21.5t24.5 25l22 23l78 -68q-144 -192 -352 -192q-158 0 -259 77.5t-101 231z" />
<glyph unicode="&#x3b6;" horiz-adv-x="778" d="M75 411q0 232 120 443q73 128 148 218q126 148 193 219l93 100h-491v124h665v-124q-35 -39 -99 -104q-153 -157 -219.5 -233t-111 -144.5t-84.5 -148t-61 -168.5t-21 -174.5t12 -139.5t43 -96q60 -83 225 -83q223 0 274 -134q13 -34 13 -73q0 -86 -61 -147.5t-172 -61.5 l-14 112q115 17 115 90q0 55 -14.5 66t-30.5 20q-28 16 -110 16q-206 0 -309 99t-103 324z" />
<glyph unicode="&#x3b7;" d="M120 0v1055h132v-173q88 87 167 135.5t186 48.5t181 -70t74 -210v-1196h-132v1196q0 75 -53.5 121.5t-115.5 46.5q-148 0 -307 -173v-781h-132z" />
<glyph unicode="&#x3b8;" horiz-adv-x="922" d="M75 756q0 356 108.5 564.5t303.5 208.5q130 0 223 -97q187 -195 187 -677q0 -472 -187 -673q-94 -101 -223.5 -101t-224.5 103q-187 203 -187 672zM208 822h556q-19 575 -277 575q-141 0 -208 -169q-63 -158 -71 -406zM209 690q8 -218 65 -384q31 -89 85.5 -141 t120.5 -52t113.5 35.5t77 91.5t50.5 134q37 136 43 316h-555z" />
<glyph unicode="&#x3b9;" horiz-adv-x="412" d="M165 0v1055h132v-1055h-132z" />
<glyph unicode="&#x3ba;" horiz-adv-x="782" d="M120 2v1053h132v-506l382 506h134l-304 -398l343 -657h-143l-280 553l-132 -176v-375h-132z" />
<glyph unicode="&#x3bb;" horiz-adv-x="855" d="M25 0l376 1050q-1 1 -15 45l-138 420h135l497 -1515h-134l-280 859l-299 -859h-142z" />
<glyph unicode="&#x3bc;" d="M120 -411v1466h132v-786q0 -75 53.5 -121.5t115.5 -46.5q148 0 307 173v781h132v-1055h-132v174q-142 -139 -243 -170q-49 -15 -110.5 -15t-118.5 26v-426h-136z" />
<glyph unicode="&#x3bd;" horiz-adv-x="851" d="M25 1055h138l278 -909h19l278 909h138l-324 -1055h-203z" />
<glyph unicode="&#x3be;" horiz-adv-x="813" d="M75 411q0 102 40.5 211.5t116.5 203.5t172 144q-116 27 -183.5 94.5t-67.5 152.5t34.5 139.5t85 84t118.5 47.5q108 30 234 30q21 0 69 -3v-109q-24 2 -64.5 2t-94.5 -7t-114.5 -24t-98 -55t-37.5 -87t21.5 -82.5t53.5 -51.5t80 -29q74 -17 182 -17h72v-112h-72 q-89 0 -201 -90q-129 -104 -183 -257q-31 -88 -31 -185q0 -136 101.5 -219t242.5 -83q223 0 274 -134q13 -34 13 -73q0 -85 -60.5 -144.5t-172.5 -64.5l-14 112q115 17 115 90q0 55 -14.5 66t-30.5 20q-28 16 -110 16q-221 0 -348.5 105t-127.5 309z" />
<glyph unicode="&#x3bf;" horiz-adv-x="922" d="M75 534.5q0 241.5 108.5 386.5t303.5 145t302.5 -146t107.5 -390t-108.5 -393t-301.5 -149q-197 0 -306 154q-106 151 -106 392.5zM207 528q0 -317 165 -402q50 -26 115 -26t115.5 26t80.5 67t49 99q33 101 33 235q0 427 -279 427t-279 -426z" />
<glyph unicode="&#x3c0;" horiz-adv-x="940" d="M40 943v112h897v-112h-99v-681q0 -156 107 -156v-112q-146 0 -197 70q-43 58 -46 146v52v681h-431v-943h-132v943h-99z" />
<glyph unicode="&#x3c1;" horiz-adv-x="965" d="M129 -410v956q0 131 37 230.5t80.5 156t119.5 95t186.5 38.5t202.5 -71t138.5 -188t46.5 -230t-14 -191.5t-45 -151t-76 -126.5q-98 -119 -261 -119q-92 0 -178 55.5t-105 95.5v-550h-132zM261 254q46 -66 112 -109.5t125.5 -43.5t100 11.5t80 42t67.5 79.5 q62 108 62 313q0 292 -144 376q-53 31 -110 31t-94 -10.5t-75 -38.5t-65 -72q-59 -99 -59 -287v-292z" />
<glyph unicode="&#x3c2;" horiz-adv-x="873" d="M75 534.5q0 241.5 108.5 386.5t303.5 145q130 0 221.5 -49t133.5 -138l-112 -44q-57 119 -243 119q-280 0 -280 -426q0 -317 165 -402q50 -26 123.5 -26t132.5 -18.5t90 -49.5q56 -59 56 -141.5t-60.5 -142t-172.5 -64.5l-14 112q115 17 115 90q0 55 -14.5 66t-30.5 20 q-28 16 -118 16t-168.5 41t-129.5 113q-106 151 -106 392.5z" />
<glyph unicode="&#x3c3;" horiz-adv-x="922" d="M75 522q0 247 108 390t304 143h460v-112h-189q64 -28 101.5 -151.5t37.5 -270.5q0 -240 -108 -386.5t-302 -146.5q-130 0 -224 70q-188 138 -188 464zM207 522q0 -313 165 -396q50 -26 123 -26t132 37t91 101q60 121 60 283q0 314 -148 422h-143q-153 0 -218 -116 q-62 -110 -62 -305z" />
<glyph unicode="&#x3c4;" horiz-adv-x="736" d="M25 943v112h736v-112h-302v-943h-132v943h-302z" />
<glyph unicode="&#x3c5;" d="M120 381v674h132v-674q0 -113 66 -197t170.5 -84t172 83.5t67.5 197.5v674h132v-674q0 -187 -104 -290t-267.5 -103t-266 103.5t-102.5 289.5z" />
<glyph unicode="&#x3c6;" horiz-adv-x="1044" d="M75 528q0 164 65 280.5t146 165.5l56 -84q-135 -108 -135 -362q0 -200 124 -330q64 -68 151 -87v944q35 11 66 11q210 0 340.5 -148.5t130.5 -375.5t-114.5 -375t-290.5 -174v-403h-132v403q-176 26 -291.5 175.5t-115.5 359.5zM614 111q87 19 150 86q123 129 123 313.5 t-73 304t-200 144.5v-848z" />
<glyph unicode="&#x3c7;" horiz-adv-x="820" d="M25 -422l330 762l-320 715h148l245 -546l256 546h148l-332 -707l345 -770h-148l-267 595l-257 -595h-148z" />
<glyph unicode="&#x3c8;" horiz-adv-x="1170" d="M120 578v477h132v-477q0 -211 85.5 -334t211.5 -123v934h132v-934q126 0 211.5 123t85.5 334v477h132v-477q0 -273 -122 -425.5t-307 -152.5v-410h-132v410q-181 0 -303 147q-126 154 -126 431z" />
<glyph unicode="&#x3c9;" horiz-adv-x="1306" d="M75 480q0 309 140 575h120q-128 -244 -128 -575q0 -189 85 -310q45 -66 98 -66t91 29.5t61 71.5t40 89q30 88 30 137v313h132v-313q0 -49 23.5 -116.5t46.5 -109.5t61 -71.5t91 -29.5t98 66q85 121 85 310q0 276 -101 516q-16 38 -27 59h120q140 -266 140 -575 q0 -133 -38 -228t-74.5 -146t-91.5 -82.5t-119 -31.5q-181 0 -280 254q-99 -254 -280 -254q-64 0 -119 31.5t-91.5 82.5t-62.5 116q-50 125 -50 258z" />
<glyph unicode="&#x3ca;" horiz-adv-x="412" d="M-4 1188v150h150v-150h-150zM165 0v1055h132v-1055h-132zM315 1188v150h150v-150h-150z" />
<glyph unicode="&#x3cb;" d="M120 381v674h132v-674q0 -113 66 -197t170.5 -84t172 83.5t67.5 197.5v674h132v-674q0 -187 -104 -290t-267.5 -103t-266 103.5t-102.5 289.5zM256 1188v150h150v-150h-150zM575 1188v150h150v-150h-150z" />
<glyph unicode="&#x3cc;" horiz-adv-x="922" d="M75 534.5q0 241.5 108.5 386.5t303.5 145t302.5 -146t107.5 -390t-108.5 -393t-301.5 -149q-197 0 -306 154q-106 151 -106 392.5zM207 528q0 -317 165 -402q50 -26 115 -26t115.5 26t80.5 67t49 99q33 101 33 235q0 427 -279 427t-279 -426zM352 1222l156 387l114 -46 l-184 -375z" />
<glyph unicode="&#x3cd;" d="M120 381v674h132v-674q0 -113 66 -197t170.5 -84t172 83.5t67.5 197.5v674h132v-674q0 -187 -104 -290t-267.5 -103t-266 103.5t-102.5 289.5zM355 1222l156 387l114 -46l-184 -375z" />
<glyph unicode="&#x3ce;" horiz-adv-x="1306" d="M75 480q0 309 140 575h120q-128 -244 -128 -575q0 -189 85 -310q45 -66 98 -66t91 29.5t61 71.5t40 89q30 88 30 137v313h132v-313q0 -49 23.5 -116.5t46.5 -109.5t61 -71.5t91 -29.5t98 66q85 121 85 310q0 276 -101 516q-16 38 -27 59h120q140 -266 140 -575 q0 -133 -38 -228t-74.5 -146t-91.5 -82.5t-119 -31.5q-181 0 -280 254q-99 -254 -280 -254q-64 0 -119 31.5t-91.5 82.5t-62.5 116q-50 125 -50 258zM543 1222l156 387l114 -46l-184 -375z" />
<glyph unicode="&#x3cf;" horiz-adv-x="1090" d="M135 0v1515h149v-824l617 824h159l-434 -569l489 -946q-117 -120 -168 -178l-192 -232l-98 75q147 226 215 295l64 63l-404 799l-248 -327v-495h-149z" />
<glyph unicode="&#x3d0;" horiz-adv-x="1030" d="M129 397v546q0 582 420 582q150 0 245 -97.5t95 -226.5q0 -74 -36.5 -152t-111.5 -137q128 -47 196 -160t68 -274q0 -145 -66 -266q-121 -223 -374 -223q-221 0 -361 203q-75 109 -75 205zM261 394q0 -64 51 -133.5t122.5 -114.5t128 -45t108.5 22t98.5 65t75 118.5 t28.5 167.5t-27 159.5t-74 108.5q-96 81 -248.5 81t-262.5 -106v-323zM261 856q93 58 226 78.5t205.5 94.5t72.5 167t-63.5 155t-147 62t-141 -37t-89.5 -104q-63 -127 -63 -329v-87z" />
<glyph unicode="&#x3d1;" horiz-adv-x="922" d="M78 674l134 -66l12 -84q19 -119 31.5 -159.5t28 -83.5t34.5 -69t44 -51q47 -48 122.5 -48t130.5 54.5t85 146.5q59 175 65 397q-36 -15 -107 -29t-158 -14t-168 28.5t-125 85.5q-80 105 -80 296.5t107 321t245 129.5t231 -97q187 -195 187 -677q0 -472 -187 -673 q-94 -101 -223 -101q-278 0 -372 415q-28 124 -37 278zM246 1076q0 -132 76 -204.5t222 -72.5q61 0 137.5 10.5t82.5 12.5q-19 575 -277 575q-97 0 -169 -94.5t-72 -226.5z" />
<glyph unicode="&#x3d2;" horiz-adv-x="1190" d="M25 1515h154l382 -713q202 493 235.5 545t66.5 95q56 73 130 73q102 0 164 -69.5t58 -183.5l-138 19q3 34 -13.5 63.5t-46.5 29.5t-71.5 -54t-102.5 -184q-103 -225 -152 -342l-56 -134v-660h-148v660z" />
<glyph unicode="&#x3d3;" horiz-adv-x="1190" d="M-254 1135l156 387l114 -46l-184 -375zM25 1515h154l382 -713q202 493 235.5 545t66.5 95q56 73 130 73q102 0 164 -69.5t58 -183.5l-138 19q3 34 -13.5 63.5t-46.5 29.5t-71.5 -54t-102.5 -184q-103 -225 -152 -342l-56 -134v-660h-148v660z" />
<glyph unicode="&#x3d4;" horiz-adv-x="1190" d="M25 1515h154l382 -713q202 493 235.5 545t66.5 95q56 73 130 73q102 0 164 -69.5t58 -183.5l-138 19q3 34 -13.5 63.5t-46.5 29.5t-71.5 -54t-102.5 -184q-103 -225 -152 -342l-56 -134v-660h-148v660zM326 1654v150h150v-150h-150zM645 1654v150h150v-150h-150z" />
<glyph unicode="&#x3d5;" horiz-adv-x="1044" d="M75 534.5q0 216.5 111.5 360.5t295.5 167v289h132v-289q184 -24 294.5 -168.5t110.5 -361.5t-114.5 -365t-290.5 -174v-403h-132v403q-176 26 -291.5 175.5t-115.5 366zM207 528q0 -201 124 -334q64 -68 151 -87v841q-127 -25 -201 -138t-74 -282zM614 107q87 19 150 87 q123 131 123 315t-73 299t-200 140v-841z" />
<glyph unicode="&#x3d6;" horiz-adv-x="1306" d="M18 943v112h1320v-112h-144q87 -217 87 -463q0 -133 -38 -228t-74.5 -146t-91.5 -82.5t-119 -31.5q-181 0 -280 254q-99 -254 -280 -254q-64 0 -119 31.5t-91.5 82.5t-62.5 116q-50 125 -50 258q0 246 87 463h-144zM207 480q0 -189 85 -310q45 -66 98 -66t91 29.5 t61 71.5t40 89q30 88 30 137v313h132v-313q0 -49 23.5 -116.5t46.5 -109.5t61 -71.5t91 -29.5t98 66q85 121 85 336t-79 437h-784q-79 -222 -79 -463z" />
<glyph unicode="&#x3d7;" horiz-adv-x="793" d="M130 2v1053h132v-506l382 506h134l-304 -398l344 -657q-107 -122 -172 -203l-112 -147l-78 76q91 152 134 203l75 88l-271 536l-132 -176v-375h-132z" />
<glyph unicode="&#x3d8;" horiz-adv-x="1213" d="M80 963q0 240 144 401q70 78 177.5 123t236.5 45t233 -46t171 -125q141 -164 141 -389.5t-118.5 -370.5t-334.5 -187v-414h-148v411q-223 29 -362.5 182.5t-139.5 369.5zM228 963q0 -205 106.5 -318.5t303 -113.5t297 115t100.5 321t-99.5 323.5t-294.5 117.5 q-413 0 -413 -445z" />
<glyph unicode="&#x3d9;" horiz-adv-x="1044" d="M75 544.5q0 226.5 131 374t341.5 147.5t341 -148.5t130.5 -375.5t-114.5 -375t-290.5 -174v-403h-132v403q-176 26 -291.5 175.5t-115.5 376zM207 545.5q0 -173.5 85 -304.5q41 -63 108 -102t148 -39t147.5 38.5t106.5 101.5q85 131 85 303t-91.5 291.5t-247 119.5 t-248.5 -117.5t-93 -291z" />
<glyph unicode="&#x3da;" horiz-adv-x="1173" d="M80 731.5q0 140.5 17.5 245.5t58.5 204t102 172.5t153.5 117.5t206.5 44h580v-124h-580q-96 0 -167.5 -38.5t-113 -98t-67.5 -146.5q-42 -144 -42 -315t19.5 -283t62.5 -205q93 -197 308 -197q181 0 252 -128q35 -63 35 -125.5t-24.5 -119t-80 -100.5t-128.5 -47l-14 124 q55 8 85 48t30 68.5t-0.5 36t-3 25t-8 28t-17 25t-27.5 21.5q-42 20 -113 20t-143.5 24t-126.5 65.5t-97.5 100t-72.5 126t-48 144.5q-36 147 -36 287.5z" />
<glyph unicode="&#x3db;" horiz-adv-x="895" d="M75 528q0 142 42.5 261.5t122 192.5t180.5 73h500v-112h-484q-73 0 -126 -59q-103 -116 -103 -356q0 -317 165 -402q50 -26 123.5 -26t132.5 -18.5t90 -49.5q56 -59 56 -141.5t-60.5 -142t-172.5 -64.5l-14 112q115 17 115 90q0 55 -14.5 66t-30.5 20q-28 16 -118 16 t-168.5 41t-129.5 113q-106 151 -106 386z" />
<glyph unicode="&#x3dc;" horiz-adv-x="974" d="M135 0v1515h821v-124h-673v-533h483v-124h-483v-734h-148z" />
<glyph unicode="&#x3dd;" horiz-adv-x="520" d="M-53 -114h89q88 0 117 26q33 29 33 88v1278q0 163 141 220q66 26 143.5 26t86.5 -9v-111h-89q-150 0 -150 -126v-223h239v-112h-239v-943q0 -234 -289 -234q-73 0 -82 9v111z" />
<glyph unicode="&#x3de;" horiz-adv-x="935" d="M68 1400v124q170 0 230 -91q84 -130 -2 -461q-27 -102 -71 -236l662 253l47 -114q-113 -341 -138 -466q-38 -194 32 -253q38 -32 112 -32v-124q-170 0 -230 91q-84 130 2 461q27 102 71 236l-662 -253l-47 114q113 342 138 468q38 195 -35 252q-38 31 -109 31z" />
<glyph unicode="&#x3df;" horiz-adv-x="842" d="M75 688l271 827h130l-246 -715h587l-262 -800h-130l237 688h-587z" />
<glyph unicode="&#x3e0;" horiz-adv-x="1038" d="M15 1507q61 26 194 26t246.5 -31t214.5 -98.5t176 -164.5q162 -210 162 -549q0 -165 -33 -338t-65 -264l-33 -90h-148l14 38q71 195 103 446q14 111 14 206q0 177 -40 307q-109 -30 -150 -105q-18 -32 -18 -70v-409h-148v437q0 57 26 107t63 81q75 62 137 83l26 9 q-29 61 -96.5 120.5t-136.5 96t-117 44.5v-467h-148v488q-56 -1 -132 -8.5t-85 -11.5z" />
<glyph unicode="&#x3e1;" horiz-adv-x="1017" d="M80 0l602 602q-158 183 -408 282q-73 29 -119 39t-47 10l31 122q132 -24 214.5 -59.5t156.5 -77.5t138 -94q151 -121 252 -296q143 -248 143 -573q0 -150 -29 -287l-9 -41q-4 -18 -9 -37h-132l14 47q8 30 21.5 122t13.5 219.5t-43 275.5l-254 -254h-162l373 371 q-31 71 -76 140l-509 -511h-162z" />
<glyph unicode="&#x3e2;" horiz-adv-x="1428" d="M80 615q0 445 253 900l114 -54q-219 -407 -219 -846q0 -177 32 -292t74.5 -163t98.5 -48t100 28.5t68.5 69.5t40.5 90q27 84 27 150v294h140v-294q0 -66 21.5 -132.5t46 -107.5t68.5 -69.5t96 -28.5t90.5 35t60 87.5t35.5 123.5q23 115 23 257q0 439 -219 846l114 54 q253 -455 253 -900q0 -446 -282 -755q-155 -170 -366 -240q-97 -32 -188 -32v124q131 0 308 116q100 66 177 160h-3q-186 0 -276 174q-15 28 -29 63q-51 -127 -127 -183q-73 -54 -173.5 -54t-172 56.5t-110.5 151.5q-76 184 -76 419z" />
<glyph unicode="&#x3e3;" horiz-adv-x="1114" d="M75 443q0 112 16 186t28 119t27 84l28 73q14 33 28 61l24 47q10 18 27 47l102 -47q-148 -266 -148 -570q0 -122 23 -199q40 -140 121 -140q102 0 145 124q20 56 20 100v193h132v-193q0 -84 48 -160q40 -64 117 -64q112 0 138 232q6 52 6 107q0 304 -148 570l102 47 q17 -29 27 -47l24 -47q14 -28 28 -61l28 -73q71 -186 71 -389q0 -129 -47 -250.5t-121 -210.5t-163 -157q-179 -137 -333 -137v112q64 0 172 49t195 144q-81 6 -132.5 54.5t-77.5 110.5q-27 -66 -84 -116t-135.5 -50t-133 42t-87.5 109q-67 136 -67 300z" />
<glyph unicode="&#x3e4;" horiz-adv-x="1027" d="M68 739q0 92 20.5 181.5t53 163t72 142.5t78.5 120l72 90q33 39 54 59l20 20h148q-199 -199 -298 -434q-72 -173 -72 -332.5t81 -254t197 -94.5q114 0 222 178q45 74 78 154v783h148v-1515h-148v553q-38 -101 -98 -163q-109 -114 -256 -114q-62 0 -127.5 36t-120 96 t-89.5 149.5t-35 181.5z" />
<glyph unicode="&#x3e5;" horiz-adv-x="776" d="M75 598q0 68 27 140.5t66 126.5q80 111 144 167l27 23h132q-35 -29 -86 -86t-86 -108t-63.5 -123.5t-28.5 -139.5q0 -287 172 -287q84 0 160 128q22 37 29 51l15 33l1 2v530h132v-1055h-132v422q0 -1 -4 -10t-8 -19t-11.5 -26t-16 -30.5t-21 -31.5t-25.5 -31.5 t-30.5 -28.5t-35.5 -23q-42 -22 -90 -22q-84 0 -146 62q-121 118 -121 336z" />
<glyph unicode="&#x3e6;" horiz-adv-x="1125" d="M135 0v1515h148v-601q107 157 354 157q100 0 189 -47t150 -124q131 -166 131 -372q0 -285 -141 -535q-63 -113 -174 -227q-101 -105 -208 -166l-18 -10l-91 64l4 2q159 97 280 259q200 268 200 613q0 109 -43 203t-130.5 155t-202.5 61q-135 0 -257 -127q-25 -26 -43 -50 v-770h-148z" />
</font>
</defs>
</svg>
