<?xml version="1.0" encoding="UTF-8" standalone="no"?>
<svg
   xmlns:sketch="http://www.bohemiancoding.com/sketch/ns"
   xmlns:dc="http://purl.org/dc/elements/1.1/"
   xmlns:cc="http://creativecommons.org/ns#"
   xmlns:rdf="http://www.w3.org/1999/02/22-rdf-syntax-ns#"
   xmlns:svg="http://www.w3.org/2000/svg"
   xmlns="http://www.w3.org/2000/svg"
   xmlns:sodipodi="http://sodipodi.sourceforge.net/DTD/sodipodi-0.dtd"
   xmlns:inkscape="http://www.inkscape.org/namespaces/inkscape"
   width="180"
   height="180"
   viewBox="0 0 180 180"
   version="1.1"
   id="svg2"
   inkscape:version="0.48.2 r9819"
   sodipodi:docname="hangjs-logo.svg">
  <metadata
     id="metadata20">
    <rdf:RDF>
      <cc:Work
         rdf:about="">
        <dc:format>image/svg+xml</dc:format>
        <dc:type
           rdf:resource="http://purl.org/dc/dcmitype/StillImage" />
        <dc:title>Untitled 2</dc:title>
      </cc:Work>
    </rdf:RDF>
  </metadata>
  <sodipodi:namedview
     pagecolor="#ffffff"
     bordercolor="#666666"
     borderopacity="1"
     objecttolerance="10"
     gridtolerance="10"
     guidetolerance="10"
     inkscape:pageopacity="0"
     inkscape:pageshadow="2"
     inkscape:window-width="1253"
     inkscape:window-height="691"
     id="namedview18"
     showgrid="false"
     units="in"
     inkscape:zoom="2.3137255"
     inkscape:cx="116.14061"
     inkscape:cy="91.686367"
     inkscape:window-x="0"
     inkscape:window-y="0"
     inkscape:window-maximized="0"
     inkscape:current-layer="svg2" />
  <title
     id="title4">Untitled 2</title>
  <description
     id="description6">Created with Sketch (http://www.bohemiancoding.com/sketch)</description>
  <defs
     id="defs8" />
  <g
     id="Page-1"
     sketch:type="MSPage"
     style="fill:none;stroke:none"
     transform="matrix(2.6716331,0,0,2.6716331,7.6719205,22.572894)">
    <path
       d="M 41.1631,37.5942 C 41.4261,32.7872 41.8941,29.2092 49.1431,29.5122 49.4071,29.5242 49.6511,29.5412 49.8801,29.5632 50.2571,27.8112 50.4761,26.0672 50.5361,24.3832 50.9641,12.4442 40.9231,2.6062 30.0571,0.4342 17.6931,-2.0408 5.2681,7.4122 1.7961,18.0962 -2.7959,32.2272 4.8431,48.4752 23.8181,50.3112 31.3351,51.0392 37.2341,48.6212 41.5581,44.6622 41.2661,42.5732 41.0311,39.9982 41.1631,37.5942"
       id="Fill-2"
       sketch:type="MSShapeGroup"
       inkscape:connector-curvature="0"
       style="fill:#2ecc71" />
    <path
       d="M 28.0229,13.9946 C 28.0229,13.3986 28.2829,13.1016 28.8059,13.1016 L 30.5379,13.1016 C 31.1149,13.1016 31.4039,13.3796 31.4039,13.9396 L 31.4039,15.9786 C 31.4039,16.4456 31.6279,16.6766 32.0749,16.6766 L 36.6849,16.6766 C 37.2629,16.6766 37.5519,16.9576 37.5519,17.5156 L 37.5519,18.9416 C 37.5519,19.5176 37.2719,19.8066 36.7139,19.8066 L 23.1889,19.8066 C 22.6109,19.8066 22.3219,19.5276 22.3219,18.9696 L 22.3219,17.5436 C 22.3219,16.9676 22.6009,16.6766 23.1599,16.6766 L 27.3249,16.6766 C 27.7899,16.6766 28.0229,16.4536 28.0229,16.0066 L 28.0229,13.9946 z M 24.6689,22.9656 C 24.6689,22.3696 24.9299,22.0706 25.4519,22.0706 L 33.5559,22.0706 C 34.1329,22.0706 34.4229,22.3496 34.4229,22.9086 L 34.4229,34.7586 C 34.4399,35.2236 34.6169,35.4656 34.9529,35.4846 35.0459,35.3906 35.1109,35.0646 35.1479,34.5066 35.1859,34.0966 35.1949,33.6586 35.1769,33.1916 35.1769,32.6336 35.4559,32.4846 36.0149,32.7446 L 37.4399,33.4716 C 38.0169,33.7696 38.2959,34.1976 38.2779,34.7586 38.2219,36.2656 37.8309,37.3656 37.1049,38.0556 36.1729,38.4826 34.9529,38.5846 33.4439,38.3616 32.2519,38.3066 31.5439,37.6916 31.3199,36.5176 31.2449,36.1816 31.1989,35.8386 31.1809,35.4846 L 31.1809,25.8446 C 31.1809,25.3776 30.9569,25.1446 30.5099,25.1446 L 28.5249,25.1446 C 28.0599,25.1446 27.8269,25.3676 27.8269,25.8146 L 27.8269,30.6216 C 27.7719,32.3346 27.5019,33.8266 27.0159,35.0926 26.6629,36.0436 26.0479,36.9926 25.1719,37.9416 24.5019,38.5946 23.9239,38.6586 23.4399,38.1396 23.2159,37.8596 22.9559,37.5706 22.6569,37.2716 22.1359,36.6936 22.1169,36.1356 22.6009,35.5966 23.9609,33.7506 24.6509,31.5066 24.6689,28.8616 L 24.6689,22.9656 z M 15.8679,13.9946 C 15.8679,13.3986 16.1279,13.1016 16.6499,13.1016 L 18.1309,13.1016 C 18.7079,13.1016 18.9979,13.3796 18.9979,13.9396 L 18.9979,16.9846 C 18.9979,17.4516 19.2219,17.6836 19.6679,17.6836 L 21.0089,17.6836 C 21.5859,17.6836 21.8759,17.9636 21.8759,18.5216 L 21.8759,19.8366 C 21.8759,20.4126 21.5959,20.7016 21.0369,20.7016 L 19.6959,20.7016 C 19.2299,20.7016 18.9979,20.9336 18.9979,21.4006 18.9979,21.8656 19.2759,22.3496 19.8359,22.8536 L 21.8759,24.8086 C 22.3969,25.3676 22.4619,25.9286 22.0709,26.4866 21.7729,26.8776 21.5019,27.2676 21.2599,27.6606 20.8689,28.2196 20.4589,28.1996 20.0309,27.6036 L 19.5279,26.8776 C 19.1739,26.3926 18.9979,26.3736 18.9979,26.8206 L 18.9979,38.0556 C 18.9979,38.6316 18.7179,38.9206 18.1589,38.9206 L 16.7339,38.9206 C 16.1559,38.9206 15.8679,38.6406 15.8679,38.0826 L 15.8679,29.3636 C 15.8679,28.7306 15.7359,28.7216 15.4769,29.3366 15.2149,29.9886 14.9079,30.6686 14.5539,31.3756 14.2369,31.9736 13.8559,32.0106 13.4089,31.4886 L 12.9619,30.9286 C 12.4389,30.2956 12.3559,29.6726 12.7099,29.0576 13.9199,26.6356 14.9079,24.1016 15.6719,21.4556 15.8209,20.9536 15.6809,20.7016 15.2529,20.7016 L 13.5759,20.7016 C 12.9989,20.7016 12.7099,20.4226 12.7099,19.8636 L 12.7099,18.5496 C 12.7099,17.9736 12.9889,17.6836 13.5479,17.6836 L 15.1689,17.6836 C 15.6339,17.6836 15.8679,17.4596 15.8679,17.0126 L 15.8679,13.9946 z"
       id="Fill-4"
       sketch:type="MSShapeGroup"
       inkscape:connector-curvature="0"
       style="fill:#ffffff" />
    <path
       d="M 60.8857,42.4536 C 60.3817,43.4616 59.4477,45.8086 57.1477,46.6726 54.8467,47.5336 48.3407,47.7116 46.7517,47.7116 44.7827,47.7116 42.9257,46.3346 42.2897,44.1806 41.7157,42.2286 41.8127,35.4126 42.2897,33.8266 42.7667,32.2426 44.3037,30.6646 45.7417,30.3776 47.1787,30.0906 52.5127,30.4166 54.9427,30.8986 58.1067,31.5276 59.1117,33.3966 60.1177,34.9786 61.1257,36.5586 61.3887,41.4476 60.8857,42.4536"
       id="Fill-6"
       sketch:type="MSShapeGroup"
       inkscape:connector-curvature="0"
       style="fill:#f1c40f" />
    <path
       d="M 49.6924,35.1821 49.6924,40.5651 C 49.6924,40.9441 49.6374,41.2661 49.5284,41.5321 49.4194,41.7991 49.2744,42.0201 49.0894,42.1921 48.9064,42.3641 48.6914,42.4891 48.4464,42.5671 48.1994,42.6451 47.9424,42.6861 47.6714,42.6861 47.4114,42.6861 47.1624,42.6451 46.9214,42.5651 46.6804,42.4851 46.4674,42.3641 46.2824,42.2021 46.0974,42.0391 45.9494,41.8421 45.8384,41.6061 45.7274,41.3681 45.6714,41.0921 45.6714,40.7761 L 45.6714,40.2111 46.4564,40.2111 46.4564,40.6841 C 46.4564,40.9111 46.4934,41.1061 46.5674,41.2741 46.6424,41.4401 46.7374,41.5771 46.8564,41.6841 46.9744,41.7931 47.1064,41.8711 47.2534,41.9241 47.4014,41.9751 47.5464,42.0001 47.6924,42.0001 47.8104,42.0001 47.9394,41.9791 48.0804,41.9341 48.2194,41.8891 48.3514,41.8151 48.4744,41.7131 48.5964,41.6101 48.7004,41.4731 48.7834,41.3011 48.8664,41.1291 48.9074,40.9161 48.9074,40.6621 L 48.9074,35.1821 49.6924,35.1821 z"
       id="Fill-8"
       sketch:type="MSShapeGroup"
       inkscape:connector-curvature="0"
       style="fill:#222222" />
    <path
       d="M 47.6719,43.2036 C 47.3569,43.2036 47.0489,43.1526 46.7559,43.0556 46.4509,42.9536 46.1769,42.7976 45.9419,42.5906 45.7029,42.3836 45.5109,42.1256 45.3689,41.8246 45.2269,41.5196 45.1539,41.1666 45.1539,40.7756 L 45.1539,40.2116 C 45.1539,39.9246 45.3859,39.6916 45.6719,39.6916 L 46.4559,39.6916 C 46.7419,39.6916 46.9739,39.9246 46.9739,40.2116 L 46.9739,40.6836 C 46.9739,40.8366 46.9959,40.9636 47.0409,41.0626 47.0859,41.1626 47.1399,41.2426 47.2079,41.3036 47.2719,41.3636 47.3429,41.4066 47.4249,41.4356 47.5819,41.4906 47.7139,41.5086 47.9229,41.4396 47.9979,41.4166 48.0709,41.3756 48.1409,41.3146 48.2089,41.2606 48.2669,41.1806 48.3179,41.0766 48.3659,40.9766 48.3899,40.8346 48.3899,40.6626 L 48.3899,35.1826 C 48.3899,34.8966 48.6229,34.6646 48.9079,34.6646 L 49.6919,34.6646 C 49.9779,34.6646 50.2099,34.8966 50.2099,35.1826 L 50.2099,40.5646 C 50.2099,41.0086 50.1429,41.3986 50.0079,41.7286 49.8719,42.0646 49.6809,42.3486 49.4429,42.5686 49.2069,42.7916 48.9239,42.9576 48.6059,43.0586 48.3069,43.1546 47.9929,43.2036 47.6719,43.2036"
       id="Fill-10"
       sketch:type="MSShapeGroup"
       inkscape:connector-curvature="0"
       style="fill:#222222" />
    <path
       d="M 52.668,40.9087 C 52.685,41.1547 52.741,41.3797 52.837,41.5847 52.933,41.7897 53.06,41.9677 53.218,42.1177 53.377,42.2677 53.564,42.3857 53.78,42.4697 53.997,42.5537 54.236,42.5947 54.497,42.5947 54.729,42.5947 54.949,42.5687 55.162,42.5197 55.374,42.4697 55.56,42.3887 55.721,42.2797 55.882,42.1707 56.011,42.0277 56.107,41.8537 56.204,41.6787 56.252,41.4657 56.252,41.2157 56.252,41.0107 56.2,40.8387 56.095,40.6957 55.991,40.5537 55.855,40.4297 55.685,40.3247 55.516,40.2217 55.322,40.1317 55.105,40.0567 54.888,39.9827 54.669,39.9107 54.448,39.8447 54.17,39.7637 53.893,39.6727 53.614,39.5727 53.336,39.4717 53.085,39.3447 52.861,39.1897 52.638,39.0357 52.457,38.8427 52.316,38.6117 52.176,38.3797 52.106,38.0947 52.106,37.7507 52.106,37.4677 52.162,37.2157 52.275,36.9987 52.387,36.7797 52.545,36.5967 52.749,36.4497 52.952,36.2997 53.195,36.1877 53.478,36.1117 53.759,36.0357 54.069,35.9987 54.409,35.9987 54.709,35.9987 54.974,36.0277 55.206,36.0867 55.437,36.1467 55.64,36.2267 55.814,36.3307 55.988,36.4317 56.135,36.5497 56.254,36.6837 56.373,36.8167 56.471,36.9617 56.547,37.1117 56.624,37.2637 56.681,37.4207 56.719,37.5787 56.756,37.7387 56.78,37.8927 56.79,38.0417 L 56.031,38.0417 C 56.012,37.8127 55.956,37.6117 55.866,37.4357 55.774,37.2627 55.656,37.1157 55.511,36.9987 55.366,36.8817 55.199,36.7917 55.01,36.7327 54.821,36.6727 54.62,36.6427 54.409,36.6427 54.216,36.6427 54.026,36.6607 53.839,36.6997 53.652,36.7387 53.485,36.8037 53.338,36.8927 53.191,36.9807 53.072,37.0957 52.981,37.2367 52.89,37.3757 52.845,37.5477 52.845,37.7507 52.845,37.9617 52.896,38.1387 52.998,38.2857 53.101,38.4337 53.237,38.5587 53.409,38.6647 53.58,38.7697 53.776,38.8597 53.996,38.9377 54.215,39.0157 54.443,39.0907 54.678,39.1607 54.959,39.2447 55.236,39.3367 55.513,39.4357 55.791,39.5357 56.038,39.6627 56.257,39.8147 56.475,39.9677 56.651,40.1547 56.787,40.3797 56.922,40.6037 56.99,40.8817 56.99,41.2157 56.99,41.5497 56.928,41.8447 56.804,42.0977 56.68,42.3517 56.507,42.5627 56.286,42.7347 56.064,42.9047 55.801,43.0337 55.496,43.1197 55.191,43.2057 54.859,43.2487 54.497,43.2487 54.17,43.2487 53.855,43.1937 53.548,43.0867 53.242,42.9767 52.969,42.8207 52.73,42.6177 52.49,42.4147 52.295,42.1687 52.146,41.8797 51.995,41.5907 51.916,41.2677 51.905,40.9087 L 52.668,40.9087 z"
       id="Fill-12"
       sketch:type="MSShapeGroup"
       inkscape:connector-curvature="0"
       style="fill:#222222" />
    <path
       d="M 54.4971,43.7661 C 54.1141,43.7661 53.7381,43.7021 53.3761,43.5751 53.0111,43.4461 52.6811,43.2561 52.3951,43.0121 52.1031,42.7661 51.8661,42.4651 51.6861,42.1201 51.5001,41.7621 51.4001,41.3601 51.3881,40.9241 51.3851,40.7841 51.4371,40.6491 51.5341,40.5491 51.6321,40.4481 51.7661,40.3911 51.9051,40.3911 L 52.6681,40.3911 C 52.9401,40.3911 53.1661,40.6041 53.1851,40.8751 53.1961,41.0571 53.2361,41.2171 53.3061,41.3641 53.3751,41.5121 53.4631,41.6351 53.5751,41.7431 53.6851,41.8461 53.8131,41.9261 53.9671,41.9851 54.2731,42.1041 54.6941,42.0981 55.0431,42.0161 55.1911,41.9811 55.3211,41.9261 55.4301,41.8521 55.5251,41.7871 55.5971,41.7071 55.6541,41.6041 55.7071,41.5081 55.7341,41.3751 55.7341,41.2151 55.7341,41.0921 55.7021,41.0361 55.6781,41.0021 55.6121,40.9121 55.5251,40.8361 55.4121,40.7661 55.2761,40.6821 55.1161,40.6081 54.9371,40.5471 54.7261,40.4751 54.5121,40.4051 54.2961,40.3381 54.0161,40.2561 53.7291,40.1621 53.4401,40.0591 53.1181,39.9441 52.8251,39.7951 52.5661,39.6161 52.2831,39.4181 52.0511,39.1701 51.8741,38.8791 51.6851,38.5671 51.5881,38.1881 51.5881,37.7501 51.5881,37.3851 51.6651,37.0511 51.8151,36.7601 51.9651,36.4711 52.1761,36.2251 52.4451,36.0301 52.6971,35.8461 53.0001,35.7031 53.3431,35.6121 53.9551,35.4481 54.7571,35.4381 55.3351,35.5861 55.6121,35.6591 55.8611,35.7581 56.0751,35.8831 56.2971,36.0121 56.4871,36.1661 56.6411,36.3401 56.7891,36.5041 56.9131,36.6861 57.0091,36.8791 57.1031,37.0671 57.1751,37.2621 57.2221,37.4611 57.2671,37.6491 57.2951,37.8321 57.3061,38.0101 57.3151,38.1511 57.2641,38.2911 57.1661,38.3971 57.0691,38.5001 56.9331,38.5591 56.7891,38.5591 L 56.0311,38.5591 C 55.7631,38.5591 55.5391,38.3541 55.5161,38.0861 55.5021,37.9261 55.4661,37.7871 55.4061,37.6761 55.3481,37.5651 55.2751,37.4731 55.1841,37.3991 55.0911,37.3231 54.9811,37.2661 54.8531,37.2251 54.5811,37.1391 54.2471,37.1451 53.9431,37.2071 53.8151,37.2331 53.7021,37.2761 53.6061,37.3341 53.5261,37.3831 53.4631,37.4441 53.4141,37.5181 53.3791,37.5711 53.3621,37.6511 53.3621,37.7501 53.3621,37.8541 53.3821,37.9321 53.4231,37.9891 53.4851,38.0791 53.5691,38.1571 53.6801,38.2231 53.8191,38.3071 53.9831,38.3851 54.1681,38.4501 54.3801,38.5261 54.6011,38.5961 54.8281,38.6641 55.1151,38.7501 55.4031,38.8461 55.6891,38.9501 56.0061,39.0631 56.2971,39.2111 56.5511,39.3891 56.8291,39.5821 57.0571,39.8251 57.2291,40.1121 57.4151,40.4181 57.5081,40.7891 57.5081,41.2151 57.5081,41.6271 57.4271,42.0021 57.2691,42.3251 57.1111,42.6491 56.8861,42.9241 56.6021,43.1451 56.3281,43.3561 56.0041,43.5161 55.6361,43.6181 55.2861,43.7171 54.9021,43.7661 54.4971,43.7661"
       id="Fill-14"
       sketch:type="MSShapeGroup"
       inkscape:connector-curvature="0"
       style="fill:#222222" />
  </g>
</svg>
